<?xml version="1.0" encoding="UTF-8" standalone="no"?>
<!-- Generator: Adobe Illustrator 19.0.0, SVG Export Plug-In . SVG Version: 6.00 Build 0)  -->

<svg
   xmlns:dc="http://purl.org/dc/elements/1.1/"
   xmlns:cc="http://creativecommons.org/ns#"
   xmlns:rdf="http://www.w3.org/1999/02/22-rdf-syntax-ns#"
   xmlns:svg="http://www.w3.org/2000/svg"
   xmlns="http://www.w3.org/2000/svg"
   xmlns:sodipodi="http://sodipodi.sourceforge.net/DTD/sodipodi-0.dtd"
   xmlns:inkscape="http://www.inkscape.org/namespaces/inkscape"
   version="1.1"
   id="Capa_1"
   x="0px"
   y="0px"
   viewBox="0 0 512 512"
   style="enable-background:new 0 0 512 512;"
   xml:space="preserve"
   sodipodi:docname="mountains.svg"
   inkscape:version="0.92.1 r15371"><metadata
     id="metadata297"><rdf:RDF><cc:Work
         rdf:about=""><dc:format>image/svg+xml</dc:format><dc:type
           rdf:resource="http://purl.org/dc/dcmitype/StillImage" /></cc:Work></rdf:RDF></metadata><defs
     id="defs295" /><sodipodi:namedview
     pagecolor="#ffffff"
     bordercolor="#666666"
     borderopacity="1"
     objecttolerance="10"
     gridtolerance="10"
     guidetolerance="10"
     inkscape:pageopacity="0"
     inkscape:pageshadow="2"
     inkscape:window-width="1920"
     inkscape:window-height="1003"
     id="namedview293"
     showgrid="false"
     inkscape:zoom="0.921875"
     inkscape:cx="-21.895687"
     inkscape:cy="197.42688"
     inkscape:window-x="-9"
     inkscape:window-y="-9"
     inkscape:window-maximized="1"
     inkscape:current-layer="Capa_1" /><g
     id="g260"><g
       id="g4"><circle
         style="fill:#95C4F8;"
         cx="256"
         cy="256"
         r="256"
         id="circle2" /></g><g
       id="g8"><path
         style="fill:#7E7E92;"
         d="M21.502,153.291c-7.67,17.486-13.428,35.989-17.041,55.258C4.131,217.864,4,226.723,4,234.001    c0,23.422,3.421,46.084,9.705,67.638c46.625,2.358,120.428,2.362,120.428,2.362l40.533-62L148,241.333    C98.017,241.333,63.857,171.386,21.502,153.291z"
         id="path6" /></g><g
       id="g12"><path
         style="fill:#7E7E92;"
         d="M439.467,205.333c-27.467,0-38.8,36.267-75.467,36.267l12,84.4c0,0,94,7.88,102,9.94    c4.53,1.167,14.826-2.174,22.911-5.292C508.101,307.027,512,281.972,512,256c0-1.826-0.1-3.626-0.138-5.443    C510.377,249.372,455.12,205.333,439.467,205.333z"
         id="path10" /></g><g
       id="g16"><path
         style="fill:#6E6E84;"
         d="M338.667,460l136.077-70.951c15.673-25.713,26.885-54.424,32.697-85.049l0,0    c0,0-53.941,1.5-75.44-8c-26.436-11.681-86.354-94.344-123.83-143.968c-6.968-8.764-13.73-16.901-20.17-24.032    c-11.113-12.306-43.567-16-48-16c-3.841,0-34.938,36.584-57.636,64.003C148.147,217.787,107.86,268.14,88,288l-33.275,68    L338.667,460z"
         id="path14" /></g><g
       id="g20"><path
         style="fill:#5F5F74;"
         d="M480.667,319.321c-39.333,0-78.38,5.879-124.667-33.321c-18-15.244-35.798-29.902-51-11.5    c-9.5,11.5-27.098,49.5-49,33.5s-31.127-65.45-52-66c-17-0.448-31,24.342-43.522,10.667C152.234,243.664,76.5,296.5,76.5,296.5    s77.5,68.812,88.5,68.156s75.902,9.256,75.902,9.256s23.023,27.117,34.847,22.755c11.824-4.362,40.716,4.735,57.279-2.606    C349.591,386.721,428.589,354,430.294,350S480.667,319.321,480.667,319.321z"
         id="path18" /></g><g
       id="g24"><path
         style="fill:#36B294;"
         d="M175.75,304.001c-12.704-5.801-9.941-20.9-24-25.501c-13.75-4.5-15.5-7.75-23.25-14.5    c-7.75-6.75-18.28,2.316-25.25-11.5C99.214,244.499,82,241,74.75,234c-7.25-7-20.192-4.684-25.75-7c-12-5-7.25-12.25-21.5-10.75    c-9.968,1.049-15.265-6.946-22.721-9.482c-2.206,11.318-3.681,22.896-4.342,34.694L63,275.5c0,0,61,19.75,65.5,21.5    c4.5,1.75,73.284,31.466,71.252,28.74C196.125,320.875,185.875,308.625,175.75,304.001z"
         id="path22" /></g><g
       id="g28"><path
         style="fill:#00A07D;"
         d="M230.691,359.286c-3.732-1.861-12.422-6.552-20.024-16.619S203,326,194,321.5    c-10.119-5.06-10-5.5-22-11.5s-12-10-19.25-18.5c-7.954-9.325-20.299-8.813-32.299-14.146S103.372,262.543,96,259    c-7.372-3.543-12,0.333-18.667-3.066c-9.035-4.607-9.564-17.685-20.839-16.352c-11.275,1.333-14.082,5.314-21.828-1.582    c-12.917-11.5-18.917-4.25-33.282-8.67C0.477,238.097,0,246.993,0,256c0,21.609,2.707,42.582,7.748,62.626    c11.393,2.223,23.875,4.591,36.309,7.374c38.723,8.667,140.61,40.667,176.61,46.667S234.424,361.147,230.691,359.286z"
         id="path26" /></g><g
       id="g32"><path
         style="fill:#52C883;"
         d="M0.955,277.354C7.113,351.849,45.116,417.289,101.378,460h92.409L320,384    C215.033,384,156.522,277.795,0.955,277.354z"
         id="path30" /></g><g
       id="g36"><path
         style="fill:#34BE71;"
         d="M256,512c124.97,0,228.963-89.569,251.44-207.999C412.781,304.029,296.992,422.482,192,408    c-58-8-73-24.033-147.943-8.396C90.103,467.431,167.842,512,256,512z"
         id="path34" /></g><g
       id="g54"><g
         id="g42"><g
           id="g40"><path
             style="fill:#674447;"
             d="M221.022,445.779c-1.337,0-2.419-1.082-2.419-2.417v-26.035c0-1.335,1.082-2.417,2.419-2.417      c1.337,0,2.419,1.082,2.419,2.417v26.035C223.441,444.697,222.359,445.779,221.022,445.779z"
             id="path38" /></g></g><g
         id="g48"><g
           id="g46"><path
             style="fill:#00A07D;"
             d="M236.257,415.109c0,8.414-6.821,15.235-15.235,15.235s-15.235-6.821-15.235-15.235      s6.821-34.279,15.235-34.279S236.257,406.695,236.257,415.109z"
             id="path44" /></g></g><g
         id="g52"><path
           style="fill:#36B294;"
           d="M221.021,380.83c-2.112,0-4.123,1.633-5.952,4.207h0c7.701,0,13.944,23.673,13.944,31.374     c0,6.699-4.728,12.284-11.026,13.627c0.981,0.198,1.994,0.306,3.033,0.306c8.414,0,15.235-6.821,15.235-15.235     C236.257,406.695,229.436,380.83,221.021,380.83z"
           id="path50" /></g></g><g
       id="g72"><g
         id="g60"><g
           id="g58"><path
             style="fill:#674447;"
             d="M417.67,373.912c-1.845,0-3.34-1.494-3.34-3.337V334.63c0-1.843,1.494-3.337,3.34-3.337      c1.845,0,3.34,1.494,3.34,3.337v35.945C421.01,372.418,419.516,373.912,417.67,373.912z"
             id="path56" /></g></g><g
         id="g66"><g
           id="g64"><path
             style="fill:#00A07D;"
             d="M438.704,331.568c0,11.617-9.417,21.034-21.035,21.034s-21.034-9.417-21.034-21.034      s9.417-47.328,21.034-47.328S438.704,319.951,438.704,331.568z"
             id="path62" /></g></g><g
         id="g70"><path
           style="fill:#36B294;"
           d="M417.669,284.24c-2.916,0-5.693,2.254-8.218,5.809h0.001c10.633,0,19.252,32.684,19.252,43.317     c0,9.249-6.527,16.96-15.223,18.814c1.354,0.274,2.753,0.422,4.188,0.422c11.617,0,21.035-9.417,21.035-21.034     C438.704,319.951,429.286,284.24,417.669,284.24z"
           id="path68" /></g></g><g
       id="g90"><g
         id="g78"><g
           id="g76"><path
             style="fill:#674447;"
             d="M471.837,378.596c-1.845,0-3.34-1.494-3.34-3.337v-35.945c0-1.843,1.494-3.337,3.34-3.337      s3.34,1.494,3.34,3.337v35.945C475.177,377.101,473.682,378.596,471.837,378.596z"
             id="path74" /></g></g><g
         id="g84"><g
           id="g82"><path
             style="fill:#00A07D;"
             d="M492.87,336.251c0,11.617-9.417,21.034-21.035,21.034s-21.034-9.417-21.034-21.034      c0-11.617,9.417-47.328,21.034-47.328S492.87,324.634,492.87,336.251z"
             id="path80" /></g></g><g
         id="g88"><path
           style="fill:#36B294;"
           d="M471.836,288.924c-2.916,0-5.693,2.254-8.218,5.809h0.001c10.633,0,19.252,32.684,19.252,43.317     c0,9.249-6.527,16.96-15.223,18.814c1.354,0.274,2.753,0.422,4.188,0.422c11.617,0,21.035-9.417,21.035-21.034     C492.871,324.634,483.453,288.924,471.836,288.924z"
           id="path86" /></g></g><g
       id="g108"><g
         id="g96"><g
           id="g94"><path
             style="fill:#674447;"
             d="M292.213,424.264c-1.845,0-3.34-1.494-3.34-3.337v-35.945c0-1.843,1.494-3.337,3.34-3.337      s3.34,1.494,3.34,3.337v35.945C295.553,422.77,294.058,424.264,292.213,424.264z"
             id="path92" /></g></g><g
         id="g102"><g
           id="g100"><path
             style="fill:#00A07D;"
             d="M313.247,381.92c0,11.617-9.417,21.035-21.034,21.035s-21.035-9.417-21.035-21.035      s9.417-47.328,21.035-47.328S313.247,370.303,313.247,381.92z"
             id="path98" /></g></g><g
         id="g106"><path
           style="fill:#36B294;"
           d="M292.212,334.592c-2.916,0-5.693,2.254-8.218,5.809h0.001c10.633,0,19.252,32.684,19.252,43.317     c0,9.249-6.527,16.96-15.223,18.814c1.354,0.273,2.753,0.422,4.188,0.422c11.617,0,21.035-9.417,21.035-21.034     C313.247,370.303,303.829,334.592,292.212,334.592z"
           id="path104" /></g></g><g
       id="g126"><g
         id="g114"><g
           id="g112"><path
             style="fill:#674447;"
             d="M248.215,440.113c-1.718,0-3.11-1.391-3.11-3.107v-33.469c0-1.716,1.391-3.107,3.11-3.107      s3.11,1.391,3.11,3.107v33.469C251.325,438.721,249.934,440.113,248.215,440.113z"
             id="path110" /></g></g><g
         id="g120"><g
           id="g118"><path
             style="fill:#00A07D;"
             d="M267.8,400.685c0,10.817-8.769,19.586-19.586,19.586s-19.586-8.769-19.586-19.586      c0-10.817,8.769-44.068,19.586-44.068S267.8,389.868,267.8,400.685z"
             id="path116" /></g></g><g
         id="g124"><path
           style="fill:#36B294;"
           d="M248.214,356.617c-2.715,0-5.301,2.099-7.652,5.409h0.001c9.9,0,17.926,30.433,17.926,40.333     c0,8.612-6.078,15.792-14.174,17.518c1.261,0.255,2.564,0.393,3.9,0.393c10.817,0,19.586-8.769,19.586-19.586     C267.8,389.868,259.031,356.617,248.214,356.617z"
           id="path122" /></g></g><g
       id="g130"><path
         style="fill:#44A67D;"
         d="M485.73,368.878C344,342,313.99,452.245,91.811,452.272C136.264,489.504,193.478,512,256,512    C356.857,512,444.021,453.644,485.73,368.878z"
         id="path128" /></g><g
       id="g134"><path
         style="fill:#FFFFFF;"
         d="M355.042,164.924c0-12.511,10.142-22.653,22.653-22.653c1.888,0,3.694,0.299,5.447,0.734    c5.911-6.383,14.292-10.442,23.678-10.442c17.873,0,32.361,14.489,32.361,32.361H355.042z"
         id="path132" /></g><g
       id="g138"><path
         style="fill:#C3E1F5;"
         d="M308.17,152.032c-6.968-8.764-13.73-16.901-20.17-24.032c-11.113-12.306-43.567-16-48-16    c-3.841,0-34.938,36.584-57.636,64.003c-8.701,10.625-17.794,21.803-26.844,32.895c3.913,5.46,11.484,13.15,22.694,12.057    c22.061-2.152,26.365-27.979,43.045-25.828C243.981,198.059,240.532,264,264.305,264c23.137,0,7.092-50.01,34.436-60.264    c20.142-7.553,27.568,14.102,61.51,16.915C341.686,196.917,323.138,171.852,308.17,152.032z"
         id="path136" /></g><g
       id="g142"><path
         style="fill:#EDF5FB;"
         d="M317.75,164.765c-3.311-4.41-6.535-8.702-9.579-12.733c-6.968-8.764-13.73-16.901-20.17-24.032    c-11.113-12.306-43.567-16-48-16c-2.677,0-18.595,17.775-35.68,37.827c18.68-14.827,28.872-8.726,32.346,8.618    c8.023,40.055,16.667,72.221,26.667,46.888s5.605-39.841,34.938-36.833C309.85,169.687,312.235,166.297,317.75,164.765z"
         id="path140" /></g><g
       id="g146"><path
         style="fill:#FFFFFF;"
         d="M120.451,176c0-13.574,11.004-24.577,24.577-24.577c2.049,0,4.007,0.324,5.91,0.796    c6.413-6.926,15.506-11.329,25.689-11.329c19.391,0,35.11,15.719,35.11,35.11H120.451z"
         id="path144" /></g><g
       id="g150"><path
         style="fill:#FFFFFF;"
         d="M367.479,159.646c-1.716,0-3.338,0.338-4.892,0.828c-4.923-7.077-13.091-11.731-22.365-11.731    s-17.442,4.653-22.365,11.731c-1.554-0.49-3.176-0.828-4.892-0.828c-9.032,0-16.354,7.322-16.354,16.354h87.223    C383.833,166.968,376.511,159.646,367.479,159.646z"
         id="path148" /></g><g
       id="g154"><path
         style="fill:#FFFFFF;"
         d="M126.467,146.035c-1.302,0-2.533,0.256-3.712,0.628c-3.736-5.37-9.933-8.901-16.971-8.901    s-13.235,3.531-16.971,8.901c-1.179-0.372-2.41-0.628-3.712-0.628c-6.854,0-12.41,5.556-12.41,12.41h66.184    C138.876,151.591,133.32,146.035,126.467,146.035z"
         id="path152" /></g><g
       style="opacity:0.6;"
       id="g158"><path
         style="fill:#FFFFFF;"
         d="M310.94,63.001c-1.215,0-2.363,0.239-3.463,0.586c-3.485-5.01-9.268-8.305-15.834-8.305    s-12.349,3.294-15.834,8.305c-1.101-0.347-2.249-0.586-3.463-0.586c-2.22,0-4.274,0.656-6.037,1.74    c-3.736-8.099-11.875-13.751-21.38-13.751c-6.842,0-12.952,2.959-17.26,7.612c-1.278-0.317-2.594-0.535-3.971-0.535    c-9.12,0-16.513,7.394-16.513,16.513h53.582h7.751h54C322.519,68.185,317.335,63.001,310.94,63.001z"
         id="path156" /></g><g
       style="opacity:0.6;"
       id="g162"><path
         style="fill:#FFFFFF;"
         d="M313.888,63.001c-1.215,0-2.363,0.239-3.463,0.586c-3.485-5.01-9.268-8.305-15.834-8.305    s-12.349,3.294-15.834,8.305c-1.101-0.347-2.249-0.586-3.463-0.586c-2.22,0-4.274,0.656-6.037,1.74    c-3.736-8.099-11.875-13.751-21.38-13.751c-6.842,0-12.952,2.959-17.26,7.612c-1.278-0.317-2.594-0.535-3.971-0.535    c-9.12,0-16.513,7.394-16.513,16.513h53.582h7.751h54C325.467,68.185,320.283,63.001,313.888,63.001z"
         id="path160" /></g><g
       style="opacity:0.6;"
       id="g166"><path
         style="fill:#FFFFFF;"
         d="M182.3,95.136c-0.99,0-1.926,0.195-2.823,0.478c-2.841-4.084-7.554-6.77-12.906-6.77    c-3.947,0-7.532,1.476-10.29,3.88c-3.764-5.432-10.025-9.003-17.134-9.003c-6.048,0-11.449,2.615-15.257,6.729    c-1.13-0.281-2.293-0.473-3.51-0.473c-8.062,0-14.597,6.535-14.597,14.597h35.62H160h31.738    C191.738,99.362,187.513,95.136,182.3,95.136z"
         id="path164" /></g><g
       style="opacity:0.6;"
       id="g170"><path
         style="fill:#FFFFFF;"
         d="M449.072,88c-3.746-4.301-7.589-8.514-11.61-12.555c-0.319,0.239-0.665,0.444-0.965,0.706    c-3.764-5.432-10.025-9.003-17.134-9.003c-6.048,0-11.449,2.615-15.257,6.729c-1.13-0.281-2.293-0.473-3.51-0.473    C392.535,73.403,386,79.938,386,88h35.62h18.596H449.072z"
         id="path168" /></g><g
       id="g174"><path
         style="fill:#C3E1F5;"
         d="M480.665,227.286c-15.876-11.083-33.422-21.953-41.198-21.953c-17.39,0-28.327,14.523-43.307,25.19    l0.011,0.007c24.829-4.197,26.642,27.805,38.142,27.805c13.457,0,13.824-17.163,27.02-11.335    C487,258.335,467.667,231.834,480.665,227.286z"
         id="path172" /></g><g
       id="g178"><path
         style="fill:#EDF5FB;"
         d="M465.063,216.949c-10.631-6.625-20.349-11.616-25.597-11.616c-11.887,0-20.767,6.808-29.976,14.509    c13.101,5.712,23.494,22.357,39.582,11.657C459.734,224.408,461.669,220.085,465.063,216.949z"
         id="path176" /></g><g
       id="g196"><g
         id="g184"><g
           id="g182"><path
             style="fill:#674447;"
             d="M389.139,388.929c-2.296,0-4.156-1.859-4.156-4.152v-44.725c0-2.293,1.859-4.152,4.156-4.152      s4.156,1.859,4.156,4.152v44.725C393.294,387.07,391.435,388.929,389.139,388.929z"
             id="path180" /></g></g><g
         id="g190"><g
           id="g188"><path
             style="fill:#00A07D;"
             d="M415.31,336.242c0,14.455-11.718,26.172-26.172,26.172s-26.172-11.718-26.172-26.172      s11.718-58.888,26.172-58.888S415.31,321.787,415.31,336.242z"
             id="path186" /></g></g><g
         id="g194"><path
           style="fill:#36B294;"
           d="M389.138,277.354c-3.629,0-7.084,2.805-10.225,7.228h0.001c13.23,0,23.954,40.668,23.954,53.898     c0,11.508-8.122,21.103-18.941,23.41c1.685,0.34,3.426,0.525,5.211,0.525c14.455,0,26.173-11.718,26.173-26.172     C415.31,321.787,403.592,277.354,389.138,277.354z"
           id="path192" /></g></g><g
       id="g214"><g
         id="g202"><g
           id="g200"><path
             style="fill:#674447;"
             d="M446.273,382.474c-2.169,0-3.926-1.757-3.926-3.923v-42.257c0-2.167,1.757-3.923,3.926-3.923      s3.926,1.757,3.926,3.923v42.257C450.2,380.717,448.443,382.474,446.273,382.474z"
             id="path198" /></g></g><g
         id="g208"><g
           id="g206"><path
             style="fill:#00A07D;"
             d="M471.001,332.693c0,13.657-11.071,24.728-24.728,24.728c-13.657,0-24.728-11.071-24.728-24.728      s11.071-55.639,24.728-55.639C459.929,277.054,471.001,319.036,471.001,332.693z"
             id="path204" /></g></g><g
         id="g212"><path
           style="fill:#36B294;"
           d="M446.272,277.054c-3.428,0-6.693,2.65-9.661,6.829h0.001c12.5,0,22.633,38.424,22.633,50.924     c0,10.873-7.673,19.938-17.896,22.118c1.592,0.322,3.237,0.496,4.924,0.496c13.657,0,24.729-11.071,24.729-24.728     C471.001,319.036,459.929,277.054,446.272,277.054z"
           id="path210" /></g></g><g
       id="g232"><g
         id="g220"><g
           id="g218"><path
             style="fill:#674447;"
             d="M357.062,393.673c-1.894,0-3.428-1.534-3.428-3.426v-36.899c0-1.892,1.534-3.426,3.428-3.426      s3.428,1.534,3.428,3.426v36.899C360.49,392.139,358.956,393.673,357.062,393.673z"
             id="path216" /></g></g><g
         id="g226"><g
           id="g224"><path
             style="fill:#00A07D;"
             d="M378.654,350.205c0,11.925-9.667,21.593-21.593,21.593c-11.925,0-21.593-9.667-21.593-21.593      s9.667-48.584,21.593-48.584C368.986,301.621,378.654,338.28,378.654,350.205z"
             id="path222" /></g></g><g
         id="g230"><path
           style="fill:#36B294;"
           d="M357.061,301.621c-2.994,0-5.844,2.314-8.436,5.963h0.001c10.915,0,19.763,33.552,19.763,44.467     c0,9.494-6.701,17.41-15.627,19.314c1.39,0.281,2.826,0.433,4.299,0.433c11.925,0,21.593-9.667,21.593-21.593     C378.654,338.28,368.986,301.621,357.061,301.621z"
           id="path228" /></g></g><g
       id="g250"><g
         id="g238"><g
           id="g236"><path
             style="fill:#674447;"
             d="M327.975,432.458c-2.693,0-4.873-2.18-4.873-4.869v-52.446c0-2.689,2.18-4.869,4.873-4.869      s4.873,2.18,4.873,4.869v52.446C332.848,430.278,330.667,432.458,327.975,432.458z"
             id="path234" /></g></g><g
         id="g244"><g
           id="g242"><path
             style="fill:#00A07D;"
             d="M358.664,370.675c0,16.95-13.741,30.691-30.691,30.691c-16.95,0-30.691-13.741-30.691-30.691      c0-16.95,13.741-69.054,30.691-69.054C344.924,301.621,358.664,353.725,358.664,370.675z"
             id="path240" /></g></g><g
         id="g248"><path
           style="fill:#36B294;"
           d="M327.974,301.621c-4.255,0-8.306,3.289-11.99,8.475h0.001c15.514,0,28.09,47.688,28.09,63.202     c0,13.495-9.524,24.746-22.211,27.451c1.976,0.399,4.017,0.616,6.111,0.616c16.95,0,30.691-13.741,30.691-30.69     C358.664,353.725,344.923,301.621,327.974,301.621z"
           id="path246" /></g></g><g
       id="g254"><path
         style="fill:#5F5F74;"
         d="M256,512c67.364,0,128.603-26.056,174.294-68.599C402.5,448,360.251,401,316.293,418.146    c-19.586,7.64-81.895,60.496-136.192,82.33C204.091,507.919,229.562,512,256,512z"
         id="path252" /></g><g
       id="g258"><path
         style="fill:#6E6E84;"
         d="M316.293,418.146c-19.586,7.64-81.895,60.496-136.192,82.33c1.829,0.567,3.722,0.979,5.568,1.506    C240.563,489,305.198,431,326.667,430.344c6.128-0.187,45.667,29.655,67.928,40.827c12.712-8.214,24.668-17.499,35.7-27.771    C402.5,448,360.251,401,316.293,418.146z"
         id="path256" /></g></g><g
     id="g262" /><g
     id="g264" /><g
     id="g266" /><g
     id="g268" /><g
     id="g270" /><g
     id="g272" /><g
     id="g274" /><g
     id="g276" /><g
     id="g278" /><g
     id="g280" /><g
     id="g282" /><g
     id="g284" /><g
     id="g286" /><g
     id="g288" /><g
     id="g290" /><path
     style="fill:#5599ff;stroke-width:0.76703107"
     d="m 283.55088,400.96313 c -3.52206,-1.53863 -7.10382,-4.8691 -9.33981,-8.68452 -2.91599,-4.97576 -3.24896,-12.20604 -1.03773,-22.53382 2.94087,-13.73562 9.21194,-29.07886 11.88509,-29.07886 3.02097,0 7.58033,5.86186 11.16138,14.34993 l 2.13211,5.05371 0.88779,-4.52436 c 2.96224,-15.0963 10.22428,-35.08757 15.88334,-43.72438 1.56885,-2.39436 4.5328,-1.47453 8.6791,2.69347 4.628,4.65222 9.33163,13.90516 13.40183,26.36393 7.03606,21.53719 8.26028,35.59757 3.87356,44.4884 -2.69004,5.45207 -8.2238,10.75325 -13.9722,13.38495 -3.98852,1.826 -4.61659,1.91035 -7.83757,1.05248 -4.82732,-1.28569 -8.98427,-3.85812 -13.28123,-8.21876 -2.15361,-2.18554 -3.6434,-3.22007 -3.6434,-2.53004 0,2.36099 -4.66746,8.44615 -8.19365,10.6824 -3.90538,2.47672 -6.93304,2.82679 -10.59861,1.22547 z"
     id="path303"
     inkscape:connector-curvature="0" /><path
     style="fill:#5599ff;stroke-width:0.76703107"
     d="m 358.33641,365.52317 c 0,-8.88549 -7.84926,-36.61914 -13.22216,-46.71763 -1.17818,-2.21441 -1.13599,-2.46723 1.1201,-6.71152 1.28941,-2.42573 2.81306,-4.41043 3.38586,-4.41043 2.16364,0 7.06682,5.53327 9.68742,10.93231 4.47168,9.21272 9.00019,25.876 9.00019,33.1175 0,4.55937 -2.24254,10.28325 -5.27971,13.47598 -3.61902,3.80438 -4.6917,3.87612 -4.6917,0.31379 z"
     id="path305"
     inkscape:connector-curvature="0" /><path
     style="fill:#5599ff;stroke-width:0.76703107"
     d="m 379.33066,360.27118 -2.4002,-1.04454 1.08482,-4.10289 c 0.85829,-3.24616 0.91829,-5.38423 0.28735,-10.23915 -1.0965,-8.43722 -4.16004,-19.51406 -7.42485,-26.84609 -1.5028,-3.37493 -2.70277,-6.87562 -2.6666,-7.7793 0.10234,-2.55728 4.44941,-13.89133 7.60707,-19.83382 2.37971,-4.47845 3.14634,-5.33754 4.62096,-5.17828 5.832,0.62984 12.96744,12.61796 18.14269,30.48119 2.66985,9.2154 4.47334,20.65115 3.96296,25.12863 -0.89788,7.87697 -5.86926,15.05632 -12.92643,18.66753 -4.0661,2.08066 -6.77138,2.27702 -10.28777,0.74672 z"
     id="path307"
     inkscape:connector-curvature="0" /><path
     style="fill:#5599ff;stroke-width:0.76703107"
     d="m 435.16592,354.41457 c -2.90015,-1.44923 -5.78604,-3.659 -7.48287,-5.72976 l -2.76207,-3.37074 -2.8028,2.24349 c -3.56563,2.85409 -7.86732,4.65019 -9.878,4.12438 -1.53476,-0.40134 -1.52673,-0.47605 0.42667,-3.97106 4.17258,-7.46556 2.83358,-22.88509 -3.67569,-42.32838 l -2.95307,-8.82086 1.65294,-3.01178 c 0.90913,-1.65648 2.11145,-3.1612 2.67183,-3.34383 0.56039,-0.18263 2.66013,1.37071 4.66609,3.45186 3.39653,3.52384 4.27181,5.18679 9.16509,17.4128 0.44221,1.10488 1.19375,-0.41775 3.0287,-6.13625 1.34231,-4.18317 3.93312,-10.53966 5.75738,-14.12553 2.90322,-5.70678 3.54823,-6.49293 5.17265,-6.30455 8.62785,1.00056 21.57407,33.5103 20.50036,51.47926 -0.53841,9.01065 -4.97762,15.62959 -12.87517,19.19709 -4.52759,2.04521 -5.06344,2.00652 -10.61204,-0.76614 z"
     id="path309"
     inkscape:connector-curvature="0" /><path
     style="fill:#5599ff;stroke-width:0.76703107"
     d="m 463.48111,355.20183 -3.3902,-1.53806 3.27837,-3.23904 c 4.60143,-4.54622 7.10225,-9.82288 7.54117,-15.9116 0.44656,-6.19488 -1.9264,-19.1811 -5.50698,-30.13731 -3.25203,-9.95092 -2.94486,-11.28633 1.84153,-8.00594 5.24075,3.59179 11.24001,17.05458 14.24082,31.95744 1.47525,7.32654 1.20269,14.5867 -0.68462,18.23636 -1.76102,3.40546 -5.73446,7.15017 -9.31068,8.77473 -3.82905,1.73942 -3.8761,1.73861 -8.00941,-0.13658 z"
     id="path311"
     inkscape:connector-curvature="0" /><path
     style="fill:#5599ff;stroke-width:0.76703107"
     d="m 240.53753,418.58215 c -3.49459,-1.52167 -7.85826,-5.63046 -9.76465,-9.19432 -1.37693,-2.57408 -1.66549,-4.31706 -1.59931,-9.66051 0.0821,-6.62694 1.11043,-11.62962 4.65133,-22.62741 2.36893,-7.35776 6.22386,-14.95711 7.58729,-14.95711 1.67968,0 5.6911,3.87513 7.44445,7.19152 5.01679,9.48908 9.16816,24.18485 9.23567,32.6941 0.0605,7.62585 -3.76318,13.68835 -10.37549,16.45048 -3.41569,1.42681 -4.11652,1.43689 -7.17929,0.10325 z"
     id="path313"
     inkscape:connector-curvature="0" /><path
     style="fill:#5599ff;stroke-width:0.76703107"
     d="m 213.71836,428.21261 c -6.33986,-3.86617 -8.62527,-9.57295 -7.22025,-18.02935 1.61645,-9.72896 7.16706,-25.02953 9.08,-25.02953 3.40535,0 8.73454,9.56716 11.51052,20.66412 2.89012,11.55322 1.65363,17.82521 -4.31353,21.88 -3.39553,2.30732 -5.88519,2.44883 -9.05674,0.51476 z"
     id="path315"
     inkscape:connector-curvature="0" /><path
     style="fill:#aaccff;stroke-width:0.76703107"
     d="m 220.56533,429.47824 c 6.31103,-4.31163 8.36471,-7.56603 8.35622,-13.2418 -0.007,-4.68475 -2.79674,-16.12491 -5.33511,-21.87833 -2.01402,-4.56492 -5.96287,-9.19076 -7.87652,-9.22686 -1.69238,-0.0319 3.44094,-4.5797 5.16936,-4.5797 1.85478,0 4.33455,1.85005 6.44416,4.80773 1.61977,2.27091 1.76824,3.28408 1.76824,12.06695 0,10.42637 0.37306,11.68828 4.96735,16.80257 2.59815,2.89222 2.56102,3.78657 -0.3696,8.90122 -2.06733,3.60798 -6.37411,6.26631 -11.16469,6.89131 -2.93715,0.38319 -3.20611,0.30864 -1.95941,-0.54309 z"
     id="path317"
     inkscape:connector-curvature="0" /><path
     style="fill:#aaccff;stroke-width:0.76703107"
     d="m 247.13377,419.87095 c 0.009,-0.32138 1.52703,-1.59776 3.3728,-2.83639 6.18124,-4.14803 8.90154,-10.65334 7.81595,-18.69103 -0.95088,-7.0403 -4.19385,-18.42485 -6.94836,-24.39244 -2.73816,-5.93215 -7.41841,-11.80829 -9.40512,-11.80829 -1.50954,0 0.32099,-2.60464 2.90207,-4.12932 3.15846,-1.86575 4.99561,-1.52348 8.41782,1.56828 3.92514,3.54613 9.18465,14.35695 11.97687,24.61822 2.75044,10.10774 2.95719,20.58991 0.4968,25.18785 -1.93621,3.61837 -6.3531,7.74473 -9.76905,9.12645 -3.01985,1.22151 -8.88178,2.11913 -8.85978,1.35667 z"
     id="path319"
     inkscape:connector-curvature="0" /><path
     style="fill:#aaccff;stroke-width:0.19175777"
     d="m 297.75194,358.37099 c -2.33409,-6.55831 -5.53565,-12.37768 -8.36775,-15.20977 -1.45471,-1.45471 -3.60497,-2.71958 -4.62325,-2.71958 -0.30223,0 -0.54951,-0.0532 -0.54951,-0.11813 0,-0.29657 1.45685,-2.05426 2.54654,-3.07241 1.7739,-1.65743 3.32151,-2.4191 5.11891,-2.51929 1.14172,-0.0636 1.66328,0.003 2.49772,0.32143 2.19542,0.83654 4.64306,3.18719 6.83321,6.56241 l 0.82401,1.26989 -0.95729,3.81169 c -0.8365,3.33077 -2.11883,9.34076 -2.61353,12.24903 l -0.16309,0.95879 z"
     id="path321"
     inkscape:connector-curvature="0" /><path
     style="fill:#aaccff;stroke-width:0.19175777"
     d="m 323.62201,401.01516 c -1.63021,-0.23741 -1.65971,-0.27068 -0.48375,-0.54555 0.58007,-0.13559 1.83129,-0.54269 2.78049,-0.90467 9.7021,-3.69996 16.57549,-12.36681 17.94558,-22.62808 1.144,-8.56801 -3.00008,-28.50885 -9.1585,-44.06966 -5.49092,-13.87421 -11.77028,-21.93422 -17.68026,-22.69391 l -0.97449,-0.12526 0.85922,-1.15055 c 2.21271,-2.96293 5.47269,-5.69415 7.91404,-6.63041 1.33346,-0.51138 3.62831,-0.6861 5.04126,-0.38381 5.21618,1.11594 10.89475,7.75452 15.90165,18.58994 3.29531,7.13137 5.99195,14.91991 8.82942,25.50148 1.60461,5.98394 3.62239,16.69017 3.63039,19.26265 0.003,0.82937 0.36785,3.58372 0.49671,3.74546 0.0285,0.0358 0.5547,-0.27974 1.16927,-0.70123 4.30555,-2.9529 7.3057,-7.64736 8.2186,-12.86 0.82859,-4.73127 -0.41609,-13.18345 -3.46869,-23.55462 -2.12552,-7.22142 -5.00153,-13.91469 -7.77117,-18.08566 -2.27654,-3.42838 -5.53691,-6.13022 -7.39745,-6.13022 -0.35229,0 -0.64053,-0.0818 -0.64053,-0.18181 0,-0.29305 1.75782,-2.31978 2.98794,-3.44504 0.62417,-0.57096 1.69575,-1.30443 2.38128,-1.62994 1.08977,-0.51744 1.45179,-0.59183 2.8804,-0.59183 1.47298,0 1.76583,0.0648 2.97224,0.6576 3.15712,1.55132 7.43507,7.25685 9.64838,12.86807 0.31346,0.7947 0.95934,2.35661 1.43529,3.47091 3.33191,7.80076 6.34091,19.25603 7.23415,27.54034 0.83341,7.72952 -1.21223,14.16764 -6.0569,19.06251 -3.41982,3.45524 -7.83982,5.61883 -12.68154,6.20757 l -0.99186,0.12061 -0.12749,1.47018 c -0.4371,5.04044 -2.29845,10.32425 -5.17649,14.69451 -0.99567,1.51191 -3.58838,4.5877 -4.53179,5.37616 -2.00191,1.67311 -2.62804,2.15124 -3.94285,3.01082 -2.60643,1.70401 -5.99312,3.25757 -8.63883,3.96285 -0.44823,0.11949 -1.13856,0.30392 -1.53406,0.40986 -2.03407,0.54482 -8.38453,0.75177 -11.06966,0.36073 z"
     id="path323"
     inkscape:connector-curvature="0" /><path
     style="fill:#aaccff;stroke-width:0.19175777"
     d="m 385.74717,362.18563 c -1.58856,-0.23375 -1.58193,-0.29012 0.0914,-0.77611 7.06091,-2.05072 13.06818,-7.75301 15.62489,-14.83164 1.71356,-4.74421 1.83083,-9.09882 0.46478,-17.2582 -2.32222,-13.87056 -7.64442,-29.06144 -13.03357,-37.201 -2.86318,-4.32444 -6.21706,-7.12874 -8.88553,-7.42951 -0.48269,-0.0544 -0.87761,-0.16834 -0.87761,-0.25318 0,-0.24454 2.1697,-2.87974 3.09256,-3.75607 2.00505,-1.90395 4.20301,-3.04142 6.30067,-3.26067 3.94552,-0.41239 8.28044,2.93609 12.39651,9.57559 6.07809,9.80437 12.4871,30.09274 13.78457,43.63644 0.84275,8.79708 -0.0855,13.91929 -3.56729,19.68588 -2.81763,4.66654 -7.73715,8.59758 -13.20587,10.55242 -2.9498,1.05443 -4.32001,1.28272 -8.06271,1.34329 -1.95114,0.0316 -3.8064,0.0193 -4.1228,-0.0272 z"
     id="path325"
     inkscape:connector-curvature="0" /><path
     style="fill:#aaccff;stroke-width:0.54237288"
     d="m 424.00457,310.07247 c -3.92731,-10.89702 -7.88466,-17.28288 -11.92125,-19.23696 l -2.46462,-1.1931 1.80321,-1.87659 c 5.03905,-5.24411 10.05272,-4.34625 14.64967,2.6235 4.0718,6.17354 4.00024,5.52875 1.45004,13.06537 -2.46161,7.27481 -2.94944,8.19273 -3.51705,6.61778 z"
     id="path327"
     inkscape:connector-curvature="0" /><path
     style="fill:#aaccff;stroke-width:0.54237288"
     d="m 445.01227,355.78538 c 3.78645,-1.59447 5.63407,-2.89865 8.47916,-5.98521 5.83118,-6.32609 6.9668,-13.63628 4.22327,-27.18612 -3.95337,-19.52498 -12.51759,-36.6747 -19.26455,-38.57697 l -1.89362,-0.53389 2.57021,-2.57022 c 2.85357,-2.85357 4.41502,-3.62916 7.30638,-3.62916 6.19376,0 12.90015,9.41214 18.26531,25.63461 4.51004,13.63688 6.84965,27.28628 5.75551,33.57791 -1.35668,7.80119 -6.4988,14.76774 -13.4312,18.19658 -3.84665,1.90259 -4.53033,2.05938 -9.59678,2.20086 l -5.45507,0.15233 z"
     id="path329"
     inkscape:connector-curvature="0" /><path
     style="fill:#aaccff;stroke-width:0.54237288"
     d="m 470.7577,355.95569 c 5.33127,-2.12605 9.71187,-7.04253 11.37631,-12.768 1.27023,-4.36945 0.78505,-10.48301 -1.57581,-19.85589 -2.2287,-8.8482 -5.07627,-16.23419 -8.24,-21.37277 -2.68377,-4.35904 -3.57309,-5.27437 -6.51444,-6.70507 l -2.10641,-1.02457 2.16595,-2.16594 c 5.97033,-5.97033 11.89721,-2.99894 17.61993,8.83358 5.65247,11.68729 9.55502,27.3712 9.08775,36.52263 -0.1986,3.88951 -0.52773,5.26145 -1.91308,7.97446 -2.12764,4.16669 -5.44696,7.48602 -9.61366,9.61366 -2.79844,1.42897 -3.98927,1.70039 -8.1581,1.85947 l -4.88135,0.18627 z"
     id="path331"
     inkscape:connector-curvature="0" /><path
     style="fill:#aaccff;stroke-width:0.54237288"
     d="m 171.59801,497.57162 c -27.32765,-9.65808 -52.12547,-23.32844 -74.747685,-41.20638 -3.696259,-2.92108 -4.332603,-3.63457 -3.525423,-3.9528 0.541732,-0.21357 5.378188,-0.40561 10.747678,-0.42675 22.20631,-0.0874 52.17169,-2.59715 75.11865,-6.2915 14.50551,-2.33532 34.13942,-6.42634 44.47457,-9.26694 8.51403,-2.34008 26.77054,-7.79249 27.93221,-8.34212 0.59661,-0.28228 4.62372,-1.76637 8.94915,-3.29798 7.89145,-2.79433 33.02043,-12.70876 36.06779,-14.23025 0.89492,-0.44682 6.34974,-2.93246 12.12183,-5.52364 8.8478,-3.97193 10.78413,-4.65696 12.33899,-4.36526 l 1.84427,0.34598 v 7.46611 7.46611 l -2.6781,0.68638 c -6.57269,1.68453 -14.02449,6.1974 -41.89632,25.37277 -31.00303,21.32959 -44.01385,29.80882 -60.38629,39.35408 -13.23803,7.71789 -36.02828,18.92187 -38.30205,18.82978 -0.40548,-0.0164 -4.03216,-1.19434 -8.05927,-2.61759 z"
     id="path333"
     inkscape:connector-curvature="0" /><path
     style="fill:#aaccff;stroke-width:0.54237288"
     d="m 416.86665,442.17485 c -5.69119,-1.49107 -12.23641,-4.21659 -26.69237,-11.11507 -20.20932,-9.64402 -25.41966,-11.74997 -35.54798,-14.36805 -6.08956,-1.5741 -18.40135,-3.04659 -20.33683,-2.43229 -1.01842,0.32323 -1.06435,0.0481 -1.06435,-6.37586 v -6.71368 l 2.59384,-0.66478 c 5.72488,-1.46724 11.76297,-5.26741 15.5094,-9.7611 1.88987,-2.26681 1.96456,-2.30196 1.96456,-0.9245 0,1.6748 2.19357,4.09446 3.71187,4.09446 0.57712,0 1.62551,-0.46641 2.32974,-1.03648 1.14296,-0.92521 1.30063,-1.56178 1.46862,-5.92948 l 0.18819,-4.893 3.60842,-1.45428 c 5.30315,-2.1373 16.35547,-6.01982 18.38808,-6.45947 l 1.76271,-0.38127 v 6.30503 c 0,5.97107 0.0705,6.37555 1.33128,7.63632 1.76127,1.76127 4.25413,1.76127 6.0154,0 1.28666,-1.28666 1.33128,-1.58578 1.33128,-8.92366 v -7.59238 l 2.0339,-0.58124 c 8.31361,-2.37581 27.63189,-5.21658 39.32204,-5.78233 l 7.45762,-0.36091 v 7.85237 c 0,7.50672 0.0553,7.90428 1.2553,9.03166 1.77625,1.6687 4.33443,1.55769 5.75619,-0.24978 1.01483,-1.29016 1.12411,-2.16229 1.12411,-8.97177 v -7.5427 l 4.20339,0.33002 c 5.23733,0.4112 12.17294,1.15551 17.49152,1.87716 9.41155,1.27699 12.77008,1.79302 13.17575,2.02445 0.58517,0.33382 -5.75586,12.2792 -10.9772,20.67907 -10.94588,17.6093 -21.79623,31.43176 -36.57392,46.59216 l -7.00502,7.18644 -4.93692,-0.0299 c -3.02412,-0.0183 -6.46801,-0.431 -8.88862,-1.0652 z"
     id="path335"
     inkscape:connector-curvature="0" /><path
     style="fill:#d5e5ff;stroke-width:0.54237288"
     d="m 87.807602,448.80848 c -10.680551,-9.27474 -25.974609,-25.56717 -34.729141,-36.99619 -4.838919,-6.3172 -8.772482,-11.94028 -8.525478,-12.18728 0.355323,-0.35533 14.528217,-2.93829 22.163,-4.03913 12.7759,-1.84213 20.023904,-2.38288 32,-2.38738 17.120487,-0.006 24.831677,1.04295 53.423727,7.27033 20.23395,4.40698 36.63046,7.28335 46.70523,8.1933 l 7.15711,0.64643 -0.0837,4.6417 c -0.0737,4.08719 0.0984,5.01258 1.44087,7.74637 1.82231,3.71096 4.98443,6.572 8.58563,7.76812 l 2.63555,0.87539 v 3.64592 3.64591 l -2.84746,0.63166 c -37.11281,8.23291 -64.55447,11.83776 -99.9322,13.12753 -8.35254,0.30451 -17.166401,0.63086 -19.586348,0.72523 l -4.399906,0.17157 z"
     id="path337"
     inkscape:connector-curvature="0" /><path
     style="fill:#d5e5ff;stroke-width:0.54237288"
     d="m 251.66514,423.83034 v -3.71076 l 2.30508,-0.67671 c 5.27702,-1.54919 10.66522,-6.49858 12.57102,-11.54722 0.48181,-1.27636 1.05382,-3.7702 1.27114,-5.54187 l 0.39513,-3.22123 4.14548,-1.34479 4.14548,-1.3448 2.26623,1.79489 c 2.14219,1.69665 7.62932,4.31323 9.10383,4.34123 0.49793,0.009 0.67796,1.50562 0.67796,5.6344 v 5.62152 l -5.28813,2.03587 c -14.21372,5.47212 -30.75897,11.67023 -31.15252,11.67023 -0.24239,0 -0.4407,-1.66984 -0.4407,-3.71076 z"
     id="path339"
     inkscape:connector-curvature="0" /><path
     style="fill:#d5e5ff;stroke-width:0.54237288"
     d="m 223.46175,433.25668 c 0,-2.80595 0.0885,-3.00428 1.49152,-3.34068 2.21641,-0.53145 4.22825,-1.64938 6.40039,-3.55656 2.03198,-1.7841 4.58266,-6.19803 4.58266,-7.93025 0,-1.69855 0.50597,-1.70672 3.97794,-0.0642 1.83925,0.87012 3.78037,1.58223 4.3136,1.58246 0.87243,3.9e-4 0.95389,0.50276 0.81356,5.01738 l -0.15595,5.01695 -9.22033,2.75935 c -13.68522,4.09555 -12.20339,4.03295 -12.20339,0.51555 z"
     id="path341"
     inkscape:connector-curvature="0" /><path
     style="fill:#d5e5ff;stroke-width:0.54237288"
     d="m 295.59734,406.72739 v -4.01472 l 1.8449,-0.34611 c 2.74261,-0.51451 6.80604,-2.82374 9.39403,-5.33859 2.13064,-2.07041 2.35682,-2.16461 3.25424,-1.35531 0.53045,0.47836 2.76729,1.73279 4.97076,2.78763 3.73349,1.78729 3.91816,1.9549 2.71187,2.4613 -0.71195,0.29887 -5.19953,2.28792 -9.97241,4.42012 -4.77288,2.1322 -9.47119,4.21955 -10.44068,4.63856 l -1.76271,0.76183 z"
     id="path343"
     inkscape:connector-curvature="0" /><path
     style="fill:#d5e5ff;stroke-width:0.54237288"
     d="m 290.89747,401.75267 c 4.65226,-1.70638 8.93502,-5.91566 10.95184,-10.76393 l 0.87843,-2.11168 2.94328,2.90671 c 1.6188,1.5987 2.94327,3.07867 2.94327,3.28883 0,0.21016 -1.64746,1.62452 -3.66102,3.14303 -4.28395,3.2307 -7.64667,4.39095 -12.57302,4.3381 l -3.56257,-0.0382 z"
     id="path345"
     inkscape:connector-curvature="0" /><path
     style="fill:#d5e5ff;stroke-width:0.54237288"
     d="m 360.68208,376.85981 v -5.10614 l 2.86155,-0.83188 c 4.73451,-1.37636 10.18876,-5.82943 12.75362,-10.41258 0.39446,-0.70486 0.96288,-0.64822 4.33962,0.43243 l 3.88571,1.24353 -0.011,5.69491 -0.011,5.69492 -9.06176,3.02417 c -4.98397,1.6633 -10.34312,3.55126 -11.90922,4.19548 l -2.84746,1.1713 z"
     id="path347"
     inkscape:connector-curvature="0" /><path
     style="fill:#d5e5ff;stroke-width:0.54237288"
     d="m 393.33882,366.63909 0.15682,-4.40825 2.03165,-0.42067 c 3.48393,-0.72138 8.63982,-3.69487 12.05057,-6.94977 2.90257,-2.76994 3.47356,-3.09362 5.03643,-2.85506 l 1.76271,0.26905 v 7.26047 c 0,4.13353 -0.21804,7.26048 -0.50627,7.26048 -1.0538,0 -15.07521,2.73606 -17.82005,3.47731 l -2.86869,0.77469 z"
     id="path349"
     inkscape:connector-curvature="0" /><path
     style="fill:#d5e5ff;stroke-width:0.54237288"
     d="m 415.81549,352.30346 c -0.74133,-0.18652 -0.3178,-0.57112 1.62712,-1.47757 1.44612,-0.67398 3.71597,-2.13786 5.04412,-3.25306 l 2.41482,-2.02764 1.50182,1.81151 c 0.82601,0.99634 1.42751,2.05549 1.33667,2.35367 -0.41563,1.36439 -9.20845,3.27646 -11.92455,2.59309 z"
     id="path351"
     inkscape:connector-curvature="0" /><path
     style="fill:#d5e5ff;stroke-width:0.54237288"
     d="m 421.42785,359.00465 c 0,-6.16091 0.0959,-6.85458 0.94915,-6.86529 0.52203,-0.007 2.02271,-0.49899 3.33484,-1.09431 2.29163,-1.03973 2.43723,-1.04461 3.69318,-0.12369 4.5601,3.34369 6.63039,4.51849 9.45224,5.36377 l 3.18076,0.95279 v 3.38954 3.38955 l -2.30509,0.27924 c -1.26779,0.15359 -4.75863,0.41068 -7.75741,0.57132 -2.99878,0.16064 -6.59878,0.44921 -8,0.64127 l -2.54767,0.3492 z"
     id="path355"
     inkscape:connector-curvature="0" /><path
     style="fill:#d5e5ff;stroke-width:0.54237288"
     d="m 461.83463,365.40991 c -3.28136,-0.37522 -7.24746,-0.70513 -8.81356,-0.73314 l -2.84746,-0.0509 v -3.72882 -3.72881 l 1.69487,-0.33897 c 0.93218,-0.18644 3.09821,-0.96876 4.8134,-1.73849 l 3.11853,-1.39951 2.64423,1.32191 c 1.45432,0.72705 3.31541,1.48351 4.13575,1.68102 1.48164,0.35673 1.49153,0.38959 1.49153,4.95895 0,2.52991 -0.061,4.56365 -0.1356,4.51942 -0.0746,-0.0442 -2.82034,-0.38742 -6.10169,-0.76264 z"
     id="path357"
     inkscape:connector-curvature="0" /><path
     style="fill:#d5e5ff;stroke-width:0.54237288"
     d="m 479.46175,367.67426 -4.0678,-0.60774 -0.15532,-4.96952 -0.15532,-4.96952 1.78244,-0.38544 c 7.50461,-1.62282 14.07359,-8.62492 15.6955,-16.73038 1.12153,-5.60481 -1.384,-20.25744 -5.19543,-30.38347 l -1.32074,-3.50887 1.4541,-0.29539 c 3.47656,-0.70624 10.99672,-1.40147 15.15935,-1.40147 h 4.51339 l -0.36732,2.0339 c -0.80701,4.46866 -4.62138,19.2634 -6.74699,26.16949 -2.57374,8.36206 -7.86165,22.07814 -11.65729,30.23729 -2.8939,6.22075 -2.15727,5.82427 -8.93857,4.81112 z"
     id="path359"
     inkscape:connector-curvature="0" /><path
     style="fill:#d5f6ff;stroke-width:0.54237288"
     d="m 196.83213,408.26303 c -11.16568,-1.30629 -21.67933,-3.20869 -47.40428,-8.5776 -9.24746,-1.92998 -19.92588,-4.02373 -23.72983,-4.65279 -14.23386,-2.35383 -32.833335,-2.645 -49.761698,-0.779 -6.088705,0.67116 -25.339988,3.75198 -30.407351,4.86616 -1.598501,0.35146 -1.770784,0.12708 -8.786148,-11.44311 C 22.651006,364.43557 10.72672,334.0001 5.5059439,307.94788 2.9843454,295.36484 0.60380196,277.29869 1.4687114,277.30897 c 0.2385416,0.003 5.8032035,0.25297 12.3659156,0.55585 26.698314,1.2322 48.351441,4.72438 72.618592,11.71182 30.933001,8.90679 56.808461,20.78066 104.466151,47.93797 21.21065,12.0867 29.62382,16.69546 39.55469,21.66822 4.79407,2.40056 8.7165,4.45452 8.7165,4.56434 0,0.10982 -0.59243,1.2677 -1.31651,2.57308 -2.53571,4.57137 -5.8931,14.20003 -7.63584,21.89882 l -0.36832,1.62712 -1.25928,-2.46435 c -1.58874,-3.10907 -5.77106,-7.02718 -7.50107,-7.02718 -1.89609,0 -5.8771,3.78 -7.81368,7.41916 -2.49744,4.69311 -3.88499,8.45337 -5.56804,15.08932 -1.77399,6.9945 -0.913,6.56779 -10.89569,5.39989 z"
     id="path361"
     inkscape:connector-curvature="0" /><path
     style="fill:#d5f6ff;stroke-width:0.54237288"
     d="m 267.665,396.21907 c -0.77697,-5.92589 -2.17557,-12.12493 -3.87587,-17.17922 -0.99592,-2.96043 -1.7469,-5.44647 -1.66884,-5.52452 0.0781,-0.0781 2.08978,0.54468 4.4705,1.38387 l 4.32858,1.5258 0.3316,5.62585 c 0.34346,5.8272 1.01273,8.0602 3.57731,11.93554 0.77131,1.16553 1.30564,2.20131 1.18741,2.30174 -0.30702,0.2608 -7.12459,2.50721 -7.60908,2.50721 -0.2221,0 -0.55583,-1.15932 -0.74161,-2.57627 z"
     id="path363"
     inkscape:connector-curvature="0" /><path
     style="fill:#80b3ff;stroke-width:0.54237288"
     d="m 216.4109,351.50328 c -2.23729,-1.237 -12.3661,-6.93404 -22.50848,-12.66008 C 160.88666,320.20359 147.47461,313.15598 130.79554,305.68251 90.905575,287.80881 53.008891,278.84331 11.57613,277.4779 L 1.1820391,277.13536 0.79050216,273.28738 C -0.0487248,265.03957 0.65842948,230.82521 1.6871877,229.9029 c 0.1183796,-0.10613 2.0457441,0.13309 4.2830323,0.5316 2.2372881,0.39851 6.752542,0.74222 10.033898,0.7638 8.396591,0.0552 11.797979,1.36685 19.659222,7.58093 4.419465,3.49346 5.908724,3.74026 13.508975,2.23871 11.681251,-2.30783 13.874255,-1.63263 19.473224,5.99561 6.589929,8.97835 8.765657,10.25654 17.916497,10.52553 8.930988,0.26253 10.368792,1.02039 21.129754,11.13738 6.61383,6.21806 12.57422,9.25467 25.46487,12.9735 8.64586,2.49424 13.57972,4.63596 16.84645,7.3128 1.24516,1.02032 4.41553,4.70546 7.04526,8.1892 3.07022,4.0673 5.8682,7.13246 7.81841,8.565 1.6704,1.227 9.3472,5.52584 17.05955,9.55295 7.71235,4.02712 15.0935,8.26336 16.40256,9.41387 1.44775,1.2724 3.83949,4.5656 6.10557,8.40678 4.94791,8.38706 7.71603,12.03809 12.7037,16.75563 2.28655,2.16271 3.97358,3.92635 3.74895,3.91919 -0.22463,-0.007 -2.23892,-1.0251 -4.47621,-2.2621 z"
     id="path369"
     inkscape:connector-curvature="0" /><path
     style="fill:#8080ff;stroke-width:0.54237288"
     d="m 188.08612,318.48725 c -13.37863,-7.11891 -22.49469,-12.38782 -24.54012,-14.18374 -1.06003,-0.93072 -4.29605,-4.62971 -7.19114,-8.21999 -2.8951,-3.59027 -6.09246,-7.1593 -7.10525,-7.93117 -3.2329,-2.46387 -8.85138,-4.97575 -12.68413,-5.67076 -3.442,-0.62415 -14.73693,-4.69677 -18.58308,-6.7005 -4.31178,-2.24631 -6.1946,-3.68148 -14.55724,-11.09616 -6.587155,-5.84045 -9.13844,-6.95338 -17.033951,-7.43059 -9.36851,-0.56624 -10.615062,-1.281 -17.40608,-9.98046 -6.399941,-8.19848 -8.034457,-8.81943 -17.848158,-6.78053 -2.833898,0.58877 -6.526477,1.0737 -8.205732,1.07762 -2.921867,0.007 -3.283456,-0.15798 -8.406779,-3.83151 -2.944475,-2.11124 -6.221099,-4.28846 -7.281386,-4.83825 -2.388552,-1.23853 -8.250882,-2.34352 -10.187954,-1.92031 -1.341603,0.2931 -10.1561659,-0.40905 -13.9594979,-1.112 l -1.6684678,-0.30837 0.7120432,-4.97427 c 1.4159627,-9.89179 2.5035519,-16.37777 2.8595019,-17.05303 0.2610099,-0.49515 1.7283811,0.16062 5.2168166,2.3314 2.669512,1.66119 6.440099,3.80074 8.379082,4.75455 3.288589,1.61772 3.871568,1.72717 8.677966,1.62933 7.453034,-0.15173 8.779356,0.33387 13.559323,4.96437 4.973178,4.81766 7.400047,6.1033 12.859974,6.81256 11.147776,1.44815 13.005121,1.77679 15.571277,2.75524 1.515352,0.57779 4.219596,2.27307 6.009427,3.76729 2.05319,1.71408 6.665936,4.40899 12.49824,7.30187 10.016238,4.96816 13.003135,7.12875 15.714385,11.36712 3.72295,5.81992 7.36356,7.88656 13.89302,7.88656 7.00741,0 8.24726,0.603 17.09827,8.31571 4.37616,3.81336 8.76461,6.24205 15.91473,8.80766 7.26565,2.60706 9.94788,5.26488 14.91542,14.77969 2.8339,5.42803 5.97731,8.76138 10.50665,11.14148 5.20284,2.73401 8.67786,5.44188 14.8898,11.6027 5.01682,4.97553 6.92262,7.2596 5.9445,7.1244 -0.23423,-0.0324 -4.08688,-2.00694 -8.56146,-4.38791 z"
     id="path419"
     inkscape:connector-curvature="0" /><path
     style="fill:#d7d7f4;stroke-width:0.19175777"
     d="m 199.11199,408.48445 c -13.28543,-1.61709 -21.26541,-3.02686 -46.50126,-8.21507 -13.46246,-2.76773 -22.13763,-4.47888 -26.27082,-5.18185 -14.05118,-2.3898 -32.034776,-2.77921 -48.898231,-1.05882 -4.95174,0.50517 -17.994707,2.48151 -26.558451,4.02428 -2.109336,0.38 -4.373736,0.78748 -5.031998,0.90551 -1.09659,0.19662 -1.241155,0.1817 -1.72582,-0.17812 -0.965294,-0.71665 -6.637318,-9.72413 -10.970794,-17.42221 -2.31639,-4.11488 -6.807163,-12.99 -9.072181,-17.92935 C 15.712447,345.17628 9.0914847,325.32217 5.6363327,308.11496 3.6210778,298.07868 1.5661387,283.89563 1.4537621,279.24716 l -0.04404,-1.8217 1.6299411,0.0524 c 35.1746338,1.13167 59.0680258,4.80041 87.7291808,13.47048 29.344556,8.8768 52.627526,19.74699 101.152226,47.22525 22.4631,12.72027 25.51985,14.39472 37.7697,20.68982 5.11154,2.62677 9.3233,4.80556 9.35949,4.84174 0.0362,0.0362 -0.57125,1.30475 -1.34984,2.81902 -2.45358,4.77191 -5.17808,12.36622 -6.95795,19.39482 l -0.91217,3.60208 -0.8399,-1.57193 c -1.10204,-2.06255 -1.67261,-2.8208 -3.5573,-4.72748 -2.99555,-3.03045 -4.29996,-3.46042 -6.35618,-2.09517 -2.4275,1.61177 -4.71314,4.40956 -6.51909,7.97986 -2.01902,3.99152 -3.34265,7.67199 -4.73044,13.15338 -1.09363,4.31956 -1.44667,5.31878 -2.10057,5.94525 -0.50651,0.48528 -0.72005,0.5473 -2.05597,0.5972 -0.8199,0.0306 -2.8714,-0.11237 -4.55886,-0.31777 z"
     id="path459"
     inkscape:connector-curvature="0" /><path
     style="fill:#afafe9;stroke-width:0.19175777"
     d="m 268.08355,397.90698 c -0.11414,-0.45357 -0.39147,-2.03275 -0.61629,-3.50928 -0.85462,-5.61291 -2.05463,-10.59397 -4.00813,-16.63719 -1.05258,-3.25618 -1.2927,-4.16853 -1.09711,-4.16853 0.0686,0 6.87062,2.30359 7.91262,2.67971 l 0.5958,0.21506 0.13028,2.62747 c 0.39729,8.01282 0.96461,10.43869 3.31582,14.17862 1.43208,2.27792 1.66128,2.74466 1.45103,2.9549 -0.18568,0.18568 -5.89088,2.13565 -6.89142,2.35541 -0.5614,0.1233 -0.59347,0.0951 -0.7926,-0.69617 z"
     id="path461"
     inkscape:connector-curvature="0" /><path
     style="fill:#afafe9;stroke-width:0.19175777"
     d="m 219.27914,352.96989 c -0.6328,-0.32511 -10.16796,-5.65964 -21.18923,-11.8545 -30.56702,-17.18118 -37.27162,-20.83504 -49.9529,-27.22328 C 105.71633,292.52256 66.972074,281.26925 25.028517,278.13514 19.538906,277.72494 5.250296,277.07131 1.7113296,277.0685 l -0.4980124,-3.9e-4 -0.26901866,-2.92431 c -0.20381141,-2.21548 -0.26608632,-6.38707 -0.25692095,-17.21026 0.0114946,-13.57371 0.19556767,-20.3425 0.67009291,-24.64087 0.2695615,-2.44176 0.2711417,-2.44507 1.1089105,-2.3204 0.3859624,0.0574 1.8666783,0.27848 3.2904798,0.49121 3.1039322,0.46376 7.0048902,0.77379 9.7700382,0.7765 3.008286,0.003 6.325189,0.34184 8.313076,0.84939 3.316296,0.84671 5.856689,2.26161 10.920214,6.08215 5.672813,4.28026 6.310442,4.40348 14.759976,2.85224 11.642264,-2.13739 13.26553,-1.5905 19.450959,6.55325 5.082704,6.6919 7.348016,8.54572 11.557609,9.45817 0.693047,0.15023 2.813322,0.3612 4.711724,0.46883 4.932376,0.27965 7.21536,0.54097 8.68497,0.99412 3.172245,0.97814 5.587977,2.70785 11.738953,8.40534 8.97685,8.31501 12.94227,10.44638 27.69246,14.88439 7.41,2.2295 11.72628,3.96316 14.87039,5.97279 1.95855,1.25185 4.5558,4.01722 8.23766,8.77087 2.61213,3.37253 5.42877,6.63664 6.90662,8.00386 1.82007,1.68382 6.80858,4.59437 18.32311,10.69063 10.58857,5.60603 15.623,8.58108 17.16872,10.14569 1.39291,1.40993 3.32253,4.15247 5.74769,8.16907 4.89237,8.1029 6.51158,10.23717 11.96576,15.77208 2.31241,2.34663 4.12531,4.26246 4.02864,4.25738 -0.0967,-0.005 -0.69349,-0.27522 -1.32629,-0.60034 z"
     id="path463"
     inkscape:connector-curvature="0" /></svg>