<?xml version="1.0" encoding="iso-8859-1"?>
<!-- Generator: Adobe Illustrator 19.0.0, SVG Export Plug-In . SVG Version: 6.00 Build 0)  -->
<svg version="1.1" id="Layer_1" xmlns="http://www.w3.org/2000/svg" xmlns:xlink="http://www.w3.org/1999/xlink" x="0px" y="0px"
	 viewBox="0 0 225.12 225.12" style="enable-background:new 0 0 225.12 225.12;" xml:space="preserve">
<g>
	<g>
		<g>
			<path d="M199.616,150.672L199.616,150.672v-13.836c0-2.344-1.908-4.248-4.248-4.248h-4.776c-1.072,0-2.024,0.432-2.772,1.092
				v-3.228c0-2.34-1.912-4.248-4.252-4.248c-0.536,0-1.04,0.12-1.512,0.304v-75.74c0-7.44-3.724-14.016-9.392-18h7.084
				c8.936,0,16.212-7.272,16.212-16.212s-7.272-16.212-16.212-16.212h-24.564v-0.2h-12.42v0.2H82.372V0h-12.42v0.348H45.368
				c-8.94,0-16.216,7.272-16.216,16.212s7.272,16.212,16.216,16.212h7.08c-5.668,3.984-9.392,10.56-9.392,18v75.56
				c-0.24-0.04-0.468-0.124-0.724-0.124h-3.436v-2.852h-7.228v2.852h-3.436c-2.82,0-5.112,2.188-5.112,4.88
				c0,1.48,0.732,2.764,1.824,3.66c-1.072,1.14-1.764,2.628-1.764,4.316v11.608h-1.472V184.9c0,11.4,9.624,20.688,21.536,20.928
				c1.344,10.856,10.604,19.292,21.816,19.292h95c11.208,0,20.472-8.436,21.816-19.292c11.912-0.24,21.536-9.524,21.536-20.928
				v-34.228H199.616z M43.056,201.784c-9.62-0.328-17.352-7.752-17.352-16.888v-30.228h17.352V201.784z M43.056,150.672H24.652
				v-11.608c0-1.4,0.628-2.6,1.572-3.492c0.616,0.252,1.292,0.396,2.008,0.396h14.1c0.256,0,0.48-0.084,0.724-0.124V150.672z
				 M42.332,134.496h-14.1c-2.008,0-3.636-1.528-3.636-3.412c0-1.88,1.628-3.408,3.636-3.408h5.088l-0.108-0.832l-0.068-2.024h4.272
				l-0.008,1.76l-0.2,1.092h5.12c0.26,0,0.48,0.108,0.724,0.16v6.496h0.004C42.812,134.38,42.596,134.496,42.332,134.496z
				 M155.184,4.34h24.564c6.736,0,12.212,5.48,12.212,12.212c0,6.732-5.476,12.212-12.212,12.212h-19.692h-4.872V4.34z
				 M170.128,35.86v44.592c0,10.528-4.924,19.68-12.196,24.692c0.012-0.168,0.052-0.332,0.056-0.504v-6.804
				c4.384-5.132,7.132-12.272,7.132-20.188V33.58C166.912,34.112,168.616,34.836,170.128,35.86z M155.184,32.768h4.872
				c1.272,0,2.508,0.14,3.708,0.392v44.492c0,7.048-2.28,13.432-5.952,18.228c-0.368-1.592-1.324-2.96-2.628-3.936V32.768z
				 M144.236,4.34h9.468L153.7,28.764h-9.468L144.236,4.34z M144.236,32.768h9.468l-0.008,58.288
				c-0.816-0.352-1.708-0.556-2.648-0.604v-0.396c0-1.148-0.936-2.084-2.084-2.084s-2.084,0.932-2.084,2.084v0.392
				c-0.928,0.044-1.824,0.248-2.652,0.608L144.236,32.768z M148.96,99.384c1.148,0,2.084-0.932,2.084-2.084v-1.888
				c1.016,0.176,1.804,0.952,1.804,1.94v7.284c0,1.116-0.984,2.028-2.196,2.028h-3.388c-1.212,0-2.192-0.912-2.192-2.028v-7.284
				c0-0.988,0.788-1.772,1.804-1.944V97.3C146.88,98.452,147.812,99.384,148.96,99.384z M148.356,97.3v-7.248
				c0-0.332,0.276-0.608,0.604-0.608c0.336,0,0.608,0.272,0.608,0.608l-0.004,7.248c0,0.332-0.276,0.608-0.604,0.608
				S148.356,97.632,148.356,97.3z M143.112,93.5c1.016-0.956,2.348-1.46,3.764-1.548v1.98c-1.832,0.192-3.28,1.628-3.28,3.424v7.284
				c0,1.928,1.644,3.5,3.668,3.5h3.388c2.024,0,3.672-1.572,3.672-3.5v-7.284c0-1.796-1.448-3.224-3.28-3.42V91.92
				c3.044,0.192,5.464,2.54,5.464,5.436v7.28c-0.004,3.02-2.628,5.476-5.856,5.476h-3.392c-3.232,0-5.856-2.46-5.856-5.48v-7.28
				C141.408,95.904,142.012,94.536,143.112,93.5z M153.692,110.944v14.052c0,2.516-2.048,4.568-4.568,4.568
				c-2.704,0-4.904-2.2-4.904-4.908v-13.712c0.928,0.404,1.952,0.644,3.04,0.644h3.392
				C151.744,111.588,152.764,111.348,153.692,110.944z M141.792,109.216H84.316c0.528-0.952,0.86-2.012,0.86-3.16v-0.168h54.892
				C140.312,107.156,140.928,108.288,141.792,109.216z M82.372,4.34h60.392l-0.004,24.424H82.368L82.372,4.34z M82.368,32.768
				h60.392l-0.008,59.156c-0.22,0.164-0.448,0.312-0.648,0.504c-1.4,1.316-2.168,3.068-2.168,4.928v7.172h-54.76V98.86
				c0-2.188-1.116-4.116-2.816-5.376L82.368,32.768z M71.424,4.34h9.468l-0.004,24.424H71.42L71.424,4.34z M71.424,32.768h9.468
				l-0.008,59.856c-0.816-0.352-1.708-0.552-2.648-0.6V91.66c0-1.148-0.932-2.084-2.084-2.084s-2.084,0.932-2.084,2.084v0.36
				c-0.94,0.048-1.836,0.248-2.648,0.6L71.424,32.768z M76.148,100.876c1.148,0,2.084-0.932,2.084-2.084v-1.84
				c1.016,0.172,1.804,0.94,1.804,1.912l-0.004,7.196c0,1.1-0.98,1.996-2.192,1.996h-3.388c-1.212,0-2.196-0.896-2.196-1.996v-7.196
				c0-0.972,0.788-1.748,1.804-1.924v1.856C74.068,99.94,75,100.876,76.148,100.876z M75.544,98.792V91.66
				c0-0.336,0.272-0.608,0.608-0.608c0.328,0,0.604,0.28,0.604,0.608v7.132c0,0.336-0.272,0.608-0.608,0.608
				C75.82,99.4,75.544,99.124,75.544,98.792z M74.068,93.496v1.972c-1.832,0.192-3.28,1.612-3.28,3.392v7.196
				c0,1.912,1.648,3.468,3.672,3.468h3.388c2.024,0,3.668-1.556,3.668-3.468l0.004-7.196c0-1.78-1.452-3.192-3.28-3.388v-1.976
				c3.044,0.188,5.464,2.508,5.464,5.364v7.196c0,2.98-2.628,5.404-5.86,5.404H74.46c-3.232,0-5.86-2.424-5.86-5.404l0.004-7.196
				C68.6,96.004,71.02,93.688,74.068,93.496z M80.88,112.3v13.328c0,2.616-2.124,4.748-4.744,4.748c-2.604,0-4.724-2.12-4.724-4.728
				V112.3c0.928,0.4,1.952,0.636,3.04,0.636h3.384C78.928,112.936,79.952,112.7,80.88,112.3z M67.228,97.92
				c-0.044,0.312-0.1,0.62-0.1,0.94l-0.004,6.252c-7.24-5.02-12.14-14.16-12.14-24.66V35.86c1.512-1.024,3.22-1.748,5.008-2.276
				v44.068C59.988,85.62,62.788,92.78,67.228,97.92z M61.348,77.648V33.16c1.196-0.252,2.436-0.392,3.708-0.392h4.892l-0.004,60.716
				c-1.004,0.744-1.804,1.708-2.284,2.84C63.772,91.484,61.348,84.92,61.348,77.648z M45.368,28.768
				c-6.736,0-12.216-5.48-12.216-12.212c0-6.732,5.48-12.212,12.216-12.212h24.58l-0.004,24.424h-4.892H45.368z M178.06,203.116
				h-0.004c0,9.924-8.076,18-18,18h-95c-9.924,0-18-8.076-18-18V50.768c0-5.14,2.192-9.756,5.66-13.036v42.72
				c0,12.032,6.02,22.412,14.744,27.56c0.436,1.372,1.308,2.556,2.48,3.424v14.212c0,3.416,2.78,6.2,6.2,6.2
				c3.428,0,6.22-2.788,6.22-6.22v-14.14h60.392v13.168c0,3.516,2.864,6.38,6.38,6.38c3.332,0,6.044-2.708,6.044-6.04v-14.924
				c0.568-0.424,1.08-0.912,1.496-1.476c9.26-4.92,15.728-15.66,15.728-28.148v-42.72c3.468,3.284,5.66,7.896,5.66,13.036V203.116z
				 M187.816,136.832h0.004c0-1.532,1.244-2.776,2.772-2.776h4.772c1.532,0,2.772,1.248,2.772,2.776v13.836h-10.32V136.832z
				 M182.056,128.2c0.44-0.304,0.94-0.52,1.512-0.52c1.532,0,2.776,1.248,2.776,2.776v6.38v13.836h-4.288V128.2z M199.408,184.896
				c0,9.136-7.732,16.556-17.352,16.888v-47.112h17.352V184.896z"/>
			<path d="M61.06,164.172v0.008c-0.84,0-1.524,0.684-1.524,1.524v7.504c0,2.988,0.896,5.76,2.388,8.116v15.044
				c0,4.748,3.86,8.608,8.604,8.608h86.44c4.748,0,8.604-3.86,8.604-8.608V181c1.408-2.344,2.208-5.004,2.208-7.796v-7.76
				l-0.136-1.272H61.06z M163.308,196.376c0,3.496-2.844,6.336-6.34,6.336h-86.44c-3.496,0-6.34-2.84-6.34-6.336v-12.228
				c2.748,2.668,6.484,4.328,10.608,4.328h77.728c4.064,0,7.892-1.592,10.78-4.484l0.004-0.004V196.376z M161.7,182.388
				c-2.46,2.46-5.72,3.816-9.176,3.816H74.796c-5.72,0-10.532-3.74-12.264-8.884c2.664,3.736,7.168,6.196,12.264,6.196h77.728
				c3.932,0,7.64-1.464,10.444-4.116c0.688-0.652,1.296-1.36,1.828-2.108C164.168,179.184,163.152,180.936,161.7,182.388z
				 M165.516,172.548c-0.584,2.188-1.74,4.216-3.484,5.868c-2.548,2.416-5.924,3.748-9.508,3.748H74.796
				c-6.276,0-11.52-4.1-12.996-9.604v-6.108h103.716V172.548z"/>
			<path d="M131.62,65.924l-16.628-15.76l-16.628,15.76l16.628,15.76L131.62,65.924z M114.992,52.04l14.652,13.884l-14.652,13.884
				L100.34,65.924L114.992,52.04z"/>
			<path d="M114.992,177.14c2.416,0,4.38-1.876,4.38-4.184s-1.964-4.18-4.38-4.18c-2.416,0-4.38,1.876-4.38,4.18
				C110.612,175.26,112.576,177.14,114.992,177.14z M114.992,170.132c1.664,0,3.02,1.264,3.02,2.824s-1.356,2.824-3.02,2.824
				s-3.02-1.268-3.02-2.824C111.972,171.4,113.328,170.132,114.992,170.132z"/>
		</g>
	</g>
</g>
<g>
</g>
<g>
</g>
<g>
</g>
<g>
</g>
<g>
</g>
<g>
</g>
<g>
</g>
<g>
</g>
<g>
</g>
<g>
</g>
<g>
</g>
<g>
</g>
<g>
</g>
<g>
</g>
<g>
</g>
</svg>
