<?xml version="1.0" encoding="iso-8859-1"?>
<!-- Generator: Adobe Illustrator 19.0.0, SVG Export Plug-In . SVG Version: 6.00 Build 0)  -->
<svg version="1.1" id="Layer_1" xmlns="http://www.w3.org/2000/svg" xmlns:xlink="http://www.w3.org/1999/xlink" x="0px" y="0px"
	 viewBox="0 0 268.932 268.932" style="enable-background:new 0 0 268.932 268.932;" xml:space="preserve">
<g>
	<g>
		<g>
			<path d="M174.326,208.596c6.616-5.016,12.428-11.328,17.3-19.072c8.364-13.3,11.74-28.268,10.032-44.496
				c-0.784-7.504-2.576-15.26-5.472-23.716c-3.596-10.508-7.488-18.536-12.244-25.26c-0.836-1.18-1.74-2.312-2.64-3.44l-3.668-4.672
				l-1,3.916c-0.332,1.308-0.26,2.372-0.184,3.416c0.496,7.212-0.264,12.532-2.468,17.252c-2.608,5.592-7,8.192-12.68,7.564
				c-5.52-0.628-9.636-3.928-12.588-10.088c-2.528-5.28-3.024-11.284-1.568-18.9l0.476-2.424c0.944-4.732,1.92-9.628,1.632-14.732
				c-0.588-10.452-7.304-16.728-13.796-21.488l-3.692-2.708l1.028,8.076c0.2,1.316,0.4,2.628,0.54,3.948
				c0.656,6.108-1.58,10.836-6.832,14.46c-4.56,3.144-9.276,6.4-12.968,11.044c-6.932,8.72-9.972,16.796-9.568,25.416
				c0.156,3.296,0.668,6.576,1.168,9.744c0.236,1.512,0.472,3.02,0.672,4.536c0.624,4.76-0.092,8.06-2.328,10.692
				c-3.228,3.812-6.268,5.212-9.892,4.548c-2.776-0.512-5.012-2.232-6.836-5.252c-2.964-4.912-3.804-10.496-2.568-17.072
				c0.396-2.104,1.016-4.156,1.676-6.328c0.3-0.988,0.6-1.98,0.88-2.976l2.184-7.804l-5.54,5.912
				c-5.296,5.648-9.168,11.144-11.836,16.796c-5.204,11.024-6.856,23.5-4.916,37.076c2.532,17.68,10.664,32.348,24.168,43.6
				c1.168,0.972,2.364,1.852,3.556,2.74l-50.24,60.028h53.432l16.264-19.436v19.436h41.312v-19.436l16.264,19.436h53.432
				L174.326,208.596z M113.814,227.484h-0.004l-16.908,20.32c-0.3,0.36-0.248,0.896,0.112,1.196c0.16,0.132,0.352,0.196,0.544,0.196
				c0.244,0,0.488-0.104,0.656-0.308l15.6-18.744v13.168l-18.12,21.652h-10.86l9.768-11.736c0.3-0.36,0.248-0.896-0.112-1.196
				c-0.356-0.296-0.896-0.248-1.196,0.112l-10.672,12.824H71.726l30.384-36.508c0.3-0.36,0.248-0.9-0.108-1.2
				c-0.364-0.296-0.9-0.248-1.2,0.108L69.51,264.964h-8.596l17.22-20.692c0.3-0.36,0.248-0.9-0.108-1.2
				c-0.364-0.296-0.896-0.248-1.2,0.108l-18.128,21.784H52.61l45.012-53.784c1.268,0.84,2.544,1.656,3.84,2.4l-19.204,23.072
				c-0.3,0.36-0.248,0.9,0.108,1.2c0.16,0.132,0.352,0.196,0.544,0.196c0.244,0,0.488-0.104,0.656-0.308l19.428-23.34
				c3.516,1.896,7.124,3.44,10.82,4.632V227.484z M123.09,264.964h-5.308v-44.78c1.752,0.436,3.52,0.804,5.308,1.088V264.964z
				 M143.93,264.964h-8.72v-14.76c0-0.468-0.38-0.848-0.848-0.848c-0.468,0-0.848,0.38-0.848,0.848v14.76h-8.72v-43.468
				c2.752,0.36,5.528,0.604,8.364,0.604c0.116,0,0.24-0.016,0.356-0.016v21.132c0,0.468,0.38,0.848,0.848,0.848
				c0.468,0,0.848-0.38,0.848-0.848v-21.208c2.868-0.088,5.772-0.34,8.72-0.792V264.964z M151.154,264.964h-5.528v-44
				c1.888-0.332,3.716-0.768,5.528-1.232V264.964z M144.622,217.128c-18.968,3.244-36.224-1.468-51.284-14.012
				c-12.724-10.6-20.388-24.432-22.776-41.112c-1.86-12.972-0.364-24.36,4.576-34.816c1.392-2.952,3.148-5.868,5.3-8.8
				c-0.052,0.256-0.104,0.512-0.152,0.768c-1.408,7.472-0.376,14.152,3.068,19.856c2.416,3.996,5.616,6.388,9.516,7.104
				c6.708,1.244,11-2.764,13.64-5.884c3.912-4.612,3.72-10.072,3.232-13.776c-0.2-1.548-0.444-3.088-0.684-4.632
				c-0.48-3.068-0.976-6.24-1.12-9.32c-0.36-7.604,2.408-14.836,8.708-22.76c3.328-4.18,7.796-7.264,12.116-10.248
				c6.472-4.464,9.336-10.568,8.524-18.148c-0.092-0.892-0.216-1.78-0.344-2.668c4.42,3.86,7.972,8.604,8.356,15.48
				c0.256,4.6-0.628,9.036-1.564,13.732l-0.484,2.456c-1.628,8.492-1.028,15.276,1.888,21.36c3.54,7.392,8.828,11.536,15.716,12.316
				c7.444,0.86,13.376-2.648,16.728-9.824c2.148-4.604,3.096-9.62,2.968-16.08c0.052,0.072,0.1,0.144,0.156,0.216
				c4.532,6.408,8.26,14.116,11.732,24.256c2.796,8.168,4.524,15.644,5.28,22.844c1.608,15.32-1.568,29.44-9.444,41.968
				C177.87,203.948,163.182,213.948,144.622,217.128z M190.754,244.272l17.224,20.692h-8.596l-31.292-37.596
				c-0.3-0.356-0.836-0.408-1.2-0.108c-0.36,0.3-0.408,0.836-0.108,1.2l30.384,36.508H186.27l-10.672-12.824
				c-0.3-0.364-0.836-0.408-1.196-0.112c-0.36,0.3-0.412,0.836-0.112,1.196l9.768,11.736H173.25l-18.12-21.652v-13.104
				l15.552,18.684c0.168,0.204,0.412,0.308,0.656,0.308c0.192,0,0.384-0.064,0.544-0.196c0.36-0.3,0.412-0.836,0.112-1.196
				l-16.86-20.26v-8.992c3.692-1.188,7.256-2.588,10.6-4.356l19.596,23.548c0.168,0.2,0.412,0.304,0.656,0.304
				c0.192,0,0.384-0.064,0.544-0.196c0.36-0.3,0.408-0.836,0.108-1.2l-19.428-23.344c1.328-0.752,2.648-1.516,3.92-2.36
				l45.204,54.016h-6.132l-18.132-21.784c-0.296-0.36-0.832-0.408-1.2-0.108C190.502,243.372,190.454,243.912,190.754,244.272z"/>
			<path d="M149.734,143.524c-1.98-1.688-4.024-3.3-6.068-4.912c-2.56-2.02-5.208-4.112-7.668-6.316
				c-3.888-3.488-6.068-7.776-6.48-12.756c-0.144-1.728-0.104-3.528-0.068-5.268c0.016-0.816,0.036-1.632,0.036-2.44v-0.784
				l-0.74-0.276c-0.752-0.272-1.412,0.356-1.536,0.492c-7.732,8.132-9.82,16.8-6.216,25.76c1.436,3.572,3.32,6.988,5.14,10.288
				c0.992,1.804,1.988,3.604,2.912,5.436l0.396,0.784c1.34,2.644,2.728,5.376,3.704,8.164c1.244,3.552,0.728,6.924-1.536,10.02
				c-3.44,4.708-9.888,7.508-16.376,7.148c-6.208-0.348-11.316-3.5-14.388-8.88c-0.532-0.932-1.012-1.892-1.512-2.896l-1.76-3.44
				l-1.26,2.264c-0.164,0.276-0.284,0.496-0.384,0.724c-3.804,8.916-4.064,17.588-0.78,25.784
				c4.248,10.592,12.432,17.896,24.32,21.708c5.008,1.604,10.06,2.408,15.12,2.408c6.124,0,12.264-1.172,18.372-3.52l0.152-0.072
				c11.108-6.26,17.576-15.248,18.696-25.988C173.27,172.972,165.226,157.148,149.734,143.524z M169.554,186.72
				c-1.04,9.96-7.084,18.328-17.48,24.208c-10.632,4.068-21.372,4.42-31.912,1.04c-11.216-3.592-18.92-10.456-22.908-20.392
				c-2.92-7.284-2.816-15,0.308-22.948c0.428,0.852,0.852,1.676,1.312,2.484c3.464,6.068,9.228,9.624,16.228,10.016
				c7.252,0.408,14.452-2.756,18.332-8.072c2.692-3.684,3.332-7.872,1.844-12.112c-1.028-2.928-2.448-5.732-3.824-8.44l-0.396-0.78
				c-0.936-1.856-1.944-3.68-2.948-5.508c-1.788-3.244-3.636-6.596-5.02-10.044c-2.972-7.38-1.596-14.592,4.076-21.46
				c-0.032,1.648-0.056,3.336,0.084,5.016c0.456,5.496,2.956,10.424,7.228,14.256c2.508,2.248,5.184,4.364,7.776,6.408
				c2.02,1.592,4.04,3.188,5.988,4.848C163.17,158.356,170.938,173.476,169.554,186.72z"/>
			<path d="M85.206,78.1c2.836,0,5.144-2.308,5.144-5.144s-2.308-5.144-5.144-5.144s-5.144,2.308-5.144,5.144
				S82.37,78.1,85.206,78.1z M85.206,69.284c2.024,0,3.672,1.648,3.672,3.672c0,2.024-1.648,3.672-3.672,3.672
				s-3.672-1.648-3.672-3.672C81.534,70.932,83.182,69.284,85.206,69.284z"/>
			<path d="M171.33,46.452c2.836,0,5.144-2.308,5.144-5.144s-2.308-5.144-5.144-5.144s-5.144,2.308-5.144,5.144
				C166.186,44.144,168.49,46.452,171.33,46.452z M171.33,37.636c2.024,0,3.672,1.648,3.672,3.668c0,2.02-1.648,3.672-3.672,3.672
				s-3.672-1.648-3.672-3.672C167.658,39.28,169.306,37.636,171.33,37.636z"/>
			<path d="M122.35,10.228c0.264,0.04,0.524,0.06,0.788,0.06c1.088,0,2.144-0.344,3.036-1c1.104-0.812,1.832-2.008,2.036-3.368
				c0.204-1.36-0.128-2.716-0.94-3.824c-0.816-1.104-2.012-1.832-3.368-2.036c-1.36-0.208-2.716,0.128-3.824,0.94
				c-1.104,0.816-1.832,2.012-2.036,3.368c-0.208,1.36,0.128,2.716,0.94,3.824C119.794,9.3,120.99,10.024,122.35,10.228z
				 M119.494,4.592c0.148-0.968,0.664-1.828,1.456-2.408c0.636-0.468,1.388-0.716,2.168-0.716c0.184,0,0.372,0.012,0.56,0.044
				c0.968,0.148,1.824,0.664,2.404,1.456c0.584,0.788,0.82,1.756,0.672,2.728c-0.148,0.972-0.664,1.824-1.456,2.404
				c-0.788,0.58-1.748,0.82-2.728,0.672c-0.972-0.148-1.824-0.664-2.404-1.452C119.582,6.528,119.346,5.56,119.494,4.592z"/>
			<path d="M148.874,37.376c0.264,0.04,0.524,0.06,0.788,0.06c1.088,0,2.144-0.344,3.036-1c1.104-0.816,1.832-2.012,2.036-3.368
				c0.428-2.804-1.504-5.436-4.312-5.864c-1.344-0.2-2.716,0.128-3.824,0.94c-1.108,0.816-1.832,2.012-2.036,3.368
				c-0.208,1.36,0.128,2.72,0.94,3.824C146.314,36.444,147.514,37.168,148.874,37.376z M146.014,31.736
				c0.152-0.968,0.668-1.82,1.456-2.404c0.64-0.468,1.392-0.716,2.168-0.716c0.184,0,0.372,0.016,0.56,0.044
				c2,0.304,3.38,2.18,3.076,4.184c-0.148,0.968-0.664,1.824-1.456,2.404c-0.788,0.584-1.756,0.824-2.728,0.672
				c-0.972-0.148-1.824-0.664-2.404-1.456C146.102,33.676,145.866,32.708,146.014,31.736z"/>
		</g>
	</g>
</g>
<g>
</g>
<g>
</g>
<g>
</g>
<g>
</g>
<g>
</g>
<g>
</g>
<g>
</g>
<g>
</g>
<g>
</g>
<g>
</g>
<g>
</g>
<g>
</g>
<g>
</g>
<g>
</g>
<g>
</g>
</svg>
