<?xml version="1.0" encoding="UTF-8" standalone="no"?>
<!-- Created with Inkscape (http://www.inkscape.org/) -->

<svg
   xmlns:dc="http://purl.org/dc/elements/1.1/"
   xmlns:cc="http://creativecommons.org/ns#"
   xmlns:rdf="http://www.w3.org/1999/02/22-rdf-syntax-ns#"
   xmlns:svg="http://www.w3.org/2000/svg"
   xmlns="http://www.w3.org/2000/svg"
   xmlns:sodipodi="http://sodipodi.sourceforge.net/DTD/sodipodi-0.dtd"
   xmlns:inkscape="http://www.inkscape.org/namespaces/inkscape"
   width="296mm"
   height="209mm"
   viewBox="0 0 296 209"
   version="1.1"
   id="svg8"
   inkscape:version="0.92.1 r15371"
   sodipodi:docname="darksky.svg">
  <defs
     id="defs2" />
  <sodipodi:namedview
     id="base"
     pagecolor="#ffffff"
     bordercolor="#666666"
     borderopacity="1.0"
     inkscape:pageopacity="0.0"
     inkscape:pageshadow="2"
     inkscape:zoom="0.7"
     inkscape:cx="370.38596"
     inkscape:cy="423.6439"
     inkscape:document-units="mm"
     inkscape:current-layer="layer1"
     showgrid="false"
     inkscape:window-width="1920"
     inkscape:window-height="1003"
     inkscape:window-x="-9"
     inkscape:window-y="-9"
     inkscape:window-maximized="1" />
  <metadata
     id="metadata5">
    <rdf:RDF>
      <cc:Work
         rdf:about="">
        <dc:format>image/svg+xml</dc:format>
        <dc:type
           rdf:resource="http://purl.org/dc/dcmitype/StillImage" />
        <dc:title></dc:title>
      </cc:Work>
    </rdf:RDF>
  </metadata>
  <g
     inkscape:label="Layer 1"
     inkscape:groupmode="layer"
     id="layer1"
     transform="translate(0,-88)">
    <path
       style="fill:#000000;stroke-width:0.17587385"
       d="m 38.379064,229.88389 c -4.808537,-0.80156 -9.719788,-2.87204 -13.793497,-5.81502 -1.708897,-1.23455 -5.511364,-4.98862 -6.761839,-6.67575 -3.034053,-4.09355 -5.090388,-8.88894 -5.898275,-13.75481 -0.395589,-2.38261 -0.348472,-8.35624 0.08585,-10.88507 1.173733,-6.83393 4.672345,-13.89827 10.90472,-22.01858 2.382448,-3.10415 7.159111,-8.75669 7.317933,-8.65978 0.06877,0.042 -0.214873,1.08359 -0.630339,2.31471 -1.434544,4.25093 -2.281612,8.17889 -2.70614,12.54873 -0.188143,1.93666 -0.441588,9.17441 -0.321257,9.17441 0.03561,0 1.080556,-0.43251 2.322123,-0.96113 1.24157,-0.52863 2.273944,-0.96113 2.29416,-0.96113 0.02029,0 0.04046,2.49675 0.0449,5.54833 0.0077,5.20537 0.03835,5.73198 0.497477,8.5191 0.422438,2.56472 0.834832,4.50718 1.729667,8.14727 l 0.198572,0.80773 1.646973,-0.93879 c 0.905841,-0.51636 1.723377,-0.93881 1.816756,-0.93881 0.0934,0 0.22374,0.41287 0.289688,0.91746 0.119313,0.91277 0.430739,2.76192 0.802021,4.76195 0.327452,1.76392 1.233816,4.96602 1.978556,6.99003 1.070867,2.91037 4.264841,9.00904 6.008679,11.47316 0.180554,0.25512 0.328266,0.51069 0.328266,0.56793 0,0.19683 -6.81538,0.0615 -8.155004,-0.16192 z m 8.428403,0.0477 c -0.684425,-2.15106 -1.482889,-6.37627 -1.973187,-10.44135 -0.413755,-3.4305 -0.411268,-10.28464 0.0051,-13.89269 0.329203,-2.85313 0.981167,-6.79678 1.513762,-9.15662 0.185504,-0.82196 0.309753,-1.52167 0.276084,-1.55493 -0.03368,-0.0333 -1.020074,0.37766 -2.192009,0.91311 -1.171937,0.53544 -2.224613,0.97353 -2.339284,0.97353 -0.429906,0 0.183638,-6.81435 0.895749,-9.94876 0.827818,-3.64368 2.409802,-7.84434 4.530737,-12.0306 0.863306,-1.70395 1.17314,-2.46931 0.977567,-2.41477 -0.157482,0.0438 -1.664,0.48791 -3.347828,0.9866 -1.683828,0.49874 -3.097015,0.8717 -3.140414,0.82886 -0.114242,-0.11261 1.041685,-2.88729 2.132844,-5.11934 1.124873,-2.30101 2.553571,-4.65984 4.157749,-6.86459 1.439539,-1.97846 5.088643,-6.3291 5.308554,-6.3291 0.08766,0 1.382867,1.789 2.878244,3.97557 1.495374,2.18659 4.129523,5.92652 5.853665,8.31095 5.389395,7.45339 7.661442,10.9819 9.586059,14.88724 2.950135,5.98625 3.808295,9.41773 3.808692,15.22963 3.56e-4,5.17107 -0.592675,8.1986 -2.456441,12.54051 -1.661552,3.87079 -3.877634,7.0932 -6.993837,10.16973 -4.860449,4.79857 -10.782139,7.82614 -17.402944,8.8976 -1.911458,0.30934 -1.992437,0.31086 -2.078806,0.0396 z m 204.122083,-0.95528 c -0.55664,-0.0834 -0.54128,0.0793 -0.25239,-2.67083 0.20852,-1.98487 0.21655,-2.0092 0.65209,-1.97418 0.2426,0.0203 0.97192,0.0446 1.62082,0.0558 2.06375,0.0357 2.59638,-0.47739 3.95163,-3.80617 l 0.79274,-1.94705 -4.51083,-10.39249 c -2.48102,-5.71589 -4.51088,-10.43809 -4.51088,-10.49379 0,-0.0556 1.34544,-0.10145 2.98987,-0.10145 h 2.9898 l 0.25878,0.65531 c 0.14225,0.36042 1.44119,3.70253 2.88651,7.42691 1.44532,3.72438 2.6717,6.77139 2.72531,6.77115 0.0538,-1.6e-4 1.2522,-3.34234 2.66352,-7.42689 l 2.56606,-7.42648 h 2.86778 2.86783 l -0.23897,0.56794 c -0.13149,0.31234 -2.40407,6.07259 -5.05033,12.80048 -2.64625,6.7279 -5.13263,12.8956 -5.52527,13.70603 -1.12094,2.31357 -2.75483,3.69749 -4.95764,4.19916 -0.73672,0.16781 -3.80033,0.20385 -4.78643,0.0564 z M 208.0854,219.2244 c -2.9086,-0.54424 -5.55049,-1.81992 -7.1843,-3.46909 l -0.77704,-0.78433 1.48505,-1.38617 c 0.81679,-0.76239 1.73151,-1.59025 2.03274,-1.83965 l 0.54767,-0.45345 0.95684,0.91088 c 1.07202,1.02048 2.79995,1.93305 4.23583,2.23708 1.32593,0.28075 3.43927,0.10876 4.57172,-0.37237 2.46486,-1.04684 3.4682,-4.16073 1.95064,-6.05395 -0.83689,-1.04407 -2.03218,-1.67327 -5.23866,-2.75765 -1.6333,-0.55236 -3.54433,-1.27319 -4.24684,-1.60187 -1.80757,-0.84573 -3.24275,-2.21023 -4.07669,-3.87596 -0.63289,-1.26406 -0.66708,-1.42193 -0.72556,-3.34554 -0.0517,-1.7056 -0.002,-2.19047 0.31637,-3.12483 1.01291,-2.96629 3.48735,-5.03192 7.17912,-5.99315 1.10398,-0.28743 1.96217,-0.37083 3.89414,-0.37836 2.20121,-0.008 2.65247,0.0428 4.03963,0.46024 1.86108,0.55998 2.66996,0.94641 4.15306,1.98402 l 1.11263,0.77836 -1.11263,1.22232 c -0.61189,0.67227 -1.43649,1.58326 -1.8324,2.02444 l -0.71984,0.80214 -0.9638,-0.77507 c -1.80879,-1.45452 -3.95384,-2.0867 -5.96467,-1.7579 -2.68809,0.43958 -4.28761,1.88821 -4.28761,3.88317 0,1.25133 0.21079,1.83084 0.94013,2.58452 0.77899,0.80497 1.40662,1.09331 5.18733,2.38308 1.83638,0.62648 3.88306,1.45626 4.62421,1.87481 3.48082,1.9657 4.91754,5.32988 4.03401,9.44599 -0.74026,3.44903 -3.51191,6.15975 -7.29597,7.13561 -1.84283,0.47526 -4.99428,0.58715 -6.83511,0.24268 z m -77.45452,-0.35993 c -2.20019,-0.58417 -4.04718,-2.00565 -4.86341,-3.74305 -0.53307,-1.13468 -0.52756,-3.76496 0.0104,-4.92734 0.50015,-1.08081 1.65214,-2.1887 3.01824,-2.90266 2.03201,-1.06203 5.86981,-1.78131 9.50427,-1.78131 h 1.68514 l -0.10726,-0.83004 c -0.16343,-1.26379 -0.56569,-1.95598 -1.46345,-2.51809 -1.04722,-0.65566 -1.89659,-0.87103 -3.41646,-0.86629 -1.78373,0.006 -3.32597,0.56727 -4.94369,1.80047 -0.35474,0.27044 -0.68277,0.4917 -0.72896,0.4917 -0.0462,0 -0.6994,-0.71438 -1.45159,-1.58754 l -1.36763,-1.58755 0.41462,-0.4357 c 0.22804,-0.23966 0.86329,-0.70482 1.41168,-1.03371 4.72921,-2.83626 11.48072,-2.58889 14.46861,0.53016 2.10398,2.19633 2.32409,3.36573 2.32409,12.34694 v 6.79599 h -2.56656 -2.56655 v -1.25473 -1.2547 l -0.63439,0.73169 c -1.32125,1.52393 -3.3979,2.3084 -6.0633,2.29048 -0.94051,-0.006 -2.13916,-0.1256 -2.66366,-0.26472 z m 6.18199,-4.18228 c 1.66772,-0.5809 2.6922,-1.9608 2.99593,-4.03529 0.0969,-0.66267 0.17802,-1.27471 0.17984,-1.36003 0.006,-0.23981 -4.91787,0.0101 -5.97287,0.30289 -2.01881,0.56071 -3.22652,1.65008 -3.22652,2.91039 0,0.71235 0.50211,1.60712 1.12965,2.01305 0.94764,0.61303 3.37822,0.69694 4.89389,0.16903 z m -43.549726,-11.5312 v -15.46547 h 6.783466 c 7.56321,0 8.832,0.11972 11.80196,1.11303 4.86223,1.62626 8.26123,5.17289 9.48434,9.89628 0.48753,1.88273 0.48611,7.0862 -0.002,8.73754 -1.7358,5.86789 -6.41972,9.75233 -13.16399,10.91704 -1.1951,0.20641 -3.03469,0.266 -8.221487,0.26645 l -6.681912,5.7e-4 z m 14.337326,10.14 c 3.85628,-0.83449 6.83826,-3.51962 7.72337,-6.95444 0.4292,-1.66555 0.42291,-4.97956 -0.0126,-6.59322 -0.73476,-2.72305 -2.45467,-4.79879 -4.922,-5.94031 -1.94652,-0.90056 -3.78244,-1.20708 -8.05472,-1.3447 l -3.407329,-0.10977 v 10.70911 10.70916 l 3.672829,-0.0942 c 2.41867,-0.0621 4.12614,-0.19236 5.00036,-0.38156 z m 43.54301,-5.15962 v -10.48504 h 2.56656 2.56657 l 0.006,1.7038 c 0.006,1.66932 0.0122,1.69322 0.29252,1.17958 1.15592,-2.12306 3.55807,-3.58238 5.89681,-3.58238 1.46405,0 1.41474,-0.0905 1.41476,2.59625 v 2.38413 h -1.63728 c -0.90675,0 -1.93236,0.10308 -2.29862,0.2312 -1.05546,0.36896 -2.50172,1.86637 -2.98354,3.08906 -0.39978,1.01447 -0.41528,1.24853 -0.47782,7.20849 l -0.0647,6.15997 h -2.6412 -2.64125 z m 16.1074,-6.02891 v -16.51394 h 2.74215 2.74215 l 0.0456,10.34192 0.0457,10.34194 3.95008,-4.31303 3.95005,-4.31302 h 3.43983 c 1.89194,0 3.43989,0.0448 3.43989,0.0996 0,0.0548 -2.03474,2.18763 -4.52159,4.7395 -4.03117,4.13663 -4.49456,4.67066 -4.27251,4.92436 0.13676,0.15645 2.18231,2.56505 4.54525,5.35235 2.36298,2.78726 4.45883,5.2447 4.6574,5.46095 l 0.36113,0.39319 h -3.65072 -3.65075 l -4.12406,-5.27315 -4.124,-5.27315 -0.0469,5.27315 -0.0469,5.27315 h -2.74099 -2.74094 z m 60.53539,0 v -16.51394 h 2.74217 2.74213 l 0.0457,10.34192 0.0456,10.34194 3.95009,-4.31303 3.95006,-4.31302 h 3.43987 c 1.89192,0 3.43982,0.0448 3.43982,0.0996 0,0.0548 -2.03467,2.18763 -4.52153,4.7395 -4.03121,4.13663 -4.49455,4.67066 -4.27254,4.92436 0.13636,0.15645 2.18233,2.56505 4.54529,5.35235 2.36291,2.78726 4.45877,5.2447 4.65739,5.46095 l 0.36113,0.39319 h -3.65075 -3.65072 l -4.12404,-5.27315 -4.12407,-5.27315 -0.0469,5.27315 -0.0469,5.27315 h -2.741 -2.74093 z m 30.22302,-19.77389 c -0.39072,-0.0672 -0.47133,-0.15909 -0.40711,-0.46514 0.044,-0.20986 0.13128,-0.99412 0.19317,-1.7428 l 0.11303,-1.36123 1.00763,0.11241 c 1.90436,0.21272 2.39213,-0.21811 3.61714,-3.19453 l 0.44678,-1.08553 -3.34805,-7.70876 c -1.84148,-4.23983 -3.34808,-7.78371 -3.34808,-7.87535 0,-0.0994 0.89895,-0.14691 2.22843,-0.11769 l 2.22843,0.0489 2.1511,5.53503 c 1.18318,3.04427 2.19033,5.49642 2.23812,5.44922 0.0479,-0.0473 0.93434,-2.53796 1.97006,-5.53503 l 1.88311,-5.44922 2.16768,-0.0493 c 1.72974,-0.0394 2.1497,-0.002 2.07864,0.17979 -2.57313,6.62016 -7.71034,19.4767 -8.04179,20.12575 -1.16623,2.28348 -2.47225,3.09585 -5.09819,3.17117 -0.87617,0.0252 -1.81226,0.008 -2.0802,-0.0379 z M 117.7782,174.85665 c -1.39218,-0.3415 -3.07143,-1.27735 -4.08164,-2.27469 -1.57832,-1.55823 -2.3748,-3.52581 -2.3748,-5.86654 0,-3.21867 1.70724,-6.0192 4.46013,-7.31632 1.47415,-0.69457 2.38643,-0.88753 4.22099,-0.89268 4.44683,-0.0122 7.86386,2.79312 8.50802,6.98575 0.52726,3.43176 -1.22436,6.94495 -4.25871,8.54166 -1.88196,0.99033 -4.45696,1.31759 -6.47399,0.82282 z m 4.45023,-3.78777 c 1.26324,-0.77081 2.18743,-2.61013 2.18743,-4.35346 0,-2.79276 -1.90506,-4.89303 -4.43824,-4.89303 -2.30699,0 -3.93038,1.43995 -4.38984,3.89376 -0.52763,2.81788 1.06723,5.43503 3.57573,5.86777 0.99387,0.17167 2.29937,-0.0479 3.06492,-0.51504 z m 41.79612,3.76286 c -3.81113,-0.91209 -6.15492,-3.93621 -6.15492,-7.94157 0,-3.4877 1.68397,-6.21999 4.70708,-7.63739 1.21587,-0.57005 1.5385,-0.64306 3.14717,-0.71223 1.3267,-0.057 2.04918,-0.002 2.78026,0.20817 3.50617,1.01253 5.46783,3.97825 5.47186,8.27252 l 0.002,1.09221 h -6.02152 -6.0215 l 0.11667,0.48056 c 0.47446,1.95352 2.65752,3.36498 4.82447,3.11921 1.19162,-0.13514 2.75924,-0.84835 3.14615,-1.43143 0.15361,-0.23146 0.36978,-0.42039 0.4802,-0.41989 0.2155,0.001 2.6449,1.85773 2.73,2.08639 0.0952,0.2558 -1.90539,1.9046 -2.83923,2.34 -1.73238,0.8077 -4.33531,1.02985 -6.36773,0.54345 z m 5.79746,-10.34438 c -0.34737,-1.84629 -1.65102,-2.89109 -3.60736,-2.89109 -1.19336,0 -1.81986,0.20898 -2.9226,0.97492 -0.47036,0.32669 -1.34561,1.85276 -1.34957,2.35304 -0.002,0.16842 0.9158,0.21844 4.00057,0.21844 h 4.00227 z m 25.00127,10.34438 c -3.81119,-0.91209 -6.15494,-3.93621 -6.15494,-7.94157 0,-3.4877 1.68399,-6.21999 4.70708,-7.63739 1.21588,-0.57005 1.53844,-0.64306 3.1472,-0.71223 1.32668,-0.057 2.04912,-0.002 2.78022,0.20817 3.50613,1.01253 5.46781,3.97825 5.47184,8.27252 l 0.002,1.09221 h -6.02152 -6.02147 l 0.11586,0.48056 c 0.47448,1.95352 2.65754,3.36498 4.82448,3.11921 1.1916,-0.13514 2.7592,-0.84835 3.14613,-1.43143 0.15422,-0.23146 0.36974,-0.42039 0.48022,-0.41989 0.2155,0.001 2.64494,1.85773 2.72998,2.08639 0.0952,0.2558 -1.90537,1.9046 -2.83925,2.34 -1.73238,0.8077 -4.33527,1.02985 -6.36768,0.54345 z m 5.79743,-10.34438 c -0.34739,-1.84629 -1.65104,-2.89109 -3.60734,-2.89109 -1.19333,0 -1.81985,0.20898 -2.9226,0.97492 -0.47037,0.32669 -1.34565,1.85276 -1.3496,2.35304 -0.002,0.16842 0.91581,0.21844 4.00054,0.21844 h 4.00229 z m 12.6512,10.33595 c -3.47029,-0.91666 -5.66774,-4.06186 -5.662,-8.10411 0.004,-2.42831 0.67258,-4.25906 2.13377,-5.83746 1.60833,-1.73736 3.4773,-2.46895 5.98888,-2.34425 1.73157,0.0858 2.81002,0.478 4.03013,1.46508 l 0.76641,0.61999 v -5.34161 -5.3416 h 2.12403 2.12407 v 12.31994 12.31992 h -2.03558 -2.03556 l -0.006,-1.00482 -0.006,-1.00479 -0.3509,0.4639 c -1.24736,1.64921 -4.49382,2.47084 -7.0721,1.78981 z m 5.06266,-3.75011 c 3.23289,-1.97263 3.08106,-7.03818 -0.26275,-8.76275 -1.14651,-0.59134 -2.5565,-0.65294 -3.65622,-0.1597 -1.5101,0.67721 -2.73674,2.73371 -2.73674,4.58819 0,0.86622 0.47998,2.35438 1.01835,3.15764 1.14655,1.71043 3.84092,2.27283 5.63736,1.1767 z m 26.60497,3.69888 c -1.13527,-0.35859 -2.43796,-1.18904 -2.97019,-1.89342 l -0.36557,-0.48383 -0.006,1.09219 -0.006,1.09219 h -1.94702 -1.94703 v -12.31992 -12.31994 h 2.12399 2.12407 v 5.34801 5.348 l 0.65572,-0.56838 c 2.11869,-1.83659 5.70938,-2.09425 8.41088,-0.60357 1.59916,0.88241 3.06469,2.86668 3.61371,4.89288 0.31048,1.14568 0.30217,3.60203 -0.0162,4.78277 -0.78966,2.92912 -2.79404,5.00025 -5.51667,5.70039 -1.34587,0.34609 -2.92672,0.32046 -4.15452,-0.0674 z m 3.32922,-3.571 c 2.7873,-1.44264 3.30689,-6.10642 0.91775,-8.23737 -1.39415,-1.2435 -3.09415,-1.49218 -4.72297,-0.69084 -2.144,1.05481 -3.17487,3.59376 -2.45361,6.04317 0.31166,1.0584 1.39076,2.42312 2.27149,2.87278 1.16384,0.59422 2.85301,0.59939 3.98734,0.0122 z M 92.37812,163.04563 v -11.53357 h 4.67504 c 3.36053,0 5.05421,0.0716 6.02356,0.25474 3.43422,0.6487 5.33865,2.38117 5.74701,5.22805 0.33543,2.33839 -0.26663,4.4165 -1.68526,5.81708 -1.58714,1.56693 -3.53369,2.14877 -7.635933,2.28241 l -2.876318,0.0935 v 4.69557 4.69558 H 94.50217 92.37812 Z m 9.69471,-1.8392 c 1.59431,-0.46744 2.51857,-1.55606 2.51857,-2.96646 0,-1.36762 -0.92867,-2.4797 -2.38955,-2.86142 -0.38941,-0.10187 -1.80323,-0.23891 -3.141823,-0.30482 l -2.433808,-0.11972 v 3.25948 3.25946 h 2.268931 c 1.51777,0 2.56978,-0.0883 3.17768,-0.26642 z m 30.61619,5.55264 -2.74971,-7.8201 2.1356,-0.0493 c 1.17458,-0.0272 2.19201,0.0122 2.26096,0.0874 0.0689,0.0751 0.83049,2.54993 1.69229,5.49944 0.86182,2.94951 1.59445,5.33559 1.62807,5.30241 0.0337,-0.0333 0.79766,-2.48575 1.69785,-5.45013 l 1.63672,-5.38979 h 2.18486 2.18487 l 1.4747,4.80564 c 0.81107,2.64313 1.5655,5.12021 1.67646,5.50465 l 0.20174,0.69903 0.23177,-0.69903 c 0.12753,-0.38444 0.8847,-2.88119 1.6827,-5.54832 l 1.45091,-4.84934 h 2.09891 c 1.15434,0 2.09994,0.0588 2.10128,0.13108 0.001,0.072 -1.21331,3.61209 -2.69931,7.86667 l -2.70175,7.7356 -2.11641,-0.0467 -2.11643,-0.0467 -1.75895,-5.3299 c -1.41937,-4.30091 -1.78608,-5.24556 -1.89946,-4.89301 -0.0772,0.24027 -0.86568,2.65839 -1.75204,5.37357 l -1.61156,4.93672 h -2.09219 -2.0922 z m 45.00503,-0.0436 v -7.86378 h 1.94709 1.94707 l 0.0101,1.26694 c 0.008,1.05412 0.0459,1.21057 0.22126,0.9313 1.02752,-1.63574 2.56967,-2.54332 4.32616,-2.54604 l 1.10632,-0.002 v 1.87856 1.87859 l -1.08164,-0.0601 c -1.38709,-0.0771 -2.41836,0.30413 -3.23436,1.19584 -1.0381,1.13441 -1.17178,1.91551 -1.17178,6.8472 v 4.33706 h -2.03552 -2.03554 v -7.86383 z M 32.219398,159.57059 c 0.133558,-0.18141 1.007432,-1.30186 1.94193,-2.49022 3.229092,-4.10624 5.455566,-7.46629 7.105696,-10.72342 1.025914,-2.02501 1.903969,-4.24603 1.903969,-4.81606 0,-0.8075 0.623872,-0.26018 2.198682,1.92891 1.833472,2.54865 7.059584,10.42 7.07574,10.65717 0.01319,0.19277 -0.181446,0.28164 -0.689724,0.31504 -1.819213,0.11952 -6.249549,0.83545 -8.407693,1.35864 -2.99989,0.72727 -5.421732,1.57056 -8.582966,2.98865 -1.361975,0.61096 -2.546553,1.11084 -2.632395,1.11084 -0.08585,0 -0.04679,-0.14833 0.08677,-0.32955 z"
       id="path4496"
       inkscape:connector-curvature="0"
       inkscape:export-xdpi="45.727093"
       inkscape:export-ydpi="45.727093" />
  </g>
</svg>
