<?xml version="1.0" encoding="iso-8859-1"?>
<!-- Generator: Adobe Illustrator 19.0.0, SVG Export Plug-In . SVG Version: 6.00 Build 0)  -->
<svg version="1.1" id="Layer_1" xmlns="http://www.w3.org/2000/svg" xmlns:xlink="http://www.w3.org/1999/xlink" x="0px" y="0px"
	 viewBox="0 0 271.075 271.075" style="enable-background:new 0 0 271.075 271.075;" xml:space="preserve">
<g>
	<g>
		<g>
			<path d="M225.644,141.971c0.036,0.056,0.064,0.124,0.096,0.18C225.84,142.043,225.908,141.879,225.644,141.971z"/>
			<path d="M225.644,141.971c9.808-24.032,9.656-69.68-12.324-95.96c3.344-3.98,4.752-9.228,5.876-14.748
				c0.68-3.352-0.56-5.528-3.796-6.648c-5.748-1.988-11.876-3.712-18.432-1.72c-1.428-7.224-6.112-11.908-10.484-15.768
				c-0.972-0.856-1.844-1.392-2.748-1.676c-0.392-0.124-0.816-0.124-1.204,0c-0.892,0.284-1.788,0.832-2.744,1.676
				c-0.452,0.396-0.904,0.812-1.356,1.228c-14.524-7.72-35.504-10.612-57.748-6.456c-24.14,4.5-44.576,16.06-54.66,30.92
				c-2.944,4.34-4.784,8.82-5.636,13.284c-20.976,25.068-27.076,64.112-15.148,95.8c0.276,0.736-4,7.404-4,14.976
				c0,14.704,7.452,26.22,16.968,26.22h0.184c10.704,44.004,39.852,87.976,75.62,87.976c35.936,0,65.032-44.072,75.7-88.332
				c0.924,0.24,1.856,0.356,2.788,0.356c9.512,0,16.968-11.516,16.968-26.22c0-6.512-1.5-11.256-3.728-14.728
				C225.64,142.255,225.508,142.303,225.644,141.971z M223.184,138.987c-2.652-2.516-5.812-3.88-8.924-4.228
				c-0.004-0.084-0.012-0.172-0.02-0.256c-0.064-0.728-0.12-1.42-0.256-2.012c-1.792-20.516-8.664-37.292-19.6-49.772
				c0.244-4.792-1.616-10.704-2.86-14.536c6.276,3.944,12.832,2.104,17.988-0.092c1.924-0.824,3.628-3.568,3.44-5.536
				c-0.488-5.124-2-9.14-4.7-12.416c0.78-0.412,1.468-0.884,2.136-1.372C230.644,73.011,232.504,108.987,223.184,138.987z
				 M184.884,92.079c-0.292-0.316-0.58-0.636-0.876-0.944c2.416-0.132,4.696-0.528,6.588-1.452c1.092-0.536,1.88-1.32,2.472-2.252
				c5.888,7.284,10.404,15.984,13.348,26.008C201,104.535,193.568,97.575,184.884,92.079z M187.008,98.143
				c9.72,12.812,15.212,30.12,15.212,50.844c0,59.756-35.944,106.108-66.864,106.108s-66.864-46.352-66.864-106.108
				c0-22.488,6.492-40.928,17.828-53.968c12.808-5.708,28.308-7.28,42.44-7.348c12.776-0.06,25.508,1.056,38.236,2.084
				c2.26,0.184,5,0.592,7.868,0.932C179.164,92.871,183.244,95.339,187.008,98.143z M162.9,48.091
				c0.034,0.031,0.041,0.047-0.053,0.014c0.016-0.004,0.033-0.01,0.049-0.01c-0.051-0.047-0.155-0.099-0.076-0.001
				c-7.609-2.737-10.221-9.6-11.848-17.627c-0.288-1.408-0.152-1.64,1.2-2.108c6.164-2.132,12.324-3.564,18.512-0.832l6.724,7.96
				c1.352,1.6,2.564,3.168,2.548,4.76c0,0.224-0.032,0.384-0.084,0.476c-0.1,0.168-0.396,0.392-0.592,0.536
				C174.54,44.739,168.876,47.103,162.9,48.091z M163.155,50.428c-0.056,0.045-0.14,0.107-0.083,0.008
				C163.098,50.432,163.125,50.431,163.155,50.428z M162.834,48.106l-0.002,0.001c-0.003-0.003-0.003-0.004-0.003-0.005
				C162.831,48.104,162.833,48.104,162.834,48.106z M163.16,50.427c4.732-0.776,9.284-2.372,13.38-4.676
				c-2.448,4.68-2.62,9.56-0.284,13.616c0.152,0.264,0.416,0.46,0.72,0.532c0.088,0.024,0.176,0.032,0.268,0.032
				c0.22,0,0.436-0.06,0.624-0.184c2.164-1.388,3.976-2.964,5.272-4.532c1.3,1.572,3.108,3.144,5.272,4.532
				c0.188,0.12,0.404,0.184,0.624,0.184c0.088,0,0.18-0.008,0.268-0.032c0.308-0.072,0.568-0.264,0.72-0.532
				c2.32-4.028,2.168-8.872-0.236-13.524c4.124,2.2,8.688,3.748,13.444,4.636c3.276,2.968,5.26,7.132,5.768,12.396
				c-0.036,0.416-0.692,1.388-1.048,1.576c-7.036,3-11.804,2.772-15.94-0.784c-0.416-0.36-0.968-0.512-1.52-0.464
				c-0.552,0.068-1.048,0.36-1.376,0.804c-2.5,3.44-4.544,6.252-5.976,7.248c-1.432-0.996-3.476-3.808-5.976-7.248
				c-0.328-0.444-0.824-0.74-1.376-0.804c-0.076-0.008-0.156-0.012-0.232-0.012c-0.472,0-0.928,0.168-1.292,0.476
				c-4.136,3.556-8.9,3.78-15.928,0.788c-0.372-0.192-1.024-1.164-1.064-1.516C157.788,57.599,159.884,53.395,163.16,50.427z
				 M214.104,28.363c1.352,0.468,1.488,0.708,1.2,2.108c-1.632,8.032-4.088,14.888-11.712,17.62
				c-0.128,0.048-0.12,0.008-0.092-0.032c-0.012,0.012-0.004,0.008-0.028,0.032c-6.06-1.144-11.788-3.424-16.624-6.74
				c-0.208-0.144-0.556-0.38-0.668-0.56c-0.06-0.096-0.088-0.248-0.092-0.464c-0.02-1.604,1.316-3.216,2.812-4.86l7.304-8.06
				C202.368,24.695,207.96,26.235,214.104,28.363z M182.42,10.099c0.26-0.232,0.5-0.416,0.72-0.564
				c0.22,0.144,0.46,0.332,0.72,0.564c5.32,4.7,9.344,10.128,9.884,16.64c0.012,0.15-0.019,0.113-0.047,0.055l0.047-0.051
				c-0.115-0.166-0.088-0.035-0.049,0.049l-6.323,6.975c-1.468,1.62-3.476,3.832-3.444,6.584c0.008,0.708,0.16,1.292,0.476,1.796
				c0.296,0.468,1.124,1.248,1.18,1.32c3.756,4.624,4.824,9.552,3.02,13.72c-1.988-1.412-3.564-2.96-4.5-4.428
				c-0.048-0.08-0.404-0.472-0.964-0.452c-0.52,0.02-0.912,0.372-0.964,0.452c-0.932,1.468-2.508,3.008-4.5,4.428
				c-1.804-4.168-0.736-9.096,3.02-13.72c0.136-0.168,0.776-1.108,1-1.496c0.272-0.472,0.412-1.032,0.42-1.704
				c0.028-2.648-1.792-4.8-3.116-6.368l-6.288-7.436c-0.016,0.044-0.032,0.076-0.024-0.028l0.024,0.028
				c0.02-0.06,0.032-0.148-0.024-0.028C173.228,19.923,177.1,14.795,182.42,10.099z M69.336,35.067
				c9.356-13.788,29.312-24.992,52.084-29.24c6.8-1.264,13.48-1.868,19.868-1.868c13.216,0,25.148,2.6,34.328,7.204
				c-2.856,3.1-5.336,6.82-6.308,11.728c-6.348-1.936-12.26-0.384-17.82,1.512c-19.06-8.52-41.228-9.396-60.66-1.156
				c-9.012,3.82-16.92,9.244-23.76,15.732C67.728,37.671,68.456,36.363,69.336,35.067z M90.952,27.527
				c17.916-8.056,38.548-7.696,56.552-0.404c-0.62,1.1-0.76,2.472-0.42,4.14c1.576,7.744,3.64,15,10.944,18.88
				c-2.7,3.272-4.212,7.292-4.7,12.416c-0.188,1.968,1.516,4.712,3.444,5.536c5.256,2.244,11.98,4.152,18.372-0.12
				c3.004,4.1,5.024,6.6,7.372,7.38c0.204,0.064,0.412,0.096,0.62,0.096s0.416-0.036,0.62-0.096c1.528-0.504,2.94-1.812,4.552-3.748
				c0.444,1.684,0.844,3.384,1.112,5.12c0.648,4.22,2.112,7.792-1.532,9.552c-2.668,1.288-7.612,0.336-10.444,0.204
				c-22.816-1.076-45.46-4.508-68.312-1.668c-23.08,2.864-44.604,13.08-51.636,36.516c-1.784,5.076-2.976,10.12-3.36,14.072
				c-1.848,0.592-3.944,1.624-5.908,3.264C32.584,97.055,50.152,45.871,90.952,27.527z M209.14,178.295l-2.256-1.076l-0.556,2.436
				c-9.872,43.436-37.88,87.416-72.316,87.416c-34.152,0-62.14-43.568-72.136-86.604l-0.432-1.864l-1.88,0.352
				c-0.448,0.084-0.9,0.14-1.36,0.14c-7.028,0-12.968-10.176-12.968-22.22c0-10.008,3.884-16.224,11.228-17.98l1.408-0.336
				c0.3-3.516,0.944-6.94,1.772-10.276c0.16-0.212,1.148-4.172,1.632-5.768c0.228-0.708,0.46-1.412,0.7-2.108
				c3.744-10.54,10.628-17.828,19.216-22.772c-9.576,13.088-14.972,30.548-14.972,51.352c0,50.116,30.2,108.376,69.132,108.376
				c38.936,0,69.136-58.256,69.136-108.376c0-17.916-4.044-33.312-11.264-45.62c8.056,7.652,14.048,17.348,16.788,29.68l0.152,1.74
				l0.084-0.004l0.004,0.06c0.188,2.22,0.328,3.82,2.248,3.82c8,0,12.968,6.98,12.968,18.216
				C225.472,170.827,217.344,182.199,209.14,178.295z"/>
			<path d="M126.468,134.187c0-12.528-10.192-22.72-22.72-22.72c-12.528,0-22.72,10.192-22.72,22.72
				c0,12.528,10.192,22.724,22.72,22.724C116.276,156.911,126.468,146.715,126.468,134.187z M103.748,154.075
				c-10.964,0-19.884-8.92-19.884-19.888c0-10.968,8.92-19.884,19.884-19.884c10.964,0,19.884,8.916,19.884,19.884
				C123.632,145.155,114.712,154.075,103.748,154.075z"/>
			<path d="M106.012,126.459c0-2.544-1.248-4.588-1.3-4.672l-0.964-1.556l-0.964,1.556c-0.052,0.084-1.3,2.128-1.3,4.672
				s1.248,4.588,1.3,4.672l0.964,1.556l0.964-1.556C104.764,131.047,106.012,129.003,106.012,126.459z M102.62,126.459
				c0-2.252,1.128-4.076,1.128-4.076s1.128,1.824,1.128,4.076s-1.128,4.076-1.128,4.076S102.62,128.711,102.62,126.459z"/>
			<path d="M97.096,139.967c-1.8,1.8-2.364,4.124-2.384,4.224l-0.42,1.784l1.784-0.42c0.1-0.024,2.424-0.588,4.224-2.384
				s2.364-4.124,2.384-4.224l0.42-1.784l-1.784,0.42C101.22,137.603,98.896,138.167,97.096,139.967z M99.496,142.363
				c-1.592,1.592-3.68,2.084-3.68,2.084s0.492-2.088,2.084-3.68s3.68-2.084,3.68-2.084S101.084,140.771,99.496,142.363z"/>
			<path d="M110.4,139.967c-1.8-1.8-4.124-2.364-4.224-2.384l-1.784-0.42l0.42,1.784c0.024,0.1,0.588,2.424,2.384,4.224
				c1.796,1.8,4.124,2.364,4.224,2.384l1.784,0.42l-0.42-1.784C112.764,144.091,112.2,141.763,110.4,139.967z M108,142.363
				c-1.592-1.592-2.084-3.68-2.084-3.68s2.088,0.492,3.68,2.084s2.084,3.68,2.084,3.68S109.592,143.955,108,142.363z"/>
			<path d="M99.064,134.987c0.696,0,1.136-0.068,1.136-0.068l1.796-0.284l-1.04-1.488c-0.056-0.084-1.448-2.032-3.788-3.032
				c-1.376-0.588-2.756-0.712-3.672-0.712c-0.696,0-1.136,0.068-1.136,0.068l-1.796,0.284l1.04,1.488
				c0.056,0.084,1.448,2.032,3.788,3.032C96.768,134.863,98.148,134.987,99.064,134.987z M92.536,130.591
				c0,0,0.376-0.056,0.968-0.056c0.812,0,2.028,0.108,3.224,0.62c2.072,0.884,3.304,2.64,3.304,2.64s-0.376,0.056-0.968,0.056
				c-0.812,0-2.028-0.108-3.224-0.62C93.768,132.347,92.536,130.591,92.536,130.591z"/>
			<path d="M113.996,129.403c-0.916,0-2.296,0.124-3.672,0.712c-2.34,1-3.728,2.948-3.788,3.032l-1.048,1.488l1.804,0.284
				c0,0,0.444,0.068,1.136,0.068c0.916,0,2.296-0.124,3.672-0.712c2.34-1,3.728-2.948,3.788-3.032l1.048-1.488l-1.804-0.284
				C115.132,129.471,114.688,129.403,113.996,129.403z M111.656,133.231c-1.2,0.512-2.416,0.62-3.224,0.62
				c-0.592,0-0.968-0.056-0.968-0.056s1.236-1.756,3.304-2.64c1.2-0.512,2.416-0.62,3.224-0.62c0.592,0,0.968,0.056,0.968,0.056
				S113.728,132.347,111.656,133.231z"/>
			<path d="M141.616,134.187c0,12.528,10.192,22.724,22.72,22.724s22.72-10.196,22.72-22.724c0-12.528-10.192-22.72-22.72-22.72
				S141.616,121.659,141.616,134.187z M184.224,134.187c0,10.964-8.92,19.888-19.884,19.888s-19.884-8.92-19.884-19.888
				c0-10.968,8.92-19.884,19.884-19.884S184.224,123.223,184.224,134.187z"/>
			<path d="M164.34,132.687l0.964-1.556c0.052-0.084,1.3-2.128,1.3-4.672s-1.248-4.588-1.3-4.672l-0.964-1.556l-0.964,1.556
				c-0.056,0.084-1.3,2.128-1.3,4.672s1.248,4.588,1.3,4.672L164.34,132.687z M164.34,122.383c0,0,1.128,1.824,1.128,4.076
				s-1.128,4.076-1.128,4.076s-1.128-1.824-1.128-4.076S164.34,122.383,164.34,122.383z"/>
			<path d="M157.684,139.967c-1.8,1.8-2.364,4.124-2.384,4.224l-0.42,1.784l1.784-0.42c0.1-0.024,2.424-0.588,4.224-2.384
				s2.364-4.124,2.384-4.224l0.42-1.784l-1.784,0.42C161.812,137.603,159.484,138.167,157.684,139.967z M160.084,142.363
				c-1.592,1.592-3.68,2.084-3.68,2.084s0.492-2.088,2.084-3.68c1.592-1.592,3.68-2.084,3.68-2.084S161.676,140.771,160.084,142.363
				z"/>
			<path d="M170.992,139.967c-1.8-1.8-4.124-2.364-4.224-2.384l-1.784-0.42l0.42,1.784c0.024,0.1,0.588,2.424,2.384,4.224
				c1.8,1.8,4.124,2.364,4.224,2.384l1.784,0.42l-0.42-1.784C173.356,144.091,172.792,141.763,170.992,139.967z M168.592,142.363
				c-1.592-1.592-2.084-3.68-2.084-3.68s2.088,0.492,3.68,2.084c1.592,1.592,2.084,3.68,2.084,3.68S170.184,143.955,168.592,142.363
				z"/>
			<path d="M155.984,134.275c1.376,0.588,2.756,0.712,3.672,0.712c0.696,0,1.136-0.068,1.136-0.068l1.796-0.284l-1.04-1.488
				c-0.06-0.084-1.448-2.032-3.788-3.032c-1.376-0.588-2.756-0.712-3.672-0.712c-0.696,0-1.136,0.068-1.136,0.068l-1.796,0.284
				l1.04,1.488C152.252,131.327,153.644,133.275,155.984,134.275z M154.092,130.535c0.812,0,2.028,0.108,3.224,0.62
				c2.072,0.884,3.304,2.64,3.304,2.64s-0.376,0.056-0.968,0.056c-0.812,0-2.028-0.108-3.224-0.62
				c-2.068-0.884-3.304-2.64-3.304-2.64S153.5,130.535,154.092,130.535z"/>
			<path d="M167.884,134.915c0,0,0.444,0.068,1.136,0.068c0.916,0,2.296-0.124,3.672-0.712c2.34-1,3.728-2.948,3.788-3.032
				l1.048-1.488l-1.804-0.284c0,0-0.444-0.068-1.136-0.068c-0.916,0-2.296,0.124-3.672,0.712c-2.34,1-3.728,2.948-3.788,3.032
				l-1.048,1.488L167.884,134.915z M171.36,131.155c1.2-0.512,2.416-0.62,3.224-0.62c0.592,0,0.968,0.056,0.968,0.056
				s-1.236,1.756-3.304,2.64c-1.2,0.512-2.416,0.62-3.224,0.62c-0.592,0-0.968-0.056-0.968-0.056S169.288,132.039,171.36,131.155z"
				/>
			<path d="M135.356,206.871c-13.528,0-27.904,3.556-27.904,10.136c0,5.892,12.916,17.896,27.904,17.896
				c14.988,0,27.908-12.004,27.908-17.896C163.26,210.423,148.884,206.871,135.356,206.871z M135.356,232.067
				c-14.384,0-25.068-11.532-25.068-15.06c0-3.048,9.536-7.3,25.068-7.3c15.532,0,25.072,4.252,25.072,7.3
				C160.424,220.535,149.744,232.067,135.356,232.067z"/>
			<path d="M125.22,169.283c0.556,0.548,1.452,0.548,2.004,0c4.348-4.352,11.92-4.352,16.268,0c0.276,0.272,0.64,0.416,1,0.416
				s0.724-0.14,1-0.416c0.552-0.556,0.556-1.452,0-2.008c-2.708-2.708-6.312-4.204-10.14-4.204s-7.428,1.496-10.136,4.204
				C124.664,167.831,124.664,168.731,125.22,169.283z"/>
			<path d="M152.1,217.867l-0.82-0.404c-2.096-1.024-4.268-2.08-6.208-3.26c-2.984-1.808-6.064-2-9.16-0.556
				c-3.144-1.328-6.096-1.208-8.792,0.348c-2.416,1.396-5.004,2.684-7.508,3.928c-0.536,0.268-0.988,0.6-1.24,1.032
				c-0.04,0.036-0.056,0.084-0.084,0.132c-0.032,0.08-0.124,0.128-0.136,0.216c-0.088,0.592,0.344,1.092,0.78,1.508
				c1.648,1.568,3.832,2.796,6.48,3.66c3.22,1.044,6.684,1.572,10.352,1.572c1.66,0,3.356-0.108,5.092-0.324
				c5.204-0.64,9.124-2.204,11.98-4.776c0.48-0.432,0.96-0.956,0.872-1.584C153.608,218.659,152.86,218.239,152.1,217.867z
				 M127.688,214.979c2.468-1.424,5.084-1.488,8.004-0.192l0.244,0.104l0.24-0.116c2.804-1.376,5.604-1.252,8.308,0.396
				c1.988,1.208,4.18,2.276,6.3,3.312l0.656,0.32h-31.052C122.824,217.591,125.328,216.339,127.688,214.979z M152.076,220.095
				c-2.676,2.416-6.392,3.888-11.36,4.496c-5.408,0.676-10.436,0.264-14.952-1.2c-2.492-0.808-4.524-1.952-6.052-3.404
				c-0.028-0.024-0.028-0.032-0.052-0.056h32.568C152.168,219.995,152.16,220.023,152.076,220.095z"/>
		</g>
	</g>
</g>
<g>
</g>
<g>
</g>
<g>
</g>
<g>
</g>
<g>
</g>
<g>
</g>
<g>
</g>
<g>
</g>
<g>
</g>
<g>
</g>
<g>
</g>
<g>
</g>
<g>
</g>
<g>
</g>
<g>
</g>
</svg>
