<?xml version="1.0" encoding="iso-8859-1"?>
<!-- Generator: Adobe Illustrator 19.0.0, SVG Export Plug-In . SVG Version: 6.00 Build 0)  -->
<svg version="1.1" id="Layer_1" xmlns="http://www.w3.org/2000/svg" xmlns:xlink="http://www.w3.org/1999/xlink" x="0px" y="0px"
	 viewBox="0 0 512 512" style="enable-background:new 0 0 512 512;" xml:space="preserve">
<g transform="translate(1 1)">
	<path style="fill:#FFDD09;" d="M246.467,7.533c-79.36,0-136.533,77.653-136.533,162.133c0,51.2,15.36,78.507,34.987,128
		c40.96,98.987,101.547,204.8,101.547,204.8s60.587-105.813,101.547-204.8c20.48-49.493,34.987-76.8,34.987-128
		C383,85.187,325.827,7.533,246.467,7.533"/>
	<path style="fill:#FD9808;" d="M246.467,7.533C325.827,7.533,383,85.187,383,169.667c0,51.2-15.36,78.507-34.987,128
		c-40.96,98.987-101.547,204.8-101.547,204.8s72.533-105.813,120.32-204.8c23.893-49.493,41.813-76.8,41.813-128
		C408.6,85.187,340.333,7.533,246.467,7.533"/>
	<path style="fill:#FFDD09;" d="M272.067,7.533c79.36,0,136.533,77.653,136.533,162.133c0,51.2-15.36,78.507-34.987,128
		C332.653,396.653,255,502.467,255,502.467s89.6-105.813,137.387-204.8c23.893-49.493,41.813-76.8,41.813-128
		C434.2,85.187,365.933,7.533,272.067,7.533"/>
	<path style="fill:#FFFFFF;" d="M109.933,169.667c0-84.48,57.173-162.133,136.533-162.133c-93.867,0-162.133,77.653-162.133,162.133
		c0,51.2,17.92,78.507,41.813,128c47.787,98.987,120.32,204.8,120.32,204.8s-60.587-105.813-101.547-204.8
		C125.293,248.173,109.933,220.867,109.933,169.667"/>
	<path d="M246.467,511c-2.56,0-5.12-1.707-6.827-3.413c-0.853-1.707-73.387-108.373-121.173-206.507
		c-3.413-6.827-6.827-12.8-9.387-18.773c-19.627-38.4-33.28-66.56-33.28-112.64c0-32.427,9.387-64,27.307-91.307
		c2.56-4.267,7.68-5.12,11.093-2.56c4.267,1.707,5.12,7.68,2.56,11.093c-15.36,25.6-23.893,53.76-23.893,82.773
		c0,41.813,12.8,67.413,31.573,104.96c3.413,5.973,5.973,12.8,9.387,18.773c38.4,79.36,93.013,163.84,112.64,192.853
		c19.627-29.013,74.24-114.347,112.64-192.853c3.413-6.827,6.827-12.8,9.387-18.773c18.773-37.547,31.573-63.147,31.573-104.96
		c0-84.48-69.12-153.6-153.6-153.6c-32.427,0-63.147,9.387-88.747,28.16c-4.267,2.56-9.387,1.707-11.947-1.707
		c-2.56-4.267-1.707-9.387,1.707-11.947C176.493,10.093,210.627-1,246.467-1c93.867,0,170.667,76.8,170.667,170.667
		c0,46.08-13.653,74.24-33.28,112.64c-3.413,5.973-5.973,11.947-9.387,18.773c-47.787,98.133-120.32,204.8-121.173,205.653
		C251.587,509.293,249.027,511,246.467,511z"/>
	<path d="M137.24,57.027c0-5.12-3.413-8.533-8.533-8.533c-5.12,0-8.533,3.413-8.533,8.533s3.413,8.533,8.533,8.533
		C133.827,65.56,137.24,61.293,137.24,57.027"/>
	<path style="fill:#1CD759;" d="M340.333,169.667c0-52.053-41.813-93.867-93.867-93.867S152.6,117.613,152.6,169.667
		s41.813,93.867,93.867,93.867S340.333,221.72,340.333,169.667"/>
	<path d="M237.933,229.4c-1.707,0-3.413-0.853-5.12-1.707l-42.667-34.133c-3.413-2.56-4.267-8.533-1.707-11.947
		c2.56-3.413,8.533-4.267,11.947-1.707l35.84,28.16l54.613-77.653c2.56-4.267,7.68-5.12,11.947-1.707
		c4.267,2.56,5.12,7.68,1.707,11.947l-59.733,85.333c-1.707,1.707-3.413,3.413-5.973,3.413
		C238.787,229.4,237.933,229.4,237.933,229.4z"/>
	<path d="M246.467,272.067c-56.32,0-102.4-46.08-102.4-102.4s46.08-102.4,102.4-102.4s102.4,46.08,102.4,102.4
		S302.787,272.067,246.467,272.067z M246.467,84.333c-46.933,0-85.333,38.4-85.333,85.333S199.533,255,246.467,255
		s85.333-38.4,85.333-85.333S293.4,84.333,246.467,84.333z"/>
</g>
<g>
</g>
<g>
</g>
<g>
</g>
<g>
</g>
<g>
</g>
<g>
</g>
<g>
</g>
<g>
</g>
<g>
</g>
<g>
</g>
<g>
</g>
<g>
</g>
<g>
</g>
<g>
</g>
<g>
</g>
</svg>
