<svg xmlns="http://www.w3.org/2000/svg" xmlns:xlink="http://www.w3.org/1999/xlink" xmlns:fi="http://pattern.flaticon.com/" x="0" y="0" width="2000" height="1000" viewBox="0 0 3500 1750"><rect x="0px" y="0px" width="100%" height="100%" opacity="1" fill="#ebe4d1"/><defs><g transform="matrix(0.18963293731212616 0 0 0.18963293731212616 204.09835332017792 50.09765410164857)" id="L1_12"><path d="M305.406,148.191l-40.95,71.78l13.28,17.38l20.97-20.91c1.44-1.43,3.4-2.22,5.43-2.18     c2.04,0.03,3.97,0.9,5.36,2.39l24.18,26.01l14.01-21.24L305.406,148.191z M461.766,389.012c1.34,2.32,1.34,5.18,0,7.5     c-1.34,2.32-3.81,3.75-6.49,3.75H7.746c-2.68,0-5.15-1.43-6.49-3.75c-1.34-2.32-1.34-5.18,0-7.5l118.55-205.34     c1.34-2.32,3.82-3.75,6.5-3.75s5.16,1.43,6.5,3.75l20.47,35.46l65.41-113.28c1.34-2.32,3.82-3.75,6.5-3.75     c2.68,0,5.15,1.43,6.49,3.75l40.43,70.02l26.8-46.43c1.34-2.32,3.82-3.75,6.5-3.75c2.68,0,5.15,1.43,6.49,3.75L461.766,389.012z      M442.286,385.262l-86.21-149.32l-15.13,22.94c-1.27,1.92-3.35,3.16-5.64,3.35c-0.21,0.01-0.42,0.02-0.62,0.02     c-2.08,0-4.07-0.86-5.49-2.39l-25.4-27.31l-21.58,21.51c-1.53,1.54-3.66,2.32-5.82,2.17c-2.17-0.15-4.16-1.24-5.47-2.97     l-14.81-19.7l-47.25,81.85l40.33,69.85H442.286z M263.446,190.871l-2.68-4.65l-9.09,14.1c-1.29,2-3.46,3.27-5.84,3.42     c-2.39,0.15-4.7-0.85-6.22-2.68l-15.32-18.39l-9.78,18.58c-1.11,2.1-3.15,3.56-5.5,3.92c-0.38,0.06-0.76,0.09-1.14,0.09     c-1.96,0-3.87-0.78-5.28-2.18l-14.45-14.34l-26.21,45.39l38.27,66.28L263.446,190.871z M252.326,171.611l-27.14-47.01     l-29.28,50.7l10.06,9.99l10.27-19.53c1.17-2.21,3.36-3.7,5.85-3.96c2.49-0.27,4.95,0.73,6.55,2.66l15.96,19.15L252.326,171.611z      M231.866,385.262l-67.24-116.47l-17.12,19.42c-1.43,1.62-3.48,2.54-5.63,2.54c-0.04,0-0.08,0-0.12,0     c-2.2-0.04-4.27-1.04-5.67-2.73l-16.38-19.9l-13.75,10.58c-1.93,1.48-4.46,1.93-6.78,1.22c-2.33-0.72-4.16-2.52-4.92-4.83     l-3.59-10.95l-69.93,121.12H231.866z M156.716,255.091l-30.41-52.67l-25.57,44.29l4.47,13.64l11.1-8.54     c3.21-2.47,7.79-1.95,10.36,1.17l15.41,18.71L156.716,255.091z" fill="#4d4d4d"/><path d="M304.136,214.261c-2.03-0.04-3.99,0.75-5.43,2.18l-20.97,20.91l-13.28-17.38l40.95-71.78     l42.28,73.23l-14.01,21.24l-24.18-26.01C308.106,215.161,306.176,214.291,304.136,214.261z" fill="#cccccc"/><path d="M356.076,235.941l86.21,149.32h-193.09l-40.33-69.85l47.25-81.85l14.81,19.7     c1.31,1.73,3.3,2.82,5.47,2.97c2.16,0.15,4.29-0.63,5.82-2.17l21.58-21.51l25.4,27.31c1.42,1.53,3.41,2.39,5.49,2.39     c0.2,0,0.41-0.01,0.62-0.02c2.29-0.19,4.37-1.43,5.64-3.35L356.076,235.941z" fill="#808080"/><path d="M260.766,186.221l2.68,4.65l-63.24,109.54l-38.27-66.28l26.21-45.39l14.45,14.34     c1.41,1.4,3.32,2.18,5.28,2.18c0.38,0,0.76-0.03,1.14-0.09c2.35-0.36,4.39-1.82,5.5-3.92l9.78-18.58l15.32,18.39     c1.52,1.83,3.83,2.83,6.22,2.68c2.38-0.15,4.55-1.42,5.84-3.42L260.766,186.221z" fill="#666666"/><path d="M225.186,124.601l27.14,47.01l-7.73,12l-15.96-19.15c-1.6-1.93-4.06-2.93-6.55-2.66     c-2.49,0.26-4.68,1.75-5.85,3.96l-10.27,19.53l-10.06-9.99L225.186,124.601z" fill="#cccccc"/><path d="M164.626,268.792l67.24,116.47H20.736l69.93-121.12l3.59,10.95c0.76,2.31,2.59,4.11,4.92,4.83     c2.32,0.71,4.85,0.26,6.78-1.22l13.75-10.58l16.38,19.9c1.4,1.69,3.47,2.69,5.67,2.73c0.04,0,0.08,0,0.12,0     c2.15,0,4.2-0.92,5.63-2.54L164.626,268.792z" fill="#999999"/><path d="M126.306,202.421l30.41,52.67l-14.64,16.6l-15.41-18.71c-2.57-3.12-7.15-3.64-10.36-1.17     l-11.1,8.54l-4.47-13.64L126.306,202.421z" fill="#cccccc"/><path d="M93.886,62.761c28.12,0,50.99,22.88,50.99,51s-22.87,51-50.99,51s-51-22.88-51-51     S65.766,62.761,93.886,62.761z M129.876,113.761c0-19.85-16.14-36-35.99-36s-36,16.15-36,36s16.15,36,36,36     S129.876,133.611,129.876,113.761z" fill="#4d4d4d"/><path d="M93.886,77.761c19.85,0,35.99,16.15,35.99,36s-16.14,36-35.99,36s-36-16.15-36-36     S74.036,77.761,93.886,77.761z" fill="#e0c732"/></g><g transform="matrix(0.08479929823450746 0.0105999120742257 -0.0105999120742257 0.08479929823450746 28.56102225592653 294.8890263595561)" id="L1_8"><path d="M412.475,167.603l11.97,4.59c-25.98,49.22-66.71,89.95-115.93,115.93l-4.59-11.96    c28.98-16.57,54.69-37.8,76.51-63.17c2.7-3.14,2.34-7.88-0.8-10.58c-3.14-2.7-7.88-2.34-10.58,0.8    c-20.19,23.49-43.91,43.21-70.58,58.76l-25.94-67.57c-0.38-0.98-0.95-1.87-1.7-2.62l-59.39-59.39l57.27-57.27l59.4,59.39    c0.74,0.74,1.63,1.32,2.61,1.7l67.57,25.94c-2.23,3.83-4.55,7.61-6.94,11.3c-2.26,3.48-1.27,8.12,2.2,10.38    c1.26,0.82,2.68,1.21,4.08,1.21c2.45,0,4.86-1.21,6.3-3.42C406.895,177.053,409.755,172.353,412.475,167.603z" fill="#b3b3b3"/><path d="M337.895,92.923c1.29,1.29,1.29,3.4,0,4.69l-12.74,12.74l-37.12-37.13l12.73-12.73    c0.85-0.85,1.84-0.97,2.35-0.97c0.51,0,1.5,0.12,2.35,0.97L337.895,92.923z" fill="#e29e30"/><path d="M246.675,188.833l-192.24,192.24c-2.76,2.76-7.24,2.76-10,0l-27.12-27.12    c-2.76-2.76-2.76-7.25,0-10l9.5-9.51c2.08-2.07,4.52-3.63,7.29-4.64c2.73-1.01,5.61-1.4,8.53-1.15    c10.29,0.86,20.39-2.83,27.69-10.14l84.11-84.11c3.8-3.8,6.77-8.25,8.82-13.22c2.07-4.97,3.12-10.22,3.12-15.61    c0-6.89,2.69-13.37,7.55-18.24l35.62-35.62L246.675,188.833z" fill="#e29e30"/><path d="M441.885,165.433c0.77,1.96,0.68,4.15-0.24,6.04c-28.38,57.93-75.92,105.47-133.84,133.84    c-1.04,0.51-2.17,0.77-3.3,0.77c-0.93,0-1.86-0.17-2.75-0.52c-1.96-0.77-3.5-2.33-4.26-4.29l-38.39-100.01l-1.83-1.82    l-192.23,192.24c-4.31,4.3-9.96,6.45-15.61,6.45s-11.3-2.15-15.61-6.45l-27.12-27.13c-8.61-8.6-8.61-22.6,0-31.21l9.5-9.5    c3.59-3.59,7.99-6.4,12.74-8.13c4.78-1.76,9.81-2.44,14.94-2.01c5.89,0.49,11.66-1.62,15.84-5.8l84.1-84.1    c2.4-2.4,4.28-5.22,5.58-8.36c1.31-3.15,1.97-6.47,1.97-9.87c0.01-10.91,4.25-21.15,11.95-28.85l35.62-35.62l-3.41-3.41    c-1.41-1.4-2.2-3.31-2.2-5.3s0.79-3.9,2.2-5.3l67.88-67.88c2.93-2.93,7.68-2.93,10.6,0l3.41,3.41l12.74-12.74    c3.46-3.46,8.06-5.36,12.95-5.36c4.89,0,9.5,1.9,12.96,5.36l32.42,32.43c7.15,7.14,7.15,18.77,0,25.91l-12.73,12.73l1.82,1.83    l100.01,38.39C439.555,161.933,441.115,163.473,441.885,165.433z M424.445,172.193l-11.97-4.59c-2.72,4.75-5.58,9.45-8.54,14.02    c-1.44,2.21-3.85,3.42-6.3,3.42c-1.4,0-2.82-0.39-4.08-1.21c-3.47-2.26-4.46-6.9-2.2-10.38c2.39-3.69,4.71-7.47,6.94-11.3    l-67.57-25.94c-0.98-0.38-1.87-0.96-2.61-1.7l-59.4-59.39l-57.27,57.27l59.39,59.39c0.75,0.75,1.32,1.64,1.7,2.62l25.94,67.57    c26.67-15.55,50.39-35.27,70.58-58.76c2.7-3.14,7.44-3.5,10.58-0.8c3.14,2.7,3.5,7.44,0.8,10.58    c-21.82,25.37-47.53,46.6-76.51,63.17l4.59,11.96C357.735,262.143,398.465,221.413,424.445,172.193z M337.895,97.613    c1.29-1.29,1.29-3.4,0-4.69l-32.43-32.43c-0.85-0.85-1.84-0.97-2.35-0.97c-0.51,0-1.5,0.12-2.35,0.97l-12.73,12.73l37.12,37.13    L337.895,97.613z M54.435,381.073l192.24-192.24l-37.13-37.12l-35.62,35.62c-4.86,4.87-7.55,11.35-7.55,18.24    c0,5.39-1.05,10.64-3.12,15.61c-2.05,4.97-5.02,9.42-8.82,13.22l-84.11,84.11c-7.3,7.31-17.4,11-27.69,10.14    c-2.92-0.25-5.8,0.14-8.53,1.15c-2.77,1.01-5.21,2.57-7.29,4.64l-9.5,9.51c-2.76,2.75-2.76,7.24,0,10l27.12,27.12    C47.195,383.833,51.675,383.833,54.435,381.073z" fill="#4d4d4d"/></g><g transform="matrix(0.14656033338000962 0.027267038471992248 -0.027267038471992248 0.14656033338000962 27.617387854471193 155.53313689842136)" id="L1_9"><path d="M228.811,276.817 274.771,398.747 228.811,398.747z" fill="#2e7249"/><path d="M213.811,64.357v334.39h-27.7v-32.83c0-4.14-3.36-7.5-7.5-7.5s-7.5,3.36-7.5,7.5v32.83h-13v-12.83    c0-4.14-3.36-7.5-7.5-7.5s-7.5,3.36-7.5,7.5v12.83h-27v-52.83c0-4.14-3.36-7.5-7.5-7.5s-7.5,3.36-7.5,7.5v52.83h-9v-12.83    c0-4.14-3.36-7.5-7.5-7.5s-7.5,3.36-7.5,7.5v12.83h-22.57v-58.54L213.811,64.357z" fill="#6dcc93"/><path d="M388.081,340.217v58.53h-27.97v-12.83c0-4.14-3.36-7.5-7.5-7.5c-4.14,0-7.5,3.36-7.5,7.5v12.83h-27    v-32.83c0-4.14-3.36-7.5-7.5-7.5c-4.14,0-7.5,3.36-7.5,7.5v32.83h-12.31l-61.99-164.46V64.357L388.081,340.217z" fill="#6dcc93"/><path d="M441.361,402.507c2.07,3.58,0.84,8.17-2.75,10.24c-1.18,0.68-2.47,1.01-3.74,1.01    c-2.59,0-5.11-1.35-6.5-3.75l-25.29-43.8v40.04c0,4.14-3.36,7.5-7.5,7.5H47.041c-4.14,0-7.5-3.36-7.5-7.5v-40.06l-25.29,43.82    c-2.08,3.58-6.66,4.81-10.25,2.74c-3.59-2.07-4.82-6.66-2.75-10.24l213.56-369.89c1.34-2.33,3.82-3.75,6.5-3.75    c2.68,0,5.15,1.42,6.49,3.75L441.361,402.507z M388.081,398.747v-58.53l-159.27-275.86v169.93l61.99,164.46h12.31v-32.83    c0-4.14,3.36-7.5,7.5-7.5c4.14,0,7.5,3.36,7.5,7.5v32.83h27v-12.83c0-4.14,3.36-7.5,7.5-7.5c4.14,0,7.5,3.36,7.5,7.5v12.83    H388.081z M274.771,398.747l-45.96-121.93v121.93H274.771z M213.811,398.747V64.357l-159.27,275.85v58.54h22.57v-12.83    c0-4.14,3.36-7.5,7.5-7.5s7.5,3.36,7.5,7.5v12.83h9v-52.83c0-4.14,3.36-7.5,7.5-7.5s7.5,3.36,7.5,7.5v52.83h27v-12.83    c0-4.14,3.36-7.5,7.5-7.5s7.5,3.36,7.5,7.5v12.83h13v-32.83c0-4.14,3.36-7.5,7.5-7.5s7.5,3.36,7.5,7.5v32.83H213.811z" fill="#4d4d4d"/></g><g transform="matrix(0.1050817661585815 0.056582491098754246 -0.056582491098754246 0.1050817661585815 292.6272706673559 291.48556332743425)" id="L1_10"><path d="M152.578,48.147c7.85,26.45,15.31,51.54-14.36,80.93c-0.89-2.43-1.85-4.91-2.83-7.45     c-10.49-27.19-23.31-60.43,11.33-96.95C147.898,32.377,150.198,40.137,152.578,48.147z" fill="#ea6081"/><path d="M295.878,169.127c11.01,22.45,15.51,45.49,13.38,68.47c-3.54,38.26-29.31,51.64-43.03,56.08     c0.27-24.5-10.78-36.13-20.67-46.53c-9.06-9.54-16.88-17.77-17.78-35.97c-0.1-2.1-1.14-4.03-2.82-5.28     c-1.69-1.25-3.84-1.68-5.87-1.17c-39.22,9.8-54.62,34.54-60.64,53.56c-4.11,13.02-4.2,24.49-3.55,31.82     c0.29,3.24,0.78,6.3,1.44,9.09c-17.27-3.91-37.73-17.55-38.5-51.37c-0.74-32.95,15.07-48.01,35.1-67.07     c23.3-22.18,49.51-47.14,52.71-105.37c11.61,7.35,31.65,21.27,50.96,40.54C273.738,133.017,286.948,150.917,295.878,169.127z" fill="#ea6081"/><path d="M234.858,326.997v2.43c-8.41,1.79-16.09,6.5-21.45,13.51c-5.36-7.01-13.05-11.72-21.46-13.51     v-2.43c0-11.83,9.63-21.46,21.46-21.46c5.73,0,11.11,2.24,15.17,6.29C232.628,315.877,234.858,321.267,234.858,326.997z" fill="#cc8927"/><path d="M250.688,345.307l32.36,13.61c-6.4,3.84-11.67,9.67-14.78,17.06c-3.11,7.39-3.58,15.23-1.86,22.49     l-32.36-13.61c-2.64-1.11-4.98-2.7-6.94-4.68c-1.96-1.98-3.52-4.34-4.61-6.99c-1.05-2.59-1.57-5.29-1.59-8     c0-0.14,0.01-0.29,0-0.43c0.05-2.71,0.6-5.42,1.68-7.99C227.178,345.857,239.778,340.717,250.688,345.307z" fill="#e29e30"/><path d="M321.738,381.997c2.16,5.31,2.13,11.14-0.09,16.43c-4.59,10.9-17.19,16.04-28.09,11.45     c-8.2-3.44-13.14-11.41-13.14-19.79c0-2.78,0.54-5.59,1.68-8.3c4.58-10.9,17.19-16.04,28.09-11.46     C315.468,372.547,319.568,376.697,321.738,381.997z" fill="#eabd7d"/><path d="M144.718,381.787c4.58,10.91-0.56,23.51-11.46,28.09c-2.71,1.14-5.53,1.68-8.3,1.68     c-8.38,0-16.35-4.94-19.8-13.13c-2.22-5.29-2.25-11.12-0.08-16.43c2.16-5.3,6.26-9.45,11.54-11.67     C127.528,365.747,140.128,370.887,144.718,381.787z" fill="#eabd7d"/><path d="M205.898,364.757c0,0.14,0,0.29,0,0.43c-0.01,2.71-0.54,5.41-1.59,8     c-2.16,5.3-6.27,9.45-11.55,11.67l-32.36,13.61c1.72-7.26,1.25-15.1-1.86-22.49c-3.1-7.39-8.38-13.22-14.77-17.06l32.36-13.61     c2.71-1.14,5.52-1.68,8.29-1.68c8.38,0,16.35,4.94,19.8,13.14C205.298,359.337,205.858,362.047,205.898,364.757z" fill="#e29e30"/><path d="M335.628,376.337c3.68,9.02,3.62,18.92-0.15,27.9c-5.86,13.93-19.42,22.32-33.66,22.32     c-2.35,0-4.72-0.23-7.08-0.7c-2.35-0.47-4.7-1.18-7-2.15l-59.5-25.02c-5.96-2.51-11.02-6.46-14.83-11.46     c-1.91,2.5-4.13,4.74-6.62,6.66c-2.48,1.93-5.24,3.55-8.21,4.8l-59.5,25.02h-0.01c0,0-9.38,2.85-14.08,2.85     c-14.24,0-27.8-8.39-33.65-22.32c-3.78-8.98-3.83-18.88-0.15-27.9c3.67-9.02,10.64-16.06,19.62-19.84l59.5-25.02     c2.19-0.92,4.41-1.6,6.64-2.07v-2.41c0-20.1,16.36-36.46,36.46-36.46c9.73,0,18.89,3.8,25.78,10.69     c6.88,6.88,10.67,16.03,10.67,25.77v2.41c2.24,0.47,4.46,1.15,6.64,2.07l59.5,25.02     C324.978,360.277,331.948,367.317,335.628,376.337z M321.648,398.427c2.22-5.29,2.25-11.12,0.09-16.43     c-2.17-5.3-6.27-9.45-11.55-11.67c-10.9-4.58-23.51,0.56-28.09,11.46c-1.14,2.71-1.68,5.52-1.68,8.3     c0,8.38,4.94,16.35,13.14,19.79C304.458,414.467,317.058,409.327,321.648,398.427z M283.048,358.917l-32.36-13.61     c-10.91-4.59-23.51,0.55-28.1,11.46c-1.08,2.57-1.63,5.28-1.68,7.99c0.01,0.14,0,0.29,0,0.43c0.02,2.71,0.54,5.41,1.59,8     c1.09,2.65,2.65,5.01,4.61,6.99c1.96,1.98,4.3,3.57,6.94,4.68l32.36,13.61c-1.72-7.26-1.25-15.1,1.86-22.49     C271.378,368.587,276.648,362.757,283.048,358.917z M234.858,329.427v-2.43c0-5.73-2.23-11.12-6.28-15.17     c-4.06-4.05-9.44-6.29-15.17-6.29c-11.83,0-21.46,9.63-21.46,21.46v2.43c8.41,1.79,16.1,6.5,21.46,13.51     C218.768,335.927,226.448,331.217,234.858,329.427z M205.898,365.187c0-0.14,0-0.29,0-0.43c-0.04-2.71-0.6-5.42-1.68-7.99     c-3.45-8.2-11.42-13.14-19.8-13.14c-2.77,0-5.58,0.54-8.29,1.68l-32.36,13.61c6.39,3.84,11.67,9.67,14.77,17.06     c3.11,7.39,3.58,15.23,1.86,22.49l32.36-13.61c5.28-2.22,9.39-6.37,11.55-11.67C205.358,370.597,205.888,367.897,205.898,365.187     z M133.258,409.877c10.9-4.58,16.04-17.18,11.46-28.09c-4.59-10.9-17.19-16.04-28.1-11.46c-5.28,2.22-9.38,6.37-11.54,11.67     c-2.17,5.31-2.14,11.14,0.08,16.43c3.45,8.19,11.42,13.13,19.8,13.13C127.728,411.557,130.548,411.017,133.258,409.877z" fill="#4d4d4d"/><path d="M266.238,105.757c41.5,41.31,61.2,87.34,56.96,133.13c-3.02,32.71-20.15,50.24-33.98,59.17     c-14.91,9.63-29.13,11.5-29.73,11.57c-2.14,0.27-4.28-0.46-5.8-1.98c-1.53-1.51-2.27-3.65-2.02-5.78     c2.94-24.88-5.96-34.24-16.25-45.08c-8.32-8.75-17.6-18.52-20.67-36.2c-27.26,9.28-38.42,27.59-42.95,41.92     c-6.31,19.95-1.85,37.2,0.91,40.39c1.79,2.07,2.21,4.99,1.07,7.49c-1.14,2.49-3.62,4.09-6.36,4.09     c-29.89,0-62.54-20.76-63.57-66.33c-0.89-39.14,18.7-57.79,39.44-77.53c23.93-22.79,48.68-46.35,48.68-107.37     c0-2.46,1.29-4.74,3.41-6.01c2.11-1.26,4.73-1.32,6.9-0.16C203.618,57.797,235.318,74.987,266.238,105.757z M309.258,237.597     c2.13-22.98-2.37-46.02-13.38-68.47c-8.93-18.21-22.14-36.11-39.27-53.2c-19.31-19.27-39.35-33.19-50.96-40.54     c-3.2,58.23-29.41,83.19-52.71,105.37c-20.03,19.06-35.84,34.12-35.1,67.07c0.77,33.82,21.23,47.46,38.5,51.37     c-0.66-2.79-1.15-5.85-1.44-9.09c-0.65-7.33-0.56-18.8,3.55-31.82c6.02-19.02,21.42-43.76,60.64-53.56     c2.03-0.51,4.18-0.08,5.87,1.17c1.68,1.25,2.72,3.18,2.82,5.28c0.9,18.2,8.72,26.43,17.78,35.97     c9.89,10.4,20.94,22.03,20.67,46.53C279.948,289.237,305.718,275.857,309.258,237.597z" fill="#4d4d4d"/><path d="M166.958,43.877c8.64,29.08,19.38,65.27-27.52,104.31c-1.37,1.13-3.07,1.73-4.8,1.73     c-0.78,0-1.56-0.12-2.32-0.37c-2.45-0.8-4.32-2.8-4.95-5.3c-1.26-4.98-3.55-10.93-5.98-17.22     c-11.86-30.77-29.79-77.25,27.74-125.05c2.4-1.99,5.78-2.29,8.5-0.75c2.71,1.55,4.18,4.61,3.7,7.69     C159.678,19.357,163.218,31.267,166.958,43.877z M138.218,129.077c29.67-29.39,22.21-54.48,14.36-80.93     c-2.38-8.01-4.68-15.77-5.86-23.47c-34.64,36.52-21.82,69.76-11.33,96.95C136.368,124.167,137.328,126.647,138.218,129.077z" fill="#4d4d4d"/></g><g transform="matrix(0.06596590469357821 -0.054971590009981496 0.054971590009981496 0.06596590469357821 271.50698900460964 197.8471006329021)" id="L1_22"><path d="M318.134,371.51 297.124,371.51 204.604,278.99 215.104,268.49z" fill="#c6862a"/><path d="M105.154,158.52 183.384,236.76 172.874,247.27 84.114,158.52z" fill="#c6862a"/><path d="M303.864,158.52 90.864,371.51 69.844,371.51 282.844,158.52z" fill="#e29e30"/><rect x="15px" y="113px" width="357px" height="30px" fill="#b3b3b3"/><path d="M338.704,81.07 328.304,98.32 225.244,98.32 214.834,81.07z" fill="#45a1db"/><rect x="59px" y="16px" width="61px" height="81px" fill="#45a1db"/><path d="M387.734,105.82v45.2c0,4.14-3.36,7.5-7.5,7.5h-55.16l-99.36,99.36l115.83,115.83    c2.14,2.14,2.79,5.37,1.62,8.17c-1.16,2.81-3.89,4.63-6.92,4.63h-42.23c-1.99,0-3.9-0.79-5.3-2.19l-94.72-94.72l-94.72,94.72    c-1.4,1.4-3.31,2.19-5.3,2.19h-42.24c-3.03,0-5.77-1.82-6.93-4.63c-1.16-2.8-0.52-6.03,1.63-8.17l115.83-115.83l-99.36-99.36    H7.754c-4.15,0-7.5-3.36-7.5-7.5v-45.2c0-4.14,3.35-7.5,7.5-7.5h36.46v-7.29c-16.37-3.03-28.82-17.4-28.82-34.64V42.1    c0-10.44,8.5-18.93,18.93-18.93h9.89V8.97c0-4.14,3.36-7.5,7.5-7.5h76.37c4.14,0,7.5,3.36,7.5,7.5v89.35h72.14l-12.59-20.88    c-1.4-2.32-1.44-5.21-0.11-7.56c1.33-2.36,3.82-3.81,6.53-3.81h150.44c2.7,0,5.2,1.45,6.53,3.81c1.33,2.35,1.29,5.24-0.11,7.56    l-12.6,20.88h34.42C384.374,98.32,387.734,101.68,387.734,105.82z M372.734,143.52v-30.2H15.254v30.2H372.734z M328.304,98.32    l10.4-17.25h-123.87l10.41,17.25H328.304z M297.124,371.51h21.01l-103.03-103.02l-10.5,10.5L297.124,371.51z M90.864,371.51    l213-212.99h-21.02l-213,212.99H90.864z M193.994,226.15l67.63-67.63h-135.26L193.994,226.15z M183.384,236.76l-78.23-78.24    h-21.04l88.76,88.75L183.384,236.76z M120.584,98.32V16.47h-61.37v81.85H120.584z M44.214,75.58V38.17h-9.89    c-2.16,0-3.93,1.76-3.93,3.93v14.29C30.394,65.3,36.194,72.89,44.214,75.58z" fill="#4d4d4d"/></g><g transform="matrix(0.13246026635169983 0 0 0.13246026635169983 15.000001697793948 44.99999718651287)" id="L1_13"><path d="M85.885,153.822v14.67h-14.67C73.545,161.612,79.005,156.162,85.885,153.822z" fill="#999999"/><rect x="188px" y="241px" width="10px" height="10px" fill="#999999"/><rect x="254px" y="241px" width="10px" height="10px" fill="#999999"/><path d="M381.755,168.492h-14.67v-14.67C373.965,156.162,379.415,161.612,381.755,168.492z" fill="#999999"/><path d="M414.055,175.992v114.27c0,24.86-20.22,45.08-45.08,45.08h-1.89v5.75c0,6.6-1.96,12.75-5.32,17.91     h6.94c10.97,0,19.89,8.92,19.89,19.89v43.31c0,10.97-8.92,19.89-19.89,19.89h-56.92v3.12c0,4.15-3.36,7.5-7.5,7.5     c-4.14,0-7.5-3.35-7.5-7.5v-3.12h-140.6v3.12c0,4.15-3.36,7.5-7.5,7.5s-7.5-3.35-7.5-7.5v-3.12h-56.92     c-10.97,0-19.89-8.92-19.89-19.89v-43.31c0-10.97,8.92-19.89,19.89-19.89h6.94c-3.36-5.16-5.32-11.31-5.32-17.91v-5.75h-1.89     c-24.86,0-45.09-20.22-45.09-45.08v-114.27c0-4.14,3.36-7.5,7.5-7.5h9.32c3.01-15.17,14.99-27.14,30.16-30.16v-33.05     c0-41,33.35-74.35,74.35-74.35h25v-3.89c0-14.77,12.02-26.79,26.79-26.79h28.92c14.77,0,26.79,12.02,26.79,26.79v3.89h25     c41,0,74.35,33.35,74.35,74.35v33.05c15.17,3.02,27.14,14.99,30.16,30.16h9.31C410.695,168.492,414.055,171.852,414.055,175.992z      M399.055,290.262v-65.63h-31.97v95.71h1.89C385.565,320.342,399.055,306.852,399.055,290.262z M399.055,209.632v-26.14h-31.97     v26.14H399.055z M367.085,168.492h14.67c-2.34-6.88-7.79-12.33-14.67-14.67V168.492z M373.595,422.202v-43.31     c0-2.7-2.19-4.89-4.89-4.89h-56.92v53.09h56.92C371.405,427.092,373.595,424.902,373.595,422.202z M352.085,341.092v-235.81     c0-32.72-26.62-59.35-59.35-59.35h-132.5c-32.73,0-59.35,26.63-59.35,59.35v235.81c0,9.88,8.03,17.91,17.91,17.91h22.39v-14.39     c0-4.15,3.36-7.5,7.5-7.5s7.5,3.35,7.5,7.5v14.39h140.6v-14.39c0-4.15,3.36-7.5,7.5-7.5c4.14,0,7.5,3.35,7.5,7.5v14.39h22.39     C344.055,359.002,352.085,350.972,352.085,341.092z M296.785,427.092v-53.09h-140.6v53.09H296.785z M252.735,30.932v-3.89     c0-6.5-5.29-11.79-11.79-11.79h-28.92c-6.5,0-11.79,5.29-11.79,11.79v3.89H252.735z M141.185,427.092v-53.09h-56.92     c-2.7,0-4.89,2.19-4.89,4.89v43.31c0,2.7,2.19,4.89,4.89,4.89H141.185z M85.885,320.342v-95.71h-31.98v65.63     c0,16.59,13.5,30.08,30.09,30.08H85.885z M85.885,209.632v-26.14h-31.98v26.14H85.885z M85.885,168.492v-14.67     c-6.88,2.34-12.34,7.79-14.67,14.67H85.885z" fill="#4d4d4d"/><path d="M399.055,224.632v65.63c0,16.59-13.49,30.08-30.08,30.08h-1.89v-95.71H399.055z" fill="#45a1db"/><rect x="367px" y="183px" width="31px" height="26px" fill="#61b9e5"/><path d="M373.595,378.892v43.31c0,2.7-2.19,4.89-4.89,4.89h-56.92v-53.09h56.92     C371.405,374.002,373.595,376.192,373.595,378.892z" fill="#ea6081"/><path d="M352.085,105.282v235.81c0,9.88-8.03,17.91-17.91,17.91h-22.39v-14.39c0-4.15-3.36-7.5-7.5-7.5     c-4.14,0-7.5,3.35-7.5,7.5v14.39h-140.6v-14.39c0-4.15-3.36-7.5-7.5-7.5s-7.5,3.35-7.5,7.5v14.39h-22.39     c-9.88,0-17.91-8.03-17.91-17.91v-235.81c0-32.72,26.62-59.35,59.35-59.35h132.5C325.465,45.932,352.085,72.562,352.085,105.282z      M343.085,206.422v-60.66c0-4.14-3.36-7.5-7.5-7.5c-4.14,0-7.5,3.36-7.5,7.5v60.66c0,4.15,3.36,7.5,7.5,7.5     C339.725,213.922,343.085,210.572,343.085,206.422z M343.085,119.092v-13.81c0-27.76-22.59-50.35-50.35-50.35h-132.5     c-27.77,0-50.35,22.59-50.35,50.35v101.14c0,4.15,3.35,7.5,7.5,7.5c4.14,0,7.5-3.35,7.5-7.5v-101.14     c0-19.49,15.85-35.35,35.35-35.35h132.5c19.49,0,35.35,15.86,35.35,35.35v13.81c0,4.14,3.36,7.5,7.5,7.5     C339.725,126.592,343.085,123.232,343.085,119.092z M318.045,198.632v-46.87c0-4.14-3.35-7.5-7.5-7.5h-168.13     c-4.14,0-7.5,3.36-7.5,7.5v46.87c0,4.14,3.36,7.5,7.5,7.5h3.46v76.63c0,16.64,13.53,30.18,30.17,30.18h9.77v12.79     c0,4.14,3.36,7.5,7.5,7.5s7.5-3.36,7.5-7.5v-12.79h51.33v12.79c0,4.14,3.36,7.5,7.5,7.5c4.15,0,7.5-3.36,7.5-7.5v-12.79h9.77     c16.64,0,30.18-13.54,30.18-30.18v-76.63h3.45C314.695,206.132,318.045,202.772,318.045,198.632z" fill="#45a1db"/><path d="M343.085,145.762v60.66c0,4.15-3.36,7.5-7.5,7.5c-4.14,0-7.5-3.35-7.5-7.5v-60.66     c0-4.14,3.36-7.5,7.5-7.5C339.725,138.262,343.085,141.622,343.085,145.762z" fill="#4d4d4d"/><path d="M343.085,105.282v13.81c0,4.14-3.36,7.5-7.5,7.5c-4.14,0-7.5-3.36-7.5-7.5v-13.81     c0-19.49-15.86-35.35-35.35-35.35h-132.5c-19.5,0-35.35,15.86-35.35,35.35v101.14c0,4.15-3.36,7.5-7.5,7.5     c-4.15,0-7.5-3.35-7.5-7.5v-101.14c0-27.76,22.58-50.35,50.35-50.35h132.5C320.495,54.932,343.085,77.522,343.085,105.282z" fill="#4d4d4d"/><path d="M318.045,151.762v46.87c0,4.14-3.35,7.5-7.5,7.5h-3.45v76.63c0,16.64-13.54,30.18-30.18,30.18     h-9.77v12.79c0,4.14-3.35,7.5-7.5,7.5c-4.14,0-7.5-3.36-7.5-7.5v-12.79h-51.33v12.79c0,4.14-3.36,7.5-7.5,7.5s-7.5-3.36-7.5-7.5     v-12.79h-9.77c-16.64,0-30.17-13.54-30.17-30.18v-76.63h-3.46c-4.14,0-7.5-3.36-7.5-7.5v-46.87c0-4.14,3.36-7.5,7.5-7.5h168.13     C314.695,144.262,318.045,147.622,318.045,151.762z M303.045,191.132v-31.87h-153.13v31.87H303.045z M292.095,282.762v-76.63     h-24.95v20.83h5c4.15,0,7.5,3.36,7.5,7.5v25c0,4.14-3.35,7.5-7.5,7.5h-5v30.98h9.77     C285.285,297.942,292.095,291.132,292.095,282.762z M264.645,251.962v-10h-10v10H264.645z M252.145,297.942v-30.98h-5     c-4.14,0-7.5-3.36-7.5-7.5v-25c0-4.14,3.36-7.5,7.5-7.5h5v-20.83h-51.33v20.83h5c4.14,0,7.5,3.36,7.5,7.5v25     c0,4.14-3.36,7.5-7.5,7.5h-5v30.98H252.145z M198.315,251.962v-10h-10v10H198.315z M185.815,297.942v-30.98h-5     c-4.14,0-7.5-3.36-7.5-7.5v-25c0-4.14,3.36-7.5,7.5-7.5h5v-20.83h-24.94v76.63c0,8.37,6.8,15.18,15.17,15.18H185.815z" fill="#4d4d4d"/><rect x="149px" y="159px" width="153px" height="31px" fill="#61b9e5"/><rect x="156px" y="374px" width="140px" height="53px" fill="#ea6081"/><path d="M292.095,206.132v76.63c0,8.37-6.81,15.18-15.18,15.18h-9.77v-30.98h5c4.15,0,7.5-3.36,7.5-7.5     v-25c0-4.14-3.35-7.5-7.5-7.5h-5v-20.83H292.095z" fill="#61b9e5"/><path d="M252.145,266.962v30.98h-51.33v-30.98h5c4.14,0,7.5-3.36,7.5-7.5v-25c0-4.14-3.36-7.5-7.5-7.5h-5     v-20.83h51.33v20.83h-5c-4.14,0-7.5,3.36-7.5,7.5v25c0,4.14,3.36,7.5,7.5,7.5H252.145z" fill="#61b9e5"/><path d="M185.815,266.962v30.98h-9.77c-8.37,0-15.17-6.81-15.17-15.18v-76.63h24.94v20.83h-5     c-4.14,0-7.5,3.36-7.5,7.5v25c0,4.14,3.36,7.5,7.5,7.5H185.815z" fill="#61b9e5"/><path d="M141.185,374.002v53.09h-56.92c-2.7,0-4.89-2.19-4.89-4.89v-43.31c0-2.7,2.19-4.89,4.89-4.89     H141.185z" fill="#ea6081"/><path d="M85.885,224.632v95.71h-1.89c-16.59,0-30.09-13.49-30.09-30.08v-65.63H85.885z" fill="#45a1db"/><rect x="53px" y="183px" width="31px" height="26px" fill="#61b9e5"/></g><g transform="matrix(0.08073237538337708 0 0 0.08073237538337708 106.0128696887241 88.00350485432773)" id="L1_14"><path d="M350.862,196.147c19.07,26.63,29.44,58.7,29.44,91.7c0,86.85-70.65,157.5-157.5,157.5     s-157.51-70.65-157.51-157.5c0-32.99,10.38-65.07,29.44-91.7c-8.94-3.33-15.32-11.95-15.32-22.03c0-12.96,10.54-23.5,23.5-23.5     h26.38v-82.78c0-24.94,18.63-45.6,42.7-48.83c2.97-10.8,12.86-18.76,24.59-18.76h46.35c11.73,0,21.62,7.96,24.59,18.76     c24.07,3.23,42.69,23.89,42.69,48.83v82.78h32.47c12.96,0,23.5,10.54,23.5,23.5C366.182,184.197,359.802,192.817,350.862,196.147     z M365.302,287.847c0-32.92-11.41-64.82-32.2-90.23h-220.61c-20.79,25.41-32.2,57.31-32.2,90.23     c0,78.57,63.93,142.5,142.51,142.5S365.302,366.417,365.302,287.847z M351.182,174.117c0-4.69-3.81-8.5-8.5-8.5h-39.91     c-0.02,0-0.04,0-0.06,0h-165.92c-0.02,0-0.04,0-0.06,0h-33.82c-4.69,0-8.5,3.81-8.5,8.5s3.81,8.5,8.5,8.5h239.77     C347.372,182.617,351.182,178.807,351.182,174.117z M295.212,150.617v-82.78c0-16.83-12.18-30.85-28.19-33.74     c-3.47,9.97-12.95,17.15-24.09,17.15h-46.35c-11.14,0-20.62-7.17-24.09-17.14c-16.01,2.88-28.2,16.91-28.2,33.73v82.78H295.212z      M253.432,25.747c0-5.79-4.71-10.5-10.5-10.5h-46.35c-5.79,0-10.5,4.71-10.5,10.5s4.71,10.5,10.5,10.5h46.35     C248.722,36.247,253.432,31.537,253.432,25.747z" fill="#4d4d4d"/><path d="M333.102,197.617c20.79,25.41,32.2,57.31,32.2,90.23c0,78.57-63.92,142.5-142.5,142.5     s-142.51-63.93-142.51-142.5c0-32.92,11.41-64.82,32.2-90.23H333.102z M353.302,287.847c0-4.14-3.36-7.5-7.5-7.5     s-7.5,3.36-7.5,7.5c0,63.69-51.81,115.5-115.5,115.5c-4.14,0-7.5,3.36-7.5,7.5c0,4.14,3.36,7.5,7.5,7.5     C294.762,418.347,353.302,359.807,353.302,287.847z M342.072,256.877c3.94-1.29,6.09-5.52,4.81-9.46     c-2.67-8.21-6.18-16.18-10.42-23.7c-2.03-3.61-6.6-4.88-10.21-2.85c-3.61,2.04-4.89,6.61-2.85,10.22     c3.75,6.65,6.85,13.71,9.22,20.98c1.03,3.16,3.97,5.18,7.13,5.18C340.522,257.247,341.302,257.127,342.072,256.877z" fill="#e6e6e6"/><path d="M345.802,280.347c4.14,0,7.5,3.36,7.5,7.5c0,71.96-58.54,130.5-130.5,130.5     c-4.14,0-7.5-3.36-7.5-7.5c0-4.14,3.36-7.5,7.5-7.5c63.69,0,115.5-51.81,115.5-115.5     C338.302,283.707,341.661,280.347,345.802,280.347z" fill="#4d4d4d"/><path d="M342.682,165.617c4.69,0,8.5,3.81,8.5,8.5s-3.81,8.5-8.5,8.5h-239.77c-4.69,0-8.5-3.81-8.5-8.5     s3.81-8.5,8.5-8.5h33.82c0.02,0,0.04,0,0.06,0h165.92c0.02,0,0.04,0,0.06,0H342.682z" fill="#b3b3b3"/><path d="M346.882,247.417c1.28,3.94-0.87,8.17-4.81,9.46c-0.77,0.25-1.55,0.37-2.32,0.37     c-3.16,0-6.1-2.02-7.13-5.18c-2.37-7.27-5.47-14.33-9.22-20.98c-2.04-3.61-0.76-8.18,2.85-10.22c3.61-2.03,8.18-0.76,10.21,2.85     C340.702,231.237,344.212,239.207,346.882,247.417z" fill="#4d4d4d"/><path d="M242.932,15.247c5.79,0,10.5,4.71,10.5,10.5s-4.71,10.5-10.5,10.5h-46.35     c-5.79,0-10.5-4.71-10.5-10.5s4.71-10.5,10.5-10.5H242.932z" fill="#e29e30"/></g><g transform="matrix(0.16211916068586413 0.03954125772663694 -0.03954125772663694 0.16211916068586413 139.70135204543286 -36.97259693256975)" id="L1_15"><path d="M396.235,100.75v247.48c0,4.15-3.36,7.5-7.5,7.5H7.745c-4.14,0-7.5-3.35-7.5-7.5V100.75     c0-4.15,3.36-7.5,7.5-7.5h23.57v-28.5c0-4.14,3.36-7.5,7.5-7.5h30c4.14,0,7.5,3.36,7.5,7.5v28.5h42.54l10.46-46.64     c0.77-3.43,3.81-5.86,7.32-5.86h123.21c3.51,0,6.55,2.43,7.32,5.86l10.46,46.64h16.82v-18.5c0-4.14,3.36-7.5,7.5-7.5h65.62     c4.14,0,7.5,3.36,7.5,7.5v18.5h13.67C392.875,93.25,396.235,96.6,396.235,100.75z M381.235,340.73v-32.99h-126.87     c-16.03,10.85-35.35,17.19-56.12,17.19c-20.78,0-40.1-6.34-56.13-17.19H15.245v32.99H381.235z M381.235,292.74v-129h-103.07     c12.86,16.88,20.51,37.94,20.51,60.75c0,26.33-10.19,50.32-26.82,68.25H381.235z M381.235,148.74v-40.49h-109.61     c-3.51,0-6.55-2.44-7.32-5.86l-10.46-46.64h-111.21l-10.46,46.64c-0.77,3.42-3.81,5.86-7.32,5.86H15.245v40.49h117.12     c17.65-15.37,40.69-24.69,65.88-24.69c25.18,0,48.23,9.32,65.87,24.69H381.235z M360.065,93.25v-11h-50.62v11H360.065z      M283.675,224.49c0-47.11-38.33-85.44-85.43-85.44c-47.11,0-85.44,38.33-85.44,85.44s38.33,85.44,85.44,85.44     C245.345,309.93,283.675,271.6,283.675,224.49z M15.245,292.74h109.38c-16.63-17.93-26.82-41.92-26.82-68.25     c0-22.81,7.65-43.87,20.51-60.75H15.245V292.74z M61.315,93.25v-21h-15v21H61.315z" fill="#4d4d4d"/><path d="M381.235,307.74v32.99H15.245v-32.99h126.87c16.03,10.85,35.35,17.19,56.13,17.19     c20.77,0,40.09-6.34,56.12-17.19H381.235z" fill="#45a1db"/><path d="M381.235,163.74v129h-109.38c16.63-17.93,26.82-41.92,26.82-68.25c0-22.81-7.65-43.87-20.51-60.75     H381.235z" fill="#e29e30"/><path d="M381.235,108.25v40.49h-117.12c-17.64-15.37-40.69-24.69-65.87-24.69     c-25.19,0-48.23,9.32-65.88,24.69H15.245v-40.49h109.61c3.51,0,6.55-2.44,7.32-5.86l10.46-46.64h111.21l10.46,46.64     c0.77,3.42,3.81,5.86,7.32,5.86H381.235z M251.855,105.43c1.43-1.77,1.96-4.1,1.47-6.33l-6.17-27.49     c-0.77-3.43-3.81-5.86-7.32-5.86h-83.19c-3.51,0-6.55,2.43-7.32,5.86l-6.16,27.49c-0.5,2.23,0.04,4.56,1.46,6.33     c1.42,1.78,3.58,2.82,5.85,2.82h95.53C248.275,108.25,250.435,107.21,251.855,105.43z" fill="#45a1db"/><rect x="309px" y="82px" width="50px" height="11px" fill="#b3b3b3"/><path d="M260.475,195.42c4.27,9.14,6.44,18.92,6.44,29.07c0,37.87-30.81,68.67-68.67,68.67     c-37.87,0-68.68-30.8-68.68-68.67s30.81-68.67,68.68-68.67c13.66,0,26.85,4,38.16,11.57c3.44,2.31,4.36,6.96,2.06,10.41     c-2.3,3.44-6.96,4.36-10.4,2.05c-8.83-5.91-19.15-9.03-29.82-9.03c-29.6,0-53.68,24.07-53.68,53.67s24.08,53.67,53.68,53.67     c29.59,0,53.67-24.07,53.67-53.67c0-7.94-1.69-15.58-5.03-22.71c-1.75-3.76-0.13-8.22,3.62-9.97     C254.255,190.05,258.725,191.67,260.475,195.42z" fill="#4d4d4d"/><path d="M198.245,139.05c47.1,0,85.43,38.33,85.43,85.44s-38.33,85.44-85.43,85.44     c-47.11,0-85.44-38.33-85.44-85.44S151.135,139.05,198.245,139.05z M266.915,224.49c0-10.15-2.17-19.93-6.44-29.07     c-1.75-3.75-6.22-5.37-9.97-3.61c-3.75,1.75-5.37,6.21-3.62,9.97c3.34,7.13,5.03,14.77,5.03,22.71     c0,29.6-24.08,53.67-53.67,53.67c-29.6,0-53.68-24.07-53.68-53.67s24.08-53.67,53.68-53.67c10.67,0,20.99,3.12,29.82,9.03     c3.44,2.31,8.1,1.39,10.4-2.05c2.3-3.45,1.38-8.1-2.06-10.41c-11.31-7.57-24.5-11.57-38.16-11.57     c-37.87,0-68.68,30.8-68.68,68.67s30.81,68.67,68.68,68.67C236.105,293.16,266.915,262.36,266.915,224.49z M223.415,224.49     c0-4.14-3.36-7.5-7.5-7.5c-4.15,0-7.5,3.36-7.5,7.5c0,5.61-4.57,10.17-10.17,10.17c-5.61,0-10.17-4.56-10.17-10.17     s4.56-10.17,10.17-10.17c4.14,0,7.5-3.36,7.5-7.5s-3.36-7.5-7.5-7.5c-13.88,0-25.17,11.29-25.17,25.17     c0,13.88,11.29,25.17,25.17,25.17C212.115,249.66,223.415,238.37,223.415,224.49z" fill="#ade3f7"/><path d="M253.325,99.1c0.49,2.23-0.04,4.56-1.47,6.33c-1.42,1.78-3.58,2.82-5.85,2.82h-95.53     c-2.27,0-4.43-1.04-5.85-2.82c-1.42-1.77-1.96-4.1-1.46-6.33l6.16-27.49c0.77-3.43,3.81-5.86,7.32-5.86h83.19     c3.51,0,6.55,2.43,7.32,5.86L253.325,99.1z M236.635,93.25l-2.81-12.5h-71.17l-2.81,12.5H236.635z" fill="#4d4d4d"/><path d="M215.915,216.99c4.14,0,7.5,3.36,7.5,7.5c0,13.88-11.3,25.17-25.17,25.17     c-13.88,0-25.17-11.29-25.17-25.17c0-13.88,11.29-25.17,25.17-25.17c4.14,0,7.5,3.36,7.5,7.5s-3.36,7.5-7.5,7.5     c-5.61,0-10.17,4.56-10.17,10.17s4.56,10.17,10.17,10.17c5.6,0,10.17-4.56,10.17-10.17     C208.415,220.35,211.765,216.99,215.915,216.99z" fill="#4d4d4d"/><path d="M124.625,292.74H15.245v-129h103.07c-12.86,16.88-20.51,37.94-20.51,60.75     C97.805,250.82,107.995,274.81,124.625,292.74z" fill="#e29e30"/><rect x="46px" y="72px" width="15px" height="21px" fill="#b3b3b3"/></g><g transform="matrix(0.1064019086342546 -0.06928496611060588 0.06928496611060588 0.1064019086342546 121.80155943603704 194.2962723966952)" id="L1_16"><path d="M468.753,324.499c0,6.54-2.55,12.69-7.18,17.32c-4.63,4.63-10.78,7.18-17.32,7.18h-25.5v36h2.71     c3.34,0,6.22,2.36,6.87,5.63l4.78,24c0.41,2.06-0.12,4.19-1.45,5.81c-1.33,1.62-3.32,2.56-5.41,2.56h-29     c-2.1,0-4.09-0.94-5.42-2.56c-1.33-1.62-1.86-3.75-1.45-5.81l4.79-24c0.65-3.27,3.52-5.63,6.86-5.63h2.72v-36h-97.5     c-3.02,0-5.7-1.93-6.65-4.79l-0.1-0.3c-0.2-0.61-0.32-1.25-0.35-1.89c-0.5-11.19-3.11-21.99-7.75-32.1     c-14.16-30.93-45.23-50.92-79.15-50.92c-33.93,0-65,19.99-79.16,50.91c-4.63,10.12-7.24,20.92-7.75,32.11     c-0.03,0.65-0.15,1.28-0.35,1.9l-0.1,0.3c-0.96,2.85-3.63,4.78-6.64,4.78h-94.5c-6.54,0-12.69-2.55-17.32-7.18     c-4.63-4.63-7.18-10.78-7.18-17.32c0-13,10.18-23.67,23-24.45v-38.28c0-58.44,22.75-113.37,64.07-154.69s96.26-64.08,154.7-64.08     h140.25c36.93,0,66.98,30.05,66.98,66.98v190.54C460.373,302.829,468.753,312.699,468.753,324.499z M451.673,331.919     c1.98-1.98,3.08-4.62,3.08-7.42c0-5.79-4.71-10.5-10.5-10.5h-2h-133.2c2.28,6.8,3.82,13.82,4.6,21h130.6     C447.053,334.999,449.683,333.909,451.673,331.919z M435.253,299.999v-190.02c0-29.21-23.77-52.98-52.98-52.98h-140.25     c-112.91,0-204.77,91.86-204.77,204.77v38.23h86.1c17.22-33.56,52.02-55,89.9-55c37.87,0,72.67,21.44,89.9,55h5.1v-165.48     c0-14.07,11.44-25.52,25.51-25.52h62.97c14.07,0,25.52,11.45,25.52,25.52v165.48H435.253z M417.713,408.999l-1.99-10h-7.95     l-1.99,10H417.713z M408.253,299.999v-165.48c0-6.35-5.17-11.52-11.52-11.52h-62.97c-6.35,0-11.51,5.17-11.51,11.52v165.48     H408.253z M117.443,313.999h-92.69c-5.79,0-10.5,4.71-10.5,10.5c0,2.8,1.09,5.44,3.08,7.42c1.98,1.99,4.62,3.08,7.42,3.08h88.09     C113.623,327.819,115.163,320.799,117.443,313.999z" fill="#4d4d4d"/><path d="M454.753,324.499c0,2.8-1.1,5.44-3.08,7.42c-1.99,1.99-4.62,3.08-7.42,3.08h-130.6     c-0.78-7.18-2.32-14.2-4.6-21h133.2h2C450.043,313.999,454.753,318.709,454.753,324.499z" fill="#cccccc"/><path d="M435.253,109.979v190.02h-13v-165.48c0-14.07-11.45-25.52-25.52-25.52h-62.97     c-14.07,0-25.51,11.45-25.51,25.52v165.48h-5.1c-17.23-33.56-52.03-55-89.9-55c-37.88,0-72.68,21.44-89.9,55h-86.1v-38.23     c0-112.91,91.86-204.77,204.77-204.77h140.25C411.483,56.999,435.253,80.769,435.253,109.979z M285.253,193.699v-64.4     c0-11.19-9.11-20.3-20.3-20.3h-117.36c-20.2,0-39.35,8.59-52.53,23.57c-15.48,17.58-27.56,37.54-35.91,59.31     c-1.91,4.99-1.24,10.61,1.8,15.03c3.05,4.44,8.09,7.09,13.47,7.09h190.53C276.143,213.999,285.253,204.889,285.253,193.699z" fill="#e0c732"/><path d="M415.723,398.999 417.713,408.999 405.783,408.999 407.773,398.999z" fill="#cccccc"/><path d="M408.253,134.519v165.48h-86v-165.48c0-6.35,5.16-11.52,11.51-11.52h62.97     C403.083,122.999,408.253,128.169,408.253,134.519z M363.253,211.999c0-3.87-3.14-7-7-7h-21c-3.87,0-7,3.13-7,7     c0,3.87,3.13,7,7,7h21C360.113,218.999,363.253,215.869,363.253,211.999z" fill="#e6e6e6"/><path d="M356.253,204.999c3.86,0,7,3.13,7,7c0,3.87-3.14,7-7,7h-21c-3.87,0-7-3.13-7-7c0-3.87,3.13-7,7-7     H356.253z" fill="#4d4d4d"/><path d="M285.253,129.299v64.4c0,11.19-9.11,20.3-20.3,20.3H74.423c-5.38,0-10.42-2.65-13.47-7.09     c-3.04-4.42-3.71-10.04-1.8-15.03c8.35-21.77,20.43-41.73,35.91-59.31c13.18-14.98,32.33-23.57,52.53-23.57h117.36     C276.143,108.999,285.253,118.109,285.253,129.299z M271.253,193.699v-64.4c0-3.47-2.83-6.3-6.3-6.3h-117.36     c-16.18,0-31.5,6.86-42.02,18.81c-14.38,16.34-25.59,34.87-33.34,55.08c-0.37,0.96,0,1.72,0.25,2.09     c0.27,0.38,0.87,1.02,1.94,1.02h190.53C268.423,199.999,271.253,197.169,271.253,193.699z" fill="#4d4d4d"/><path d="M271.253,129.299v64.4c0,3.47-2.83,6.3-6.3,6.3H74.423c-1.07,0-1.67-0.64-1.94-1.02     c-0.25-0.37-0.62-1.13-0.25-2.09c7.75-20.21,18.96-38.74,33.34-55.08c10.52-11.95,25.84-18.81,42.02-18.81h117.36     C268.423,122.999,271.253,125.829,271.253,129.299z M264.253,185.999v-49c0-3.87-3.14-7-7-7h-109.66     c-14.17,0-27.57,5.99-36.77,16.44c-9.76,11.09-18.07,23.34-24.7,36.39c-1.1,2.17-1,4.76,0.27,6.83c1.28,2.08,3.54,3.34,5.97,3.34     h164.89C261.113,192.999,264.253,189.869,264.253,185.999z" fill="#cccccc"/><path d="M213.253,265.999c44.11,0,80,35.89,80,80s-35.89,80-80,80c-44.12,0-80-35.89-80-80     S169.133,265.999,213.253,265.999z M279.253,345.999c0-36.39-29.61-66-66-66c-36.4,0-66,29.61-66,66s29.6,66,66,66     C249.643,411.999,279.253,382.389,279.253,345.999z" fill="#4d4d4d"/><path d="M264.253,136.999v49c0,3.87-3.14,7-7,7H92.363c-2.43,0-4.69-1.26-5.97-3.34     c-1.27-2.07-1.37-4.66-0.27-6.83c6.63-13.05,14.94-25.3,24.7-36.39c9.2-10.45,22.6-16.44,36.77-16.44h109.66     C261.113,129.999,264.253,133.129,264.253,136.999z M250.253,178.999v-35h-53.5v35H250.253z M182.753,178.999v-35h-7.8v35     H182.753z M160.953,178.999v-35h-13.36c-10.15,0-19.72,4.26-26.26,11.69c-6.4,7.27-12.12,15.08-17.09,23.31H160.953z" fill="#4d4d4d"/><path d="M213.253,279.999c36.39,0,66,29.61,66,66s-29.61,66-66,66c-36.4,0-66-29.61-66-66     S176.853,279.999,213.253,279.999z M256.613,345.999c0-23.91-19.45-43.37-43.36-43.37c-23.92,0-43.37,19.46-43.37,43.37     s19.45,43.37,43.37,43.37C237.163,389.369,256.613,369.909,256.613,345.999z" fill="#808080"/><rect x="196px" y="143px" width="53px" height="35px" fill="#ade3f7"/><path d="M213.253,302.629c23.91,0,43.36,19.46,43.36,43.37s-19.45,43.37-43.36,43.37     c-23.92,0-43.37-19.46-43.37-43.37S189.333,302.629,213.253,302.629z M242.613,345.999c0-16.19-13.17-29.37-29.36-29.37     c-16.2,0-29.37,13.18-29.37,29.37s13.17,29.37,29.37,29.37C229.443,375.369,242.613,362.189,242.613,345.999z" fill="#4d4d4d"/><path d="M213.253,316.629c16.19,0,29.36,13.18,29.36,29.37s-13.17,29.37-29.36,29.37     c-16.2,0-29.37-13.18-29.37-29.37S197.053,316.629,213.253,316.629z" fill="#e6e6e6"/><rect x="174px" y="143px" width="7px" height="35px" fill="#cccccc"/><path d="M160.953,143.999v35h-56.71c4.97-8.23,10.69-16.04,17.09-23.31c6.54-7.43,16.11-11.69,26.26-11.69     H160.953z" fill="#ade3f7"/><path d="M24.753,313.999h92.69c-2.28,6.8-3.82,13.82-4.6,21h-88.09c-2.8,0-5.44-1.09-7.42-3.08     c-1.99-1.98-3.08-4.62-3.08-7.42C14.253,318.709,18.963,313.999,24.753,313.999z" fill="#cccccc"/></g><g transform="matrix(0.1256277013888971 -0.038068999630300915 0.038068999630300915 0.1256277013888971 196.9342965217796 241.16291973863156)" id="L1_17"><path d="M126.477,220.944v67.97c0,30.67-24.95,55.61-55.62,55.61c-30.66,0-55.61-24.94-55.61-55.61v-67.97     c0-30.66,24.95-55.61,55.61-55.61C101.527,165.334,126.477,190.284,126.477,220.944z M115.577,288.914v-45.32     c0-4.14-3.35-7.5-7.5-7.5c-4.14,0-7.5,3.36-7.5,7.5v45.32c0,16.39-13.33,29.72-29.71,29.72c-16.39,0-29.72-13.33-29.72-29.72     v-35.97c0-4.14-3.36-7.5-7.5-7.5c-4.15,0-7.5,3.36-7.5,7.5v35.97c0,24.66,20.06,44.72,44.72,44.72     C95.517,333.634,115.577,313.574,115.577,288.914z M108.827,220.164c4.04-0.9,6.59-4.91,5.69-8.95     c-4.52-20.27-22.88-34.99-43.66-34.99c-24.65,0-44.71,20.07-44.71,44.72v8.26c0,4.15,3.35,7.5,7.5,7.5c4.14,0,7.5-3.35,7.5-7.5     v-8.26c0-16.38,13.33-29.72,29.71-29.72c13.81,0,26.01,9.78,29.01,23.25C100.777,218.514,104.777,221.064,108.827,220.164z      M89.687,265.174v-44.23c0-10.38-8.45-18.82-18.83-18.82c-10.37,0-18.82,8.44-18.82,18.82v67.97c0,10.38,8.45,18.83,18.83,18.83     s18.82-8.45,18.82-18.83c0-4.14-3.36-7.5-7.5-7.5c-4.14,0-7.5,3.36-7.5,7.5c0,2.11-1.72,3.83-3.82,3.83     c-2.11,0-3.83-1.72-3.83-3.83v-67.97c0-2.11,1.72-3.82,3.82-3.82c2.11,0,3.83,1.71,3.83,3.82v44.23c0,4.14,3.36,7.5,7.5,7.5     C86.327,272.674,89.687,269.314,89.687,265.174z" fill="#eabd7d"/><path d="M437.797,220.944v67.97c0,30.67-24.94,55.62-55.6,55.62h-267.9     c16.52-12.94,27.18-33.05,27.18-55.62v-67.97c0-22.56-10.65-42.67-27.17-55.61h71.57l3.04,13.4c0.79,3.48,3.88,5.84,7.31,5.84     c0.55,0,1.11-0.06,1.67-0.19c4.04-0.91,6.57-4.93,5.65-8.97l-12.67-55.77l30.13-9.4l27.65,68.89c1.55,3.85,5.92,5.71,9.76,4.17     c3.84-1.54,5.71-5.91,4.16-9.75l-3.29-8.22h122.91C412.857,165.334,437.797,190.284,437.797,220.944z M413.967,218.124     c0-4.15-3.36-7.5-7.5-7.5h-27.51c-4.15,0-7.5,3.35-7.5,7.5c0,4.14,3.35,7.5,7.5,7.5h27.51     C410.607,225.624,413.967,222.264,413.967,218.124z M413.967,254.934c0-4.14-3.36-7.5-7.5-7.5h-166.69c-4.14,0-7.5,3.36-7.5,7.5     s3.36,7.5,7.5,7.5h166.69C410.607,262.434,413.967,259.074,413.967,254.934z M413.967,291.754c0-4.15-3.36-7.5-7.5-7.5h-38.84     c-4.14,0-7.5,3.35-7.5,7.5c0,4.14,3.36,7.5,7.5,7.5h38.84C410.607,299.254,413.967,295.894,413.967,291.754z M392.927,181.304     c0-4.14-3.36-7.5-7.5-7.5h-101.95c-4.14,0-7.5,3.36-7.5,7.5s3.36,7.5,7.5,7.5h101.95     C389.567,188.804,392.927,185.444,392.927,181.304z M392.927,328.564c0-4.14-3.36-7.5-7.5-7.5h-14.57c-4.14,0-7.5,3.36-7.5,7.5     c0,4.14,3.36,7.5,7.5,7.5h14.57C389.567,336.064,392.927,332.704,392.927,328.564z M342.757,218.124c0-4.15-3.35-7.5-7.5-7.5     h-163.44c-4.15,0-7.5,3.35-7.5,7.5c0,4.14,3.35,7.5,7.5,7.5h163.44C339.407,225.624,342.757,222.264,342.757,218.124z      M341.137,328.564c0-4.14-3.35-7.5-7.5-7.5h-98.71c-4.14,0-7.5,3.36-7.5,7.5c0,4.14,3.36,7.5,7.5,7.5h98.71     C337.787,336.064,341.137,332.704,341.137,328.564z M316.867,291.754c0-4.15-3.36-7.5-7.5-7.5h-129.46c-4.14,0-7.5,3.35-7.5,7.5     c0,4.14,3.36,7.5,7.5,7.5h129.46C313.507,299.254,316.867,295.894,316.867,291.754z M213.297,254.934c0-4.14-3.36-7.5-7.5-7.5     h-33.98c-4.15,0-7.5,3.36-7.5,7.5s3.35,7.5,7.5,7.5h33.98C209.937,262.434,213.297,259.074,213.297,254.934z M203.587,328.564     c0-4.14-3.36-7.5-7.5-7.5h-45.31c-4.14,0-7.5,3.36-7.5,7.5c0,4.14,3.36,7.5,7.5,7.5h45.31     C200.227,336.064,203.587,332.704,203.587,328.564z" fill="#e29e30"/><path d="M452.797,220.944v67.97c0,38.94-31.67,70.62-70.6,70.62l-311.43-0.01     c-38.89-0.05-70.52-31.7-70.52-70.61v-67.97c0-38.93,31.68-70.61,70.61-70.61c0.06,0,111.61,0,111.61,0l-7.75-34.12     c-0.87-3.82,1.34-7.66,5.08-8.82l43.36-13.53c3.72-1.17,7.73,0.73,9.19,4.36l20.92,52.11h128.93     C421.127,150.334,452.797,182.014,452.797,220.944z M437.797,288.914v-67.97c0-30.66-24.94-55.61-55.6-55.61h-122.91l3.29,8.22     c1.55,3.84-0.32,8.21-4.16,9.75c-3.84,1.54-8.21-0.32-9.76-4.17l-27.65-68.89l-30.13,9.4l12.67,55.77     c0.92,4.04-1.61,8.06-5.65,8.97c-0.56,0.13-1.12,0.19-1.67,0.19c-3.43,0-6.52-2.36-7.31-5.84l-3.04-13.4h-71.57     c16.52,12.94,27.17,33.05,27.17,55.61v67.97c0,22.57-10.66,42.68-27.18,55.62h267.9     C412.857,344.534,437.797,319.584,437.797,288.914z M126.477,288.914v-67.97c0-30.66-24.95-55.61-55.62-55.61     c-30.66,0-55.61,24.95-55.61,55.61v67.97c0,30.67,24.95,55.61,55.61,55.61C101.527,344.524,126.477,319.584,126.477,288.914z" fill="#4d4d4d"/><path d="M406.467,210.624c4.14,0,7.5,3.35,7.5,7.5c0,4.14-3.36,7.5-7.5,7.5h-27.51     c-4.15,0-7.5-3.36-7.5-7.5c0-4.15,3.35-7.5,7.5-7.5H406.467z" fill="#4d4d4d"/><path d="M406.467,247.434c4.14,0,7.5,3.36,7.5,7.5s-3.36,7.5-7.5,7.5h-166.69c-4.14,0-7.5-3.36-7.5-7.5     s3.36-7.5,7.5-7.5H406.467z" fill="#4d4d4d"/><path d="M406.467,284.254c4.14,0,7.5,3.35,7.5,7.5c0,4.14-3.36,7.5-7.5,7.5h-38.84     c-4.14,0-7.5-3.36-7.5-7.5c0-4.15,3.36-7.5,7.5-7.5H406.467z" fill="#4d4d4d"/><path d="M385.427,173.804c4.14,0,7.5,3.36,7.5,7.5s-3.36,7.5-7.5,7.5h-101.95c-4.14,0-7.5-3.36-7.5-7.5     s3.36-7.5,7.5-7.5H385.427z" fill="#4d4d4d"/><path d="M385.427,321.064c4.14,0,7.5,3.36,7.5,7.5c0,4.14-3.36,7.5-7.5,7.5h-14.57     c-4.14,0-7.5-3.36-7.5-7.5c0-4.14,3.36-7.5,7.5-7.5H385.427z" fill="#4d4d4d"/><path d="M335.257,210.624c4.15,0,7.5,3.35,7.5,7.5c0,4.14-3.35,7.5-7.5,7.5h-163.44     c-4.15,0-7.5-3.36-7.5-7.5c0-4.15,3.35-7.5,7.5-7.5H335.257z" fill="#4d4d4d"/><path d="M333.637,321.064c4.15,0,7.5,3.36,7.5,7.5c0,4.14-3.35,7.5-7.5,7.5h-98.71     c-4.14,0-7.5-3.36-7.5-7.5c0-4.14,3.36-7.5,7.5-7.5H333.637z" fill="#4d4d4d"/><path d="M309.367,284.254c4.14,0,7.5,3.35,7.5,7.5c0,4.14-3.36,7.5-7.5,7.5h-129.46     c-4.14,0-7.5-3.36-7.5-7.5c0-4.15,3.36-7.5,7.5-7.5H309.367z" fill="#4d4d4d"/><path d="M205.797,247.434c4.14,0,7.5,3.36,7.5,7.5s-3.36,7.5-7.5,7.5h-33.98c-4.15,0-7.5-3.36-7.5-7.5     s3.35-7.5,7.5-7.5H205.797z" fill="#4d4d4d"/><path d="M196.087,321.064c4.14,0,7.5,3.36,7.5,7.5c0,4.14-3.36,7.5-7.5,7.5h-45.31     c-4.14,0-7.5-3.36-7.5-7.5c0-4.14,3.36-7.5,7.5-7.5H196.087z" fill="#4d4d4d"/><path d="M115.577,243.594v45.32c0,24.66-20.06,44.72-44.71,44.72c-24.66,0-44.72-20.06-44.72-44.72v-35.97     c0-4.14,3.35-7.5,7.5-7.5c4.14,0,7.5,3.36,7.5,7.5v35.97c0,16.39,13.33,29.72,29.72,29.72c16.38,0,29.71-13.33,29.71-29.72     v-45.32c0-4.14,3.36-7.5,7.5-7.5C112.227,236.094,115.577,239.454,115.577,243.594z" fill="#4d4d4d"/><path d="M114.517,211.214c0.9,4.04-1.65,8.05-5.69,8.95c-4.05,0.9-8.05-1.65-8.96-5.69     c-3-13.47-15.2-23.25-29.01-23.25c-16.38,0-29.71,13.34-29.71,29.72v8.26c0,4.15-3.36,7.5-7.5,7.5c-4.15,0-7.5-3.35-7.5-7.5     v-8.26c0-24.65,20.06-44.72,44.71-44.72C91.637,176.224,109.997,190.944,114.517,211.214z" fill="#4d4d4d"/><path d="M89.687,220.944v44.23c0,4.14-3.36,7.5-7.5,7.5c-4.14,0-7.5-3.36-7.5-7.5v-44.23     c0-2.11-1.72-3.82-3.83-3.82c-2.1,0-3.82,1.71-3.82,3.82v67.97c0,2.11,1.72,3.83,3.83,3.83c2.1,0,3.82-1.72,3.82-3.83     c0-4.14,3.36-7.5,7.5-7.5c4.14,0,7.5,3.36,7.5,7.5c0,10.38-8.44,18.83-18.82,18.83s-18.83-8.45-18.83-18.83v-67.97     c0-10.38,8.45-18.82,18.82-18.82C81.237,202.124,89.687,210.564,89.687,220.944z" fill="#4d4d4d"/></g><g transform="matrix(0.05732065701055132 -0.05732065701055131 0.05732065701055131 0.05732065701055132 93.10797769040803 285.98916078423144)" id="L1_20"><path d="M59.003,48.249h281.48c-3.91,74.24-65.54,133.44-140.74,133.44S62.913,122.489,59.003,48.249z      M324.963,69.839c0.93-4.03-1.58-8.06-5.61-9c-4.04-0.94-8.07,1.57-9,5.61c-1.06,4.57-2.43,9.11-4.05,13.51     c-1.44,3.89,0.55,8.2,4.44,9.64c0.85,0.31,1.73,0.46,2.59,0.46c3.06,0,5.92-1.87,7.04-4.9     C322.213,80.169,323.763,75.019,324.963,69.839z M308.373,109.399c2.22-3.5,1.18-8.13-2.32-10.35     c-3.49-2.22-8.13-1.18-10.35,2.32c-21.01,33.14-56.88,52.92-95.96,52.92c-4.15,0-7.5,3.36-7.5,7.5s3.35,7.5,7.5,7.5     C243.983,169.289,284.593,146.899,308.373,109.399z" fill="#e0c732"/><path d="M296.253,22.279v10.97h-34.5v-10.97c0-3.87,3.16-7.03,7.03-7.03h20.44     C293.093,15.249,296.253,18.409,296.253,22.279z" fill="#ea6081"/><path d="M216.993,22.279v10.97h-34.5v-10.97c0-3.87,3.15-7.03,7.03-7.03h20.43     C213.833,15.249,216.993,18.409,216.993,22.279z" fill="#ea6081"/><path d="M137.723,22.279v10.97h-34.5v-10.97c0-3.87,3.16-7.03,7.04-7.03h20.43     C134.573,15.249,137.723,18.409,137.723,22.279z" fill="#ea6081"/><path d="M348.173,33.249c4.15,0,7.5,3.36,7.5,7.5c0,67.98-43.73,125.94-104.54,147.22l23.63,89.45     c0,0,0.01,0,0.01,0.01l26.72,101.14c1.06,4.01-1.33,8.11-5.33,9.17c-0.64,0.17-1.29,0.25-1.92,0.25c-3.32,0-6.36-2.22-7.25-5.59     l-25.04-94.78l-54.71,7.88v96.23c0,4.14-3.36,7.5-7.5,7.5c-4.15,0-7.5-3.36-7.5-7.5v-96.23l-54.71-7.88l-25.05,94.78     c-0.89,3.37-3.92,5.59-7.24,5.59c-0.64,0-1.28-0.08-1.92-0.25c-4.01-1.06-6.4-5.16-5.34-9.17l26.73-101.15l23.63-89.45     c-60.8-21.28-104.54-79.24-104.54-147.22c0-4.14,3.36-7.5,7.5-7.5h36.92v-10.97c0-12.15,9.89-22.03,22.04-22.03h20.43     c12.15,0,22.03,9.88,22.03,22.03v10.97h14.77v-10.97c0-12.15,9.88-22.03,22.03-22.03h20.43c12.15,0,22.04,9.88,22.04,22.03v10.97     h14.76v-10.97c0-12.15,9.89-22.03,22.03-22.03h20.44c12.14,0,22.03,9.88,22.03,22.03v10.97H348.173z M340.483,48.249H59.003     c3.91,74.24,65.54,133.44,140.74,133.44S336.573,122.489,340.483,48.249z M296.253,33.249v-10.97c0-3.87-3.16-7.03-7.03-7.03     h-20.44c-3.87,0-7.03,3.16-7.03,7.03v10.97H296.253z M258.093,273.019l-21.35-80.78c-9.52,2.33-19.39,3.78-29.5,4.26v83.85     L258.093,273.019z M216.993,33.249v-10.97c0-3.87-3.16-7.03-7.04-7.03h-20.43c-3.88,0-7.03,3.16-7.03,7.03v10.97H216.993z      M192.243,280.349v-83.85c-10.12-0.48-19.98-1.93-29.51-4.26l-21.34,80.78L192.243,280.349z M137.723,33.249v-10.97     c0-3.87-3.15-7.03-7.03-7.03h-20.43c-3.88,0-7.04,3.16-7.04,7.03v10.97H137.723z" fill="#4d4d4d"/><path d="M319.353,60.839c4.03,0.94,6.54,4.97,5.61,9c-1.2,5.18-2.75,10.33-4.59,15.32     c-1.12,3.03-3.98,4.9-7.04,4.9c-0.86,0-1.74-0.15-2.59-0.46c-3.89-1.44-5.88-5.75-4.44-9.64c1.62-4.4,2.99-8.94,4.05-13.51     C311.283,62.409,315.313,59.899,319.353,60.839z" fill="#4d4d4d"/><path d="M306.053,99.049c3.5,2.22,4.54,6.85,2.32,10.35c-23.78,37.5-64.39,59.89-108.63,59.89     c-4.15,0-7.5-3.36-7.5-7.5s3.35-7.5,7.5-7.5c39.08,0,74.95-19.78,95.96-52.92C297.923,97.869,302.563,96.829,306.053,99.049z" fill="#4d4d4d"/></g><g transform="matrix(0.11276885363282607 0.05429611356604431 -0.05429611356604431 0.11276885363282607 335.6047099233076 236.31636866837803)" id="L1_21"><path d="M355.156,24.381v32.28c0,4.14-3.36,7.5-7.5,7.5h-7.03v226.34c0,26.48-21.54,48.02-48.02,48.02     h-156.19c-26.48,0-48.02-21.54-48.02-48.02v-21.37h-40.92c-26.04,0-47.23-21.19-47.23-47.23v-88.39     c0-26.05,21.19-47.24,47.23-47.24h40.92v-22.11h-7.03c-4.14,0-7.5-3.36-7.5-7.5v-32.28c0-4.14,3.36-7.5,7.5-7.5h266.29     C351.796,16.881,355.156,20.241,355.156,24.381z M340.156,49.161v-17.28H88.866v17.28H340.156z M325.626,290.501V64.161h-222.23     v226.34c0,18.21,14.81,33.02,33.02,33.02h156.19C310.816,323.521,325.626,308.711,325.626,290.501z M88.396,254.131v-11.9h-40.92     c-11.21,0-20.33-9.12-20.33-20.33v-88.39c0-11.21,9.12-20.34,20.33-20.34h40.92v-11.9h-40.92c-17.77,0-32.23,14.47-32.23,32.24     v88.39c0,17.77,14.46,32.23,32.23,32.23H88.396z M88.396,227.231v-99.06h-40.92c-2.94,0-5.33,2.4-5.33,5.34v88.39     c0,2.94,2.39,5.33,5.33,5.33H88.396z" fill="#4d4d4d"/><rect x="88px" y="31px" width="251px" height="17px" fill="#69b9e2"/><path d="M325.626,64.161v226.34c0,18.21-14.81,33.02-33.02,33.02h-156.19     c-18.21,0-33.02-14.81-33.02-33.02V64.161H325.626z M311.656,260.521v-133.49c0-4.14-3.36-7.5-7.5-7.5c-4.14,0-7.5,3.36-7.5,7.5     v133.49c0,4.14,3.36,7.5,7.5,7.5C308.296,268.021,311.656,264.661,311.656,260.521z M311.656,101.531v-22.5     c0-4.14-3.36-7.5-7.5-7.5c-4.14,0-7.5,3.36-7.5,7.5v22.5c0,4.14,3.36,7.5,7.5,7.5     C308.296,109.031,311.656,105.671,311.656,101.531z" fill="#45a1db"/><path d="M311.656,127.031v133.49c0,4.14-3.36,7.5-7.5,7.5c-4.14,0-7.5-3.36-7.5-7.5v-133.49     c0-4.14,3.36-7.5,7.5-7.5C308.296,119.531,311.656,122.891,311.656,127.031z" fill="#4d4d4d"/><path d="M311.656,79.031v22.5c0,4.14-3.36,7.5-7.5,7.5c-4.14,0-7.5-3.36-7.5-7.5v-22.5     c0-4.14,3.36-7.5,7.5-7.5C308.296,71.531,311.656,74.891,311.656,79.031z" fill="#4d4d4d"/><path d="M88.396,242.231v11.9h-40.92c-17.77,0-32.23-14.46-32.23-32.23v-88.39     c0-17.77,14.46-32.24,32.23-32.24h40.92v11.9h-40.92c-11.21,0-20.33,9.13-20.33,20.34v88.39c0,11.21,9.12,20.33,20.33,20.33     H88.396z" fill="#69b9e2"/></g><g transform="matrix(0.036484422047633455 -0.03648442204763345 0.03648442204763345 0.036484422047633455 295.7540097796697 50.98785415879288)" id="L1_23"><path d="M409.156,46.592c4.14,0,7.5,3.36,7.5,7.5c0,18.44-13.17,33.86-30.6,37.35v283.05     c0,4.14-3.36,7.5-7.5,7.5c-4.14,0-7.5-3.36-7.5-7.5V91.442c-11.85-2.37-21.73-10.25-26.84-20.85h-66.89     c5.05,9.15,8.32,19.42,9.36,30.32h2.79c4.14,0,7.5,3.36,7.5,7.5v64.06c0,30.35-24.69,55.04-55.04,55.04h-66.96     c-30.35,0-55.05-24.69-55.05-55.04v-64.06c0-4.14,3.36-7.5,7.5-7.5h2.79c1.04-10.9,4.31-21.17,9.36-30.32h-66.89     c-5.11,10.6-14.99,18.48-26.84,20.85v283.05c0,4.14-3.35,7.5-7.5,7.5c-4.14,0-7.5-3.36-7.5-7.5V91.442     c-17.42-3.49-30.6-18.91-30.6-37.35c0-4.14,3.36-7.5,7.5-7.5c4.15,0,7.5,3.36,7.5,7.5c0,12.74,10.37,23.1,23.1,23.1     c6.28,0,11.98-2.52,16.15-6.6h-11.65c-4.14,0-7.5-3.36-7.5-7.5s3.36-7.5,7.5-7.5h18.55c0.03-0.5,0.05-1,0.05-1.5     c0-4.14,3.36-7.5,7.5-7.5c4.15,0,7.5,3.36,7.5,7.5c0,0.5-0.01,1-0.03,1.5h73.88c14.39-15.83,35.13-25.78,58.16-25.78     c23.02,0,43.76,9.95,58.15,25.78h73.89c-0.02-0.5-0.04-1-0.04-1.5c0-4.14,3.36-7.5,7.5-7.5s7.5,3.36,7.5,7.5     c0,0.5,0.02,1,0.05,1.5h18.55c4.14,0,7.5,3.36,7.5,7.5s-3.36,7.5-7.5,7.5h-11.65c4.17,4.08,9.87,6.6,16.15,6.6     c12.74,0,23.1-10.36,23.1-23.1C401.656,49.952,405.016,46.592,409.156,46.592z M281.976,172.472v-56.56h-147.05v56.56     c0,22.08,17.97,40.04,40.05,40.04h66.96C264.016,212.512,281.976,194.552,281.976,172.472z M145.296,100.912h126.32     c-1.33-11.27-5.63-21.64-12.08-30.32h-102.17C150.926,79.272,146.626,89.642,145.296,100.912z M173.076,55.592h70.75     c-10.12-6.8-22.29-10.78-35.37-10.78C195.366,44.812,183.196,48.792,173.076,55.592z" fill="#4d4d4d"/><path d="M281.976,115.912v56.56c0,22.08-17.96,40.04-40.04,40.04h-66.96c-22.08,0-40.05-17.96-40.05-40.04     v-56.56H281.976z" fill="#45a1db"/><path d="M275.306,374.292c2.93,2.93,2.93,7.68,0,10.6c-1.46,1.47-3.38,2.2-5.3,2.2     c-1.92,0-3.84-0.73-5.31-2.2l-25.37-25.37c-4.8,3.3-10.15,5.46-15.68,6.48v13.29c0,4.15-3.35,7.5-7.5,7.5     c-4.14,0-7.5-3.35-7.5-7.5v-13.29c-5.52-1.02-10.87-3.18-15.67-6.48l-25.37,25.37c-1.47,1.47-3.39,2.2-5.31,2.2     s-3.84-0.73-5.3-2.2c-2.93-2.92-2.93-7.67,0-10.6l25.37-25.37c-8.88-12.93-9.71-30.09-1.52-43.98l28.84-48.95     c1.35-2.28,3.81-3.69,6.46-3.69c2.66,0,5.12,1.41,6.47,3.69l28.84,48.95c8.19,13.89,7.36,31.05-1.52,43.98L275.306,374.292z      M234.516,344.112c8.38-8.38,10.03-21.35,4.01-31.56l-22.38-37.98l-22.37,37.98c-6.02,10.21-4.37,23.18,4.01,31.56     C207.916,354.242,224.396,354.232,234.516,344.112z" fill="#4d4d4d"/><path d="M238.526,312.552c6.02,10.21,4.37,23.18-4.01,31.56c-10.12,10.12-26.6,10.13-36.73,0     c-8.38-8.38-10.03-21.35-4.01-31.56l22.37-37.98L238.526,312.552z" fill="#ea6081"/></g></defs><g fi:class="KUsePattern"><pattern id="pattern_L1_12" width="350" height="350" patternUnits="userSpaceOnUse"><use xlink:href="#L1_12" x="-350" y="-350"/><use xlink:href="#L1_12" x="0" y="-350"/><use xlink:href="#L1_12" x="350" y="-350"/><use xlink:href="#L1_12" x="-350" y="0"/><use xlink:href="#L1_12" x="0" y="0"/><use xlink:href="#L1_12" x="350" y="0"/><use xlink:href="#L1_12" x="-350" y="350"/><use xlink:href="#L1_12" x="0" y="350"/><use xlink:href="#L1_12" x="350" y="350"/></pattern><rect x="0" y="0" width="100%" height="100%" fill="url(#pattern_L1_12)"/></g><g fi:class="KUsePattern"><pattern id="pattern_L1_8" width="350" height="350" patternUnits="userSpaceOnUse"><use xlink:href="#L1_8" x="-350" y="-350"/><use xlink:href="#L1_8" x="0" y="-350"/><use xlink:href="#L1_8" x="350" y="-350"/><use xlink:href="#L1_8" x="-350" y="0"/><use xlink:href="#L1_8" x="0" y="0"/><use xlink:href="#L1_8" x="350" y="0"/><use xlink:href="#L1_8" x="-350" y="350"/><use xlink:href="#L1_8" x="0" y="350"/><use xlink:href="#L1_8" x="350" y="350"/></pattern><rect x="0" y="0" width="100%" height="100%" fill="url(#pattern_L1_8)"/></g><g fi:class="KUsePattern"><pattern id="pattern_L1_9" width="350" height="350" patternUnits="userSpaceOnUse"><use xlink:href="#L1_9" x="-350" y="-350"/><use xlink:href="#L1_9" x="0" y="-350"/><use xlink:href="#L1_9" x="350" y="-350"/><use xlink:href="#L1_9" x="-350" y="0"/><use xlink:href="#L1_9" x="0" y="0"/><use xlink:href="#L1_9" x="350" y="0"/><use xlink:href="#L1_9" x="-350" y="350"/><use xlink:href="#L1_9" x="0" y="350"/><use xlink:href="#L1_9" x="350" y="350"/></pattern><rect x="0" y="0" width="100%" height="100%" fill="url(#pattern_L1_9)"/></g><g fi:class="KUsePattern"><pattern id="pattern_L1_10" width="350" height="350" patternUnits="userSpaceOnUse"><use xlink:href="#L1_10" x="-350" y="-350"/><use xlink:href="#L1_10" x="0" y="-350"/><use xlink:href="#L1_10" x="350" y="-350"/><use xlink:href="#L1_10" x="-350" y="0"/><use xlink:href="#L1_10" x="0" y="0"/><use xlink:href="#L1_10" x="350" y="0"/><use xlink:href="#L1_10" x="-350" y="350"/><use xlink:href="#L1_10" x="0" y="350"/><use xlink:href="#L1_10" x="350" y="350"/></pattern><rect x="0" y="0" width="100%" height="100%" fill="url(#pattern_L1_10)"/></g><g fi:class="KUsePattern"><pattern id="pattern_L1_22" width="350" height="350" patternUnits="userSpaceOnUse"><use xlink:href="#L1_22" x="-350" y="-350"/><use xlink:href="#L1_22" x="0" y="-350"/><use xlink:href="#L1_22" x="350" y="-350"/><use xlink:href="#L1_22" x="-350" y="0"/><use xlink:href="#L1_22" x="0" y="0"/><use xlink:href="#L1_22" x="350" y="0"/><use xlink:href="#L1_22" x="-350" y="350"/><use xlink:href="#L1_22" x="0" y="350"/><use xlink:href="#L1_22" x="350" y="350"/></pattern><rect x="0" y="0" width="100%" height="100%" fill="url(#pattern_L1_22)"/></g><g fi:class="KUsePattern"><pattern id="pattern_L1_13" width="350" height="350" patternUnits="userSpaceOnUse"><use xlink:href="#L1_13" x="-350" y="-350"/><use xlink:href="#L1_13" x="0" y="-350"/><use xlink:href="#L1_13" x="350" y="-350"/><use xlink:href="#L1_13" x="-350" y="0"/><use xlink:href="#L1_13" x="0" y="0"/><use xlink:href="#L1_13" x="350" y="0"/><use xlink:href="#L1_13" x="-350" y="350"/><use xlink:href="#L1_13" x="0" y="350"/><use xlink:href="#L1_13" x="350" y="350"/></pattern><rect x="0" y="0" width="100%" height="100%" fill="url(#pattern_L1_13)"/></g><g fi:class="KUsePattern"><pattern id="pattern_L1_14" width="350" height="350" patternUnits="userSpaceOnUse"><use xlink:href="#L1_14" x="-350" y="-350"/><use xlink:href="#L1_14" x="0" y="-350"/><use xlink:href="#L1_14" x="350" y="-350"/><use xlink:href="#L1_14" x="-350" y="0"/><use xlink:href="#L1_14" x="0" y="0"/><use xlink:href="#L1_14" x="350" y="0"/><use xlink:href="#L1_14" x="-350" y="350"/><use xlink:href="#L1_14" x="0" y="350"/><use xlink:href="#L1_14" x="350" y="350"/></pattern><rect x="0" y="0" width="100%" height="100%" fill="url(#pattern_L1_14)"/></g><g fi:class="KUsePattern"><pattern id="pattern_L1_15" width="350" height="350" patternUnits="userSpaceOnUse"><use xlink:href="#L1_15" x="-350" y="-350"/><use xlink:href="#L1_15" x="0" y="-350"/><use xlink:href="#L1_15" x="350" y="-350"/><use xlink:href="#L1_15" x="-350" y="0"/><use xlink:href="#L1_15" x="0" y="0"/><use xlink:href="#L1_15" x="350" y="0"/><use xlink:href="#L1_15" x="-350" y="350"/><use xlink:href="#L1_15" x="0" y="350"/><use xlink:href="#L1_15" x="350" y="350"/></pattern><rect x="0" y="0" width="100%" height="100%" fill="url(#pattern_L1_15)"/></g><g fi:class="KUsePattern"><pattern id="pattern_L1_16" width="350" height="350" patternUnits="userSpaceOnUse"><use xlink:href="#L1_16" x="-350" y="-350"/><use xlink:href="#L1_16" x="0" y="-350"/><use xlink:href="#L1_16" x="350" y="-350"/><use xlink:href="#L1_16" x="-350" y="0"/><use xlink:href="#L1_16" x="0" y="0"/><use xlink:href="#L1_16" x="350" y="0"/><use xlink:href="#L1_16" x="-350" y="350"/><use xlink:href="#L1_16" x="0" y="350"/><use xlink:href="#L1_16" x="350" y="350"/></pattern><rect x="0" y="0" width="100%" height="100%" fill="url(#pattern_L1_16)"/></g><g fi:class="KUsePattern"><pattern id="pattern_L1_17" width="350" height="350" patternUnits="userSpaceOnUse"><use xlink:href="#L1_17" x="-350" y="-350"/><use xlink:href="#L1_17" x="0" y="-350"/><use xlink:href="#L1_17" x="350" y="-350"/><use xlink:href="#L1_17" x="-350" y="0"/><use xlink:href="#L1_17" x="0" y="0"/><use xlink:href="#L1_17" x="350" y="0"/><use xlink:href="#L1_17" x="-350" y="350"/><use xlink:href="#L1_17" x="0" y="350"/><use xlink:href="#L1_17" x="350" y="350"/></pattern><rect x="0" y="0" width="100%" height="100%" fill="url(#pattern_L1_17)"/></g><g fi:class="KUsePattern"><pattern id="pattern_L1_20" width="350" height="350" patternUnits="userSpaceOnUse"><use xlink:href="#L1_20" x="-350" y="-350"/><use xlink:href="#L1_20" x="0" y="-350"/><use xlink:href="#L1_20" x="350" y="-350"/><use xlink:href="#L1_20" x="-350" y="0"/><use xlink:href="#L1_20" x="0" y="0"/><use xlink:href="#L1_20" x="350" y="0"/><use xlink:href="#L1_20" x="-350" y="350"/><use xlink:href="#L1_20" x="0" y="350"/><use xlink:href="#L1_20" x="350" y="350"/></pattern><rect x="0" y="0" width="100%" height="100%" fill="url(#pattern_L1_20)"/></g><g fi:class="KUsePattern"><pattern id="pattern_L1_21" width="350" height="350" patternUnits="userSpaceOnUse"><use xlink:href="#L1_21" x="-350" y="-350"/><use xlink:href="#L1_21" x="0" y="-350"/><use xlink:href="#L1_21" x="350" y="-350"/><use xlink:href="#L1_21" x="-350" y="0"/><use xlink:href="#L1_21" x="0" y="0"/><use xlink:href="#L1_21" x="350" y="0"/><use xlink:href="#L1_21" x="-350" y="350"/><use xlink:href="#L1_21" x="0" y="350"/><use xlink:href="#L1_21" x="350" y="350"/></pattern><rect x="0" y="0" width="100%" height="100%" fill="url(#pattern_L1_21)"/></g><g fi:class="KUsePattern"><pattern id="pattern_L1_23" width="350" height="350" patternUnits="userSpaceOnUse"><use xlink:href="#L1_23" x="-350" y="-350"/><use xlink:href="#L1_23" x="0" y="-350"/><use xlink:href="#L1_23" x="350" y="-350"/><use xlink:href="#L1_23" x="-350" y="0"/><use xlink:href="#L1_23" x="0" y="0"/><use xlink:href="#L1_23" x="350" y="0"/><use xlink:href="#L1_23" x="-350" y="350"/><use xlink:href="#L1_23" x="0" y="350"/><use xlink:href="#L1_23" x="350" y="350"/></pattern><rect x="0" y="0" width="100%" height="100%" fill="url(#pattern_L1_23)"/></g></svg>