<?xml version="1.0" encoding="iso-8859-1"?>
<!-- Generator: Adobe Illustrator 19.0.0, SVG Export Plug-In . SVG Version: 6.00 Build 0)  -->
<svg version="1.1" id="Layer_1" xmlns="http://www.w3.org/2000/svg" xmlns:xlink="http://www.w3.org/1999/xlink" x="0px" y="0px"
	 viewBox="0 0 240.648 240.648" style="enable-background:new 0 0 240.648 240.648;" xml:space="preserve">
<g>
	<g>
		<g>
			<path d="M232.603,47.448c-0.776-0.484-1.704-0.716-2.62-0.66c0.348-1.004,0.568-2.292-0.372-3.428
				c-1.24-1.5-3.364-1.272-4.808-0.616c-1.096,0.5-2.056,1.224-2.808,2.1l-2.08-2.364c-0.22-0.252-0.632-0.728-1.312-0.988
				c-0.9-0.34-1.984-0.16-2.832,0.468c-1.072,0.784-2.128,2.392-1.104,5.612l0.844,2.668c-4.388-0.596-9.488,0.092-15.62,2.2
				c-6.908,2.384-13.368,5.66-19.58,9.264c0.272,0.004-10.98,6.748-14.304,8.892l-1.56,1.004c-1.24-2.904-2.568-5.752-4.116-8.44
				c-1.9-3.292-6.084-5.24-6.552-5.452l-1.776-0.796l-6.668,14.14l0.452,0.872c0.02,0.036,0.884,1.724,1.968,3.936
				c-0.508,0.84-0.92,1.728-1.128,2.692c-0.132,0.6-0.144,1.2-0.12,1.8c-2.192,1.208-2.288,1.692-6.212,3.296
				c-2.556-2.64-5.884-3.936-9.852-3.652c-5.248,0.404-8.816,3.1-10.048,7.596c-0.248,0.908-0.3,1.86-0.272,2.8
				c-3.604,1.328-2.72,1.132-6.396,2.316c-2.38-2.248-5.32-3.376-8.664-3.384c-1.388-3.876-2.58-7.688-2.6-7.748l-0.288-0.928
				l-14.712-5.5l-0.716,1.812c-0.188,0.48-1.816,4.776-0.852,8.452c1.216,4.644,2.892,9.26,4.944,13.74
				c-1.92,0.456-3.772,0.86-5.572,1.224c-2.324-1.432-4.992-2.116-7.992-1.804c-3.38,0.344-5.976,1.784-7.66,3.964
				c-0.292,0.028-0.588,0.056-0.88,0.084c-11.164,1.044-22.708,2.124-33.724,5.804c-6.468,2.164-11.112,4.864-14.22,8.24
				l-1.868-2.708c-1.52-2.208-3.232-3.12-5.076-2.692c-1.048,0.24-1.896,0.952-2.212,1.88c-0.232,0.692-0.108,1.316-0.048,1.644
				l0.56,2.944c-1.156,0.012-2.324,0.264-3.4,0.752c-1.908,0.868-2.952,2.512-2.604,4.088c0.312,1.42,1.44,2.052,2.472,2.424
				c-0.588,0.668-0.992,1.484-1.096,2.364c-0.264,2.208,1.38,4.296,3.664,4.656c0.268,0.044,0.532,0.064,0.792,0.064
				c1.568,0,3.008-0.716,4.344-1.508l0.468-0.272c0.92,4.604,3.908,8.872,8.172,11.532c5.548,3.46,13.16,5.168,23.14,5.168
				c2.168,0,4.444-0.08,6.836-0.24c16.352-1.096,32.484-4.884,49.192-9.992c3.608,9.776,8.22,20.08,17.756,27.388
				c7.48,5.732,17.424,8.384,27.04,10.952c3.364,0.896,6.824,1.82,10.164,2.872c-1.924,5.356,1.012,9.92,3.404,13.644
				c0.456,0.708,0.904,1.404,1.3,2.084c1.148,1.956,2.316,3.904,3.488,5.848c2.584,4.292,5.252,8.732,7.588,13.204
				c0.716,1.372,1.42,2.756,2.024,4.228c0.204,0.5,0.412,1,0.564,1.528l0.04,0.24c0.124,1.248,0.2,2.5,0.276,3.74
				c0.36,6,0.736,12.204,6.528,16.752c1.18,0.928,2.704,1.4,4.372,1.4c1.26,0,2.608-0.268,3.964-0.812
				c2.44-0.98,5.436-3.156,5.852-6.068c0.236-1.644-0.42-3.168-1.848-4.284c-3.068-2.408-3.172-5.68-3.312-9.824
				c-0.048-1.468-0.1-2.952-0.288-4.424c-0.364-2.88-1.616-5.4-2.72-7.624c-2.484-5-5.416-9.848-8.248-14.54
				c-0.92-1.524-1.836-3.044-2.744-4.576l-0.356-0.616c-1.404-2.368-2.856-4.82-4.092-7.284c-0.168-0.328-0.308-0.676-0.448-1.024
				c-0.056-0.14-0.116-0.28-0.172-0.416c0.072-0.14,0.148-0.288,0.216-0.432c0.188-0.38,0.368-0.76,0.496-0.952
				c4.392-6.664,6.78-12.52,7.744-18.996c0.88-5.916,1.796-12.868,1.92-19.552c0.196-10.624-2.932-19.82-7.252-28.244
				c10.812-4.652,21.012-9.836,30.46-16.144c11.164-7.452,17.912-14.688,20.64-22.12c1.844-5.032,1.472-10.42-1.024-14.788
				c-0.208-0.364-0.496-0.656-0.728-1c0.928-0.268,1.872-0.488,2.788-0.792c1.744-0.576,3.484-1.332,4.448-2.936
				C235.152,51.228,234.54,48.648,232.603,47.448z M16.528,126.504c-0.248,0.152-0.476,0.288-0.76,0.448l-1.184,0.688
				c-1.012,0.6-2.076,1.128-2.868,1.012c-0.508-0.08-0.856-0.544-0.816-0.888c0.056-0.44,0.664-1.008,1.3-1.048l2.124-0.132
				l-0.596-2.044c-0.5-1.704-2.184-2.208-3.3-2.544c-0.184-0.056-0.432-0.128-0.652-0.204c0.104-0.076,0.236-0.156,0.388-0.224
				c1.116-0.512,2.44-0.592,3.552-0.208l2.772,0.956l-1.528-7.672c0.324,0.168,0.736,0.6,1.168,1.232l2.52,3.648
				C17.36,121.692,16.66,124.06,16.528,126.504z M168.163,73.928c1.476-0.952,2.98-1.904,4.476-2.856
				c-0.096,1.284,0.024,2.62,0.432,3.98c0.74,2.452,0.548,3.22-0.928,3.748c-1.552,0.548-2.16-0.052-3.5-1.904l-0.36-0.492
				c-0.432-0.58-0.928-1.108-1.444-1.616L168.163,73.928z M153.86,62.284c1.108,0.716,2.384,1.732,3.036,2.864
				c1.036,1.792,1.944,3.688,2.84,5.588c-2.996-0.312-5.98,0.228-8.396,1.62c-0.24,0.136-0.432,0.312-0.656,0.464
				c-0.36-0.728-0.688-1.384-0.92-1.84L153.86,62.284z M146.908,84.508c0,0.144,0.02,0.3,0.008,0.44
				c-0.144,1.54-0.78,2.78-1.124,2.92c-0.408,0.088-1.724-0.58-2.436-0.932c-0.104-0.052-0.196-0.096-0.296-0.144
				C145.188,85.812,145.264,85.428,146.908,84.508z M120.671,94.48c0.336,1.876-0.088,2.444-1.18,2.812
				c-0.904,0.304-2.04,0.328-3.068-1.232C119.739,94.976,118.92,95.168,120.671,94.48z M89.739,84.404
				c-0.328-1.252-0.132-2.844,0.156-4.12l9.08,3.396c0.404,1.264,1.18,3.644,2.076,6.176c-3.404,1.004-5.784,3.204-6.616,6.38
				c-0.08,0.312-0.068,0.624-0.112,0.94C92.424,93,90.868,88.716,89.739,84.404z M94.371,102.412c0.012,0.464,0.012,0.92-0.032,1.36
				c-0.132,1.236-0.8,2.472-1.148,2.588c-0.516,0.172-2.14-0.62-2.924-1.004l-0.428-0.2c-0.076-0.072-0.212-0.36-0.304-0.552
				c-0.14-0.292-0.304-0.62-0.532-0.928C90.748,103.292,92.54,102.868,94.371,102.412z M67.759,106.7
				c-0.344,2.068-0.06,4.24,0.308,6.304c0.336,1.88-0.1,2.408-1.084,2.764c-1.408,0.508-2.516,0.068-3.388-1.364l-0.284-0.484
				c-0.236-0.412-0.476-0.82-0.752-1.208c-1.748-2.416-4.332-4.004-7.176-4.664C59.515,107.496,63.66,107.084,67.759,106.7z
				 M52.496,109.944c3.224,0,6.332,1.472,8.224,4.092c0.236,0.324,0.432,0.668,0.628,1.012l0.312,0.528
				c1.44,2.364,3.668,3.208,6.104,2.316c3.268-1.188,2.72-4.276,2.54-5.292c-0.368-2.056-0.688-4.212-0.236-6.052
				c0.804-3.284,3.448-5.316,7.444-5.724c3.98-0.416,7.232,1,9.668,4.188c0.1,0.132,0.208,0.352,0.312,0.572
				c0.264,0.548,0.592,1.232,1.312,1.576l0.464,0.228c1.524,0.752,3.256,1.6,4.664,1.116c1.664-0.576,2.504-3,2.664-4.496
				c0.12-1.152,0.028-2.3-0.06-3.416c-0.108-1.364-0.212-2.656,0.088-3.788c1.084-4.14,5.144-5.084,7.468-5.272
				c3.956-0.34,7.18,1.148,9.576,4.392c0.152,0.204,0.272,0.428,0.384,0.652c1.36,2.676,3.608,3.724,6.168,2.86
				c3.624-1.22,2.892-4.58,2.612-5.844c-0.356-1.628-0.708-3.716-0.244-5.408c1.232-4.492,5.048-5.708,8.032-5.936
				c3.988-0.304,7.176,1.204,9.4,4.504c0.072,0.104,0.12,0.236,0.176,0.36c0.2,0.444,0.476,1.056,1.132,1.352
				c0.32,0.144,0.66,0.316,1.008,0.492c1.496,0.752,3.036,1.528,4.296,1.012c1.72-0.7,2.408-3.356,2.544-4.82
				c0.096-1.068-0.056-2.116-0.208-3.132c-0.164-1.084-0.316-2.112-0.124-2.992c0.54-2.484,2.268-3.932,3.628-4.712
				c2.684-1.54,6.244-1.844,9.568-0.832c0.44,0.408,0.896,0.804,1.352,1.204c1.16,1.012,2.256,1.964,3.072,3.064l0.344,0.472
				c1.188,1.64,2.816,3.884,6.1,2.712c3.892-1.384,2.844-4.864,2.34-6.536c-0.532-1.76-0.564-3.328,0.48-6.004
				c0.676-1.304,1.72-2.448,3.144-3.3c3.44-2.056,7.86-1.844,11.256,0.536c0.936,0.656,1.84,1.624,2.764,2.96
				c0.34,0.492,1.428,2.128,0.172,3.228c-0.688,0.604-2.332,1.056-4.832-1.412c-0.308-0.304-1.304-0.944-1.74-1.112
				c-1.328-0.516-2.7-1.048-3.968-0.684c-2.092,0.604-2.388,4.528-2.4,4.692c-0.072,0.984,0.116,1.928,0.296,2.844
				c0.172,0.884,0.332,1.716,0.232,2.432c-0.508,3.532-3.496,6.292-7.432,6.856c-3.88,0.576-7.964-1.176-10.176-4.32
				c-0.116-0.164-0.204-0.368-0.3-0.564c-0.28-0.588-0.624-1.32-1.4-1.64l-0.3-0.124c-1.556-0.652-3.328-1.388-4.836-0.956
				c-1.72,0.5-2.42,3.176-2.492,4.4c-0.06,1.044,0.112,2.064,0.276,3.052c0.184,1.104,0.36,2.144,0.176,3.036
				c-0.748,3.636-3.752,6.108-7.844,6.448c-4.26,0.376-7.516-1.212-9.896-4.792c-0.096-0.148-0.18-0.3-0.26-0.452
				c-1.388-2.632-3.676-3.58-6.28-2.608c-1.188,0.444-2.008,1.16-2.436,2.124c-0.46,1.036-0.416,2.308,0.132,3.68
				c1.16,2.92,0.744,5.636-1.24,8.064c-1.792,2.196-4.552,3.404-7.712,3.292c-3.284-0.112-6.32-1.684-8.112-4.212
				c-0.216-0.304-0.404-0.628-0.576-0.952c-1.436-2.724-3.632-3.724-6.184-2.816c-2.588,0.924-3.488,3.104-2.464,5.988
				c1.076,3.02,0.692,5.58-1.168,7.816c-1.8,2.16-4.524,3.388-7.5,3.388c-0.044,0-0.088,0-0.132,0
				c-3.204-0.04-6.156-1.468-8.092-3.916c-0.424-0.536-0.784-1.124-1.116-1.708c-1.312-2.296-3.412-3.148-5.756-2.352
				c-1.576,0.536-2.3,1.456-2.628,2.136c-0.488,1-0.5,2.216-0.044,3.52c1.052,2.996,0.868,5.368-0.572,7.468
				c-1.82,2.652-4.732,4.164-8.012,4.164c-0.048,0-0.092,0-0.14,0c-3.512-0.044-6.764-1.848-8.748-4.964
				c-0.116-0.3-0.316-0.796-0.856-1.068c-0.372-0.184-0.768-0.42-1.168-0.66c-1.32-0.784-2.696-1.588-3.944-1.232
				c-1.736,0.5-3.116,3.116-2.988,4.824c0.2,2.676-0.296,3.224-1.784,3.428c-1.352,0.18-2.696-0.052-3.332-3.024
				c-0.844-3.92,1.616-7.952,5.728-9.376C50.168,110.136,51.335,109.944,52.496,109.944z M180.663,139.148
				c-0.116,6.46-1.012,13.248-1.876,19.04c-0.884,5.956-3.016,11.16-7.132,17.4c-0.18,0.276-0.46,0.816-0.732,1.364
				c-0.2,0.404-0.396,0.812-0.532,1.024l-0.648,0.972l0.536,1.036c0.18,0.352,0.332,0.724,0.484,1.092
				c0.18,0.44,0.364,0.88,0.572,1.296c1.296,2.588,2.784,5.1,4.228,7.528l0.364,0.616c0.912,1.536,1.836,3.072,2.76,4.6
				c2.792,4.62,5.676,9.4,8.088,14.252c1.012,2.036,2.06,4.144,2.336,6.356c0.172,1.348,0.216,2.712,0.256,4.056
				c0.144,4.34,0.308,9.264,4.828,12.812c0.408,0.32,0.384,0.496,0.368,0.6c-0.116,0.808-1.448,2.164-3.4,2.944
				c-1.4,0.568-3.292,0.848-4.408-0.024c-4.392-3.448-4.684-8.28-5.02-13.872c-0.08-1.292-0.156-2.596-0.324-3.648l-0.016-0.772
				l-0.132-0.444c-0.188-0.648-0.44-1.272-0.716-1.952c-0.636-1.544-1.388-3.04-2.164-4.52c-2.392-4.576-5.092-9.068-7.704-13.408
				c-1.164-1.932-2.324-3.864-3.464-5.808c-0.424-0.724-0.9-1.464-1.388-2.224c-2.352-3.66-4.576-7.116-2.644-11.004l1.408-3.104
				l-2.568-0.612c-3.952-1.32-8.084-2.42-12.08-3.488c-9.668-2.58-18.8-5.012-25.652-10.264
				c-10.12-7.752-14.356-19.66-18.092-30.168c-0.192-0.544,0-1.168,0.584-1.856c1.168-1.376,3.48-2.416,5.196-2.416
				c0.22,0,0.432,0.016,0.628,0.052c0.808,0.148,0.952,0.548,1.02,0.744l0.176,0.496c3.844,10.808,7.82,21.984,17.976,29.66
				c6.744,5.1,16.096,7.464,25.14,9.752c3.28,0.828,6.548,1.656,9.672,2.604l1.712,0.52l0.696-1.648
				c1.232-2.92,1.8-5.836,2.192-8.304c1.288-8.108,1.856-14.696,1.788-20.736c-0.168-14.904-8.116-27.152-14.5-36.992
				c-0.556-0.856,0.756-1.836,1.348-2.22c2.14-1.392,5.556-1.864,6.496-0.424C173.736,111.484,180.944,123.904,180.663,139.148z
				 M119.472,131.788c4.62-1.56,9.256-3.148,14.02-4.832c10.084-3.284,19.692-6.552,28.952-10.012
				c3.908,7.316,6.484,14.516,6.58,22.808c0.068,5.808-0.488,12.18-1.74,20.064c-0.28,1.748-0.652,3.736-1.312,5.732
				c-2.636-0.752-5.348-1.44-8.072-2.128c-8.664-2.188-17.616-4.452-23.72-9.068C126.548,148.576,122.66,140.296,119.472,131.788z
				 M224.756,71.348c-2.428,6.616-8.68,13.22-19.116,20.188c-9.308,6.212-19.4,11.328-30.132,15.932
				c-1.848-3.284-3.836-6.46-5.844-9.556c-2.328-3.588-8.076-3.28-11.984-0.744c-3.212,2.084-4.2,5.112-2.516,7.708
				c1.908,2.94,3.704,5.772,5.336,8.56c-9.036,3.36-18.424,6.548-28.276,9.76c-4.804,1.696-9.464,3.288-14.116,4.86
				c-0.184-0.512-0.368-1.024-0.552-1.532l-0.176-0.496c-0.632-1.772-2.068-2.952-4.04-3.312c-3.112-0.58-7.316,1.048-9.564,3.692
				c-1.524,1.792-1.988,3.836-1.304,5.76c0.1,0.28,0.208,0.572,0.308,0.852c-16.396,5.004-32.188,8.708-48.104,9.772
				c-12.556,0.84-21.592-0.58-27.608-4.332c-3.548-2.216-5.988-5.796-6.52-9.576c-0.484-3.416,0.564-6.668,3.028-9.404
				c2.64-2.932,6.796-5.32,12.704-7.292c3.108-1.036,6.28-1.844,9.484-2.516c-3.604,2.368-5.568,6.564-4.676,10.708
				c0.836,3.892,3.016,4.856,4.972,4.856c0.304,0,0.596-0.024,0.884-0.064c4.136-0.564,3.86-4.26,3.744-5.84
				c-0.064-0.876,0.884-2.34,1.352-2.476c0.368-0.048,1.532,0.628,2.164,1c0.368,0.22,0.732,0.436,1.08,0.62
				c0.076,0.188,0.16,0.372,0.26,0.532c2.34,3.612,6.288,5.804,10.564,5.86c4.12,0.188,7.776-1.824,10.056-5.148
				c1.856-2.704,2.132-5.812,0.84-9.5c-0.176-0.5-0.332-1.22-0.056-1.78c0.204-0.42,0.648-0.752,1.32-0.98
				c0.82-0.28,2.036-0.452,3.06,1.332c0.392,0.684,0.812,1.368,1.308,1.992c2.364,2.984,5.952,4.724,9.844,4.772
				c3.692,0.052,7.136-1.488,9.4-4.204c2.352-2.828,2.896-6.296,1.564-10.028c-0.708-1.992-0.076-2.676,1.088-3.088
				c0.98-0.352,2.252-0.464,3.416,1.736c0.22,0.416,0.46,0.82,0.732,1.204c2.2,3.1,5.896,5.032,9.884,5.168
				c3.792,0.172,7.3-1.376,9.548-4.124c2.504-3.068,3.056-6.644,1.588-10.332c-0.22-0.552-0.428-1.336-0.168-1.924
				c0.172-0.388,0.564-0.696,1.16-0.92c0.96-0.364,2.356-0.588,3.48,1.54c0.116,0.22,0.236,0.432,0.376,0.644
				c2.84,4.276,6.876,6.22,11.976,5.804c5.056-0.424,8.932-3.664,9.88-8.252c0.268-1.304,0.048-2.608-0.164-3.868
				c-0.152-0.904-0.296-1.756-0.248-2.548c0.056-1.008,0.6-2.188,0.852-2.348c0.752-0.212,2.244,0.412,3.332,0.868l0.212,0.072
				c0.076,0.08,0.22,0.376,0.312,0.576c0.152,0.316,0.308,0.636,0.492,0.9c2.696,3.824,7.644,5.948,12.356,5.26
				c4.94-0.712,8.696-4.244,9.352-8.78c0.16-1.1-0.052-2.164-0.252-3.192c-0.16-0.804-0.308-1.568-0.256-2.252
				c0.088-1.272,0.564-2.5,0.768-2.668c0.536-0.16,1.632,0.276,2.512,0.616c0.364,0.144,1.2,0.604,1.2,0.604
				c1.74,2.448,4.216,3.08,6.616,1.704c1.48-0.848,2-1.944,2.172-2.72c0.268-1.18-0.048-2.46-0.908-3.7
				c-1.08-1.556-2.168-2.708-3.324-3.52c-1.084-0.76-2.252-1.324-3.464-1.72c4.272-2.244,8.648-4.292,13.22-5.872
				c4.344-1.5,8.076-2.24,11.3-2.24c1.148,0,2.232,0.092,3.256,0.28c4.644,0.848,7.06,3.548,8.268,5.664
				C225.895,63.192,226.176,67.476,224.756,71.348z M231.048,51.444c-0.396,0.66-1.536,1.104-2.6,1.456
				c-1.392,0.46-2.808,0.828-4.224,1.2c-1.412-1.24-3.02-2.248-4.848-2.928l-1.468-4.636c-0.224-0.708-0.288-1.188-0.26-1.488
				l5.192,5.916l0.992-2.672c0.384-1.032,1.276-1.952,2.376-2.456c0.208-0.092,0.404-0.148,0.568-0.176
				c-0.076,0.2-0.172,0.432-0.248,0.612c-0.448,1.064-1.128,2.672-0.064,4.144l1.184,1.64l1.412-1.452
				c0.408-0.424,1.292-0.556,1.752-0.272C231.155,50.552,231.272,51.076,231.048,51.444z"/>
			<path d="M71.567,7.732c7.888,8.972,8.684,22.596,1.856,31.688c-5.704,7.596-6.804,16.376-3.264,26.1
				c0.132,0.36,0.3,0.716,0.468,1.068l2.928,6.444l-0.024-6.62c-0.028-7.508,3.372-13.608,10.392-18.648
				c1.424-1.024,2.688-2.204,4.064-3.492c3.208-2.996,4.98-6.824,5.264-11.376c0.872-13.692-7.912-25.18-23.492-30.732L63.675,0
				l5.844,5.688C70.275,6.4,70.96,7.04,71.567,7.732z M90.424,32.72c-0.244,3.864-1.672,6.964-4.528,9.632
				c-1.156,1.08-2.344,2.192-3.624,3.108c-5.724,4.108-9.288,8.884-10.772,14.484c-1.444-6.968-0.056-13.16,4.192-18.82
				c7.152-9.52,6.836-23.456-0.464-33.364C82.259,11.692,91.275,19.38,90.424,32.72z"/>
			<path d="M50.136,33.072c-0.788,4.792-3.176,9.348-7.308,13.932c-1.988,2.204-4.3,5.232-4.536,9.1
				c-0.504,8.168,5.504,14.424,10.072,18.42l3.004,2.628L50.552,72.4c-0.684-4-0.964-8.204,1.6-11.816
				c1.636-2.304,3.888-4.648,7.096-7.384c6.668-5.684,9.068-12.568,7.124-20.456c-1.956-7.932-11.56-15.748-21.868-17.788
				l-7.368-1.46l6.328,4.044C50.804,22.236,51.007,27.78,50.136,33.072z M63.619,33.432c1.692,6.856-0.34,12.62-6.208,17.62
				c-3.392,2.892-5.796,5.4-7.572,7.9c-2.416,3.408-2.796,7.172-2.504,10.716c-4.556-4.676-6.496-8.9-6.216-13.384
				c0.144-2.336,1.32-4.612,3.816-7.38c4.504-5,7.12-10.028,8-15.372c0.68-4.148,0.824-9.148-2.72-13.74
				C56.84,22.824,62.332,28.188,63.619,33.432z"/>
		</g>
	</g>
</g>
<g>
</g>
<g>
</g>
<g>
</g>
<g>
</g>
<g>
</g>
<g>
</g>
<g>
</g>
<g>
</g>
<g>
</g>
<g>
</g>
<g>
</g>
<g>
</g>
<g>
</g>
<g>
</g>
<g>
</g>
</svg>
