<?xml version="1.0" encoding="iso-8859-1"?>
<!-- Generator: Adobe Illustrator 19.0.0, SVG Export Plug-In . SVG Version: 6.00 Build 0)  -->
<svg version="1.1" id="Layer_1" xmlns="http://www.w3.org/2000/svg" xmlns:xlink="http://www.w3.org/1999/xlink" x="0px" y="0px"
	 viewBox="0 0 326.816 326.816" style="enable-background:new 0 0 326.816 326.816;" xml:space="preserve">
<g>
	<g>
		<path d="M326.767,242.898c-0.16-0.984-0.7-1.84-1.512-2.408c-0.236-0.164-0.508-0.232-0.768-0.34l1.94-14.188l-1.124-0.152
			l-1.924,14.084c-0.312-0.02-0.62-0.072-0.94-0.012c-0.52,0.096-0.992,0.3-1.408,0.576l-91.724-136.74l-11.956-23.12
			c-0.344-0.664-1.032-1.084-1.776-1.084h-105.74h-0.004c-0.02,0-0.032,0.012-0.052,0.016c-0.34,0.012-0.668,0.1-0.952,0.268
			c-0.1,0.06-0.16,0.164-0.248,0.24c-0.16,0.136-0.34,0.252-0.456,0.44c-0.012,0.02-0.008,0.048-0.02,0.072
			c-0.012,0.02-0.036,0.028-0.044,0.048l-9.804,18.964L5.927,240.282c-0.42-0.272-0.896-0.468-1.416-0.564
			c-0.34-0.06-0.668-0.012-0.996,0.012l-2.048-14.596l-1.124,0.156l2.064,14.696c-0.276,0.108-0.568,0.184-0.816,0.356
			c-0.828,0.584-1.376,1.452-1.54,2.448c-0.344,2.064,1.084,4.06,3.172,4.444c0.244,0.044,0.488,0.068,0.728,0.068
			c0.784,0,1.544-0.236,2.192-0.692c0.832-0.58,1.38-1.452,1.544-2.448v-0.004c0.188-1.148-0.204-2.244-0.92-3.084l86.456-131.776
			l-66.752,129.08c-0.32,0.62-0.292,1.36,0.072,1.956s1.008,0.96,1.708,0.96h163.828h23.816c-0.636,0.808-0.972,1.848-0.792,2.928
			c0.16,0.98,0.696,1.832,1.504,2.404c0.632,0.444,1.368,0.672,2.124,0.672c0.232,0,0.46-0.02,0.696-0.064
			c2.024-0.376,3.404-2.32,3.072-4.34c-0.1-0.604-0.38-1.128-0.744-1.6h75.412c0.7,0,1.344-0.364,1.708-0.96
			c0.364-0.596,0.392-1.336,0.072-1.956l-65.032-125.752l86.284,128.636c-0.66,0.816-1.012,1.864-0.828,2.964
			c0.16,0.98,0.696,1.832,1.504,2.404c0.628,0.444,1.368,0.672,2.124,0.672c0.232,0,0.46-0.02,0.696-0.064
			C325.719,246.862,327.099,244.918,326.767,242.898z M5.447,243.79c-0.068,0.392-0.28,0.736-0.608,0.964
			c-0.344,0.244-0.776,0.336-1.204,0.248c-0.888-0.164-1.492-0.992-1.352-1.844c0.068-0.392,0.28-0.736,0.608-0.964
			c0.26-0.184,0.576-0.28,0.9-0.28c0.1,0,0.204,0.008,0.304,0.028C4.979,242.106,5.583,242.934,5.447,243.79z M170.859,219.65
			v-0.004c-9.8-11.92-15.324-27.008-17.2-35.768c-0.44-2.06-0.676-3.708-0.792-5.032l4.22-2.34l22.488,43.144H170.859z
			 M180.523,221.458l5.868,11.256c-5.344-2.828-9.996-6.748-13.988-11.256H180.523z M149.779,179.262l-2.084-4.212l6.7-3.716
			l1.64,3.148l0.508,1.028L149.779,179.262z M150.339,172.286c-7.424-2.016-16.076-14.536-24.636-35.876
			c-6.732-16.772-12.26-36.44-14.224-47.408l42.388,81.324L150.339,172.286z M110.739,96.522
			c2.648,11.368,7.356,27.024,12.86,40.732c5.936,14.792,14.616,31.964,24.152,36.468l-1.548,0.856l3.084,6.252l1.456-0.808
			c1.112,9.776,6.824,26.404,17.196,39.62h-57.2V96.522z M80.443,219.646H52.267l56.66-20.9v10.34L80.443,219.646z M108.927,210.294
			v9.352H83.699L108.927,210.294z M51.619,218.678c3.34-4.3,6.192-8.916,8.532-13.544l48.776-17.988v10.392L51.619,218.678z
			 M60.879,203.658c2.024-4.192,3.636-8.328,4.84-12.18l43.208-15.936v10.396L60.879,203.658z M66.123,190.126
			c1.172-3.988,1.896-7.596,2.164-10.536l1.42,0.788l1.28-2.604l0.048,0.128l37.892-13.976v10.412L66.123,190.126z M71.631,176.478
			l1.156-2.352l-1.612-0.896c3.848-1.844,7.652-5.804,11.296-11.148l26.46-9.76v10.392L71.631,176.478z M108.927,129.242v10.276
			l-17.6,6.492c1.812-3.908,3.544-8.008,5.172-12.184L108.927,129.242z M97.035,132.422c1.52-3.972,2.94-7.984,4.252-11.932
			l7.636-2.816v10.364L97.035,132.422z M108.927,140.718v10.396l-25.42,9.38c2.476-3.84,4.872-8.256,7.144-13.032L108.927,140.718z
			 M108.927,93.05v23.412l-7.18,2.648C104.951,109.302,107.431,100.03,108.927,93.05z M106.955,91.438
			c-2.328,11.312-7.492,29.132-13.664,44.52c-8.556,21.32-17.204,33.852-24.624,35.884l-2.556-1.416L106.955,91.438z M65.591,171.43
			l5.704,3.164l-2.08,4.212l-5.78-3.208L65.591,171.43z M62.915,176.606l3.208,1.78c-0.112,1.32-0.348,2.968-0.784,5.02
			c-1.896,8.876-7.528,24.244-17.564,36.236h-7.112L62.915,176.606z M39.723,221.458h6.456c-3.348,3.708-7.144,7.02-11.424,9.612
			L39.723,221.458z M31.531,237.302v-0.004l1.368-2.644c6.336-3.192,11.824-7.824,16.452-13.192h120.024
			c5.1,6.084,11.232,11.3,18.424,14.532c0.108,0.048,0.22,0.056,0.332,0.072l0.644,1.236H31.531z M193.287,237.298l-69.64-133.604
			l89.62,133.604H193.287z M219.011,245.006c-0.388,0.072-0.776-0.008-1.1-0.236c-0.308-0.216-0.512-0.544-0.576-0.916v-0.004
			c-0.132-0.808,0.424-1.588,1.248-1.74c0.092-0.016,0.184-0.024,0.276-0.024c0.296,0,0.584,0.088,0.824,0.256
			c0.308,0.22,0.516,0.544,0.576,0.916C220.387,244.074,219.831,244.858,219.011,245.006z M293.875,237.298h-73.272l1.552-11.336
			l-1.124-0.152l-1.572,11.488h-4.824L118.871,94.53l-5.744-11.016h101.228L293.875,237.298z M323.283,245.006
			c-0.392,0.08-0.784-0.004-1.1-0.236c-0.308-0.216-0.512-0.54-0.576-0.916v-0.004c-0.132-0.808,0.424-1.588,1.248-1.74
			c0.092-0.016,0.184-0.024,0.276-0.024c0.296,0,0.584,0.088,0.824,0.256c0.308,0.22,0.516,0.544,0.576,0.916
			C324.663,244.074,324.103,244.858,323.283,245.006z"/>
	</g>
</g>
<g>
</g>
<g>
</g>
<g>
</g>
<g>
</g>
<g>
</g>
<g>
</g>
<g>
</g>
<g>
</g>
<g>
</g>
<g>
</g>
<g>
</g>
<g>
</g>
<g>
</g>
<g>
</g>
<g>
</g>
</svg>
